{
.appVersion = "1352";
DisplayStrings = (

glyphs = (
{
glyphname = .notdef;
lastChange = "2022-03-02 21:18:25 +0000";
layers = (
{
layerId = "423D2297-FAE2-4393-80D6-0A1E9777D337";
paths = (
{
closed = 1;
nodes = (
"438 5 LINE",
"438 780 LINE",
"63 780 LINE",
"63 5 LINE"
);
},
{
closed = 1;
nodes = (
"251 358 LINE",
"375 68 LINE",
"125 68 LINE"
);
},
{
closed = 1;
nodes = (
"125 640 LINE",
"234 394 LINE",
"125 136 LINE"
);
},
{
closed = 1;
nodes = (
"375 138 LINE",
"267 394 LINE",
"375 637 LINE"
);
},
{
closed = 1;
nodes = (
"125 711 LINE",
"375 711 LINE",
"251 430 LINE"
);
}
);
userData = {
assembly = "NPUSHB[ ]	/* 31 values pushed */\0121 8 8 64 9 2 7 4 5 1 0 6 5 5 3 2 5 4 8 0 7 6 8 1 2 1 3 0 1 0 70 \012SROUND[ ]	/* SuperRound */\012MDAP[1]	/* MoveDirectAbsPt */\012SHZ[1]	/* ShiftZoneByLastPoint */\012RTG[ ]	/* RoundToGrid */\012SVTCA[0]	/* SetFreedomAndProjectionVectorToAxis */\012MDAP[1]	/* MoveDirectAbsPt */\012ALIGNRP[ ]	/* AlignRelativePt */\012MDAP[1]	/* MoveDirectAbsPt */\012ALIGNRP[ ]	/* AlignRelativePt */\012SRP0[ ]	/* SetRefPoint0 */\012MIRP[11101]	/* MoveIndirectRelPt */\012ALIGNRP[ ]	/* AlignRelativePt */\012SRP0[ ]	/* SetRefPoint0 */\012MIRP[11101]	/* MoveIndirectRelPt */\012ALIGNRP[ ]	/* AlignRelativePt */\012SVTCA[1]	/* SetFreedomAndProjectionVectorToAxis */\012MDAP[1]	/* MoveDirectAbsPt */\012ALIGNRP[ ]	/* AlignRelativePt */\012MIRP[11101]	/* MoveIndirectRelPt */\012ALIGNRP[ ]	/* AlignRelativePt */\012MDAP[1]	/* MoveDirectAbsPt */\012ALIGNRP[ ]	/* AlignRelativePt */\012MIRP[11101]	/* MoveIndirectRelPt */\012ALIGNRP[ ]	/* AlignRelativePt */\012SVTCA[0]	/* SetFreedomAndProjectionVectorToAxis */\012IUP[1]	/* InterpolateUntPts */\012IUP[0]	/* InterpolateUntPts */\012SVTCA[1]	/* SetFreedomAndProjectionVectorToAxis */\012MD[0]	/* MeasureDistance */\012ROUND[00]	/* Round */\012PUSHW[ ]	/* 2 values pushed */\0120 8 \012MD[0]	/* MeasureDistance */\012ROUND[00]	/* Round */\012SUB[ ]	/* Subtract */\012PUSHB[ ]	/* 1 value pushed */\01264 \012GT[ ]	/* GreaterThan */\012IF[ ]	/* If */\012SHPIX[ ]	/* ShiftZoneByPixel */\012SRP1[ ]	/* SetRefPoint1 */\012SHZ[1]	/* ShiftZoneByLastPoint */\012PUSHW[ ]	/* 2 values pushed */\0128 -64 \012SHPIX[ ]	/* ShiftZoneByPixel */\012EIF[ ]	/* EndIf */";
};
width = 500;
}
);
note = .notdef;
},
{
glyphname = A;
lastChange = "2022-03-02 21:18:25 +0000";
layers = (
{
layerId = "423D2297-FAE2-4393-80D6-0A1E9777D337";
paths = (
{
closed = 1;
nodes = (
"404 -86 OFFCURVE",
"522 18 OFFCURVE",
"595 225 CURVE SMOOTH",
"607 259 LINE",
"723 259 LINE",
"698 144 OFFCURVE",
"682 99 OFFCURVE",
"605 5 CURVE",
"629 4 OFFCURVE",
"649 2 OFFCURVE",
"711 -12 CURVE SMOOTH",
"730 -17 OFFCURVE",
"747 -20 OFFCURVE",
"760 -20 CURVE SMOOTH",
"789 -20 OFFCURVE",
"803 -7 OFFCURVE",
"803 13 CURVE SMOOTH",
"803 32 OFFCURVE",
"790 47 OFFCURVE",
"783 47 CURVE SMOOTH",
"778 47 OFFCURVE",
"776 44 OFFCURVE",
"776 39 CURVE",
"782 33 OFFCURVE",
"789 23 OFFCURVE",
"789 16 CURVE SMOOTH",
"789 4 OFFCURVE",
"781 0 OFFCURVE",
"771 0 CURVE SMOOTH",
"750 0 OFFCURVE",
"702 20 OFFCURVE",
"667 20 CURVE SMOOTH",
"658 20 OFFCURVE",
"643 20 OFFCURVE",
"629 16 CURVE",
"717 55 OFFCURVE",
"766 154 OFFCURVE",
"776 281 CURVE SMOOTH",
"785 378 OFFCURVE",
"802 437 OFFCURVE",
"817 485 CURVE",
"829 479 OFFCURVE",
"854 477 OFFCURVE",
"867 477 CURVE SMOOTH",
"894 477 OFFCURVE",
"918 491 OFFCURVE",
"918 519 CURVE SMOOTH",
"918 558 OFFCURVE",
"878 578 OFFCURVE",
"835 578 CURVE SMOOTH",
"806 578 OFFCURVE",
"773 567 OFFCURVE",
"736 543 CURVE",
"632 605 OFFCURVE",
"561 653 OFFCURVE",
"480 653 CURVE SMOOTH",
"347 653 OFFCURVE",
"255 572 OFFCURVE",
"255 447 CURVE SMOOTH",
"255 355 OFFCURVE",
"335 287 OFFCURVE",
"436 287 CURVE SMOOTH",
"523 287 OFFCURVE",
"592 332 OFFCURVE",
"592 409 CURVE SMOOTH",
"592 446 OFFCURVE",
"580 471 OFFCURVE",
"555 485 CURVE SMOOTH",
"548 488 OFFCURVE",
"544 490 OFFCURVE",
"541 490 CURVE SMOOTH",
"536 490 OFFCURVE",
"533 487 OFFCURVE",
"533 483 CURVE SMOOTH",
"533 477 OFFCURVE",
"538 476 OFFCURVE",
"544 473 CURVE",
"563 460 OFFCURVE",
"572 440 OFFCURVE",
"572 412 CURVE SMOOTH",
"572 343 OFFCURVE",
"514 305 OFFCURVE",
"437 305 CURVE SMOOTH",
"346 305 OFFCURVE",
"286 367 OFFCURVE",
"286 454 CURVE SMOOTH",
"286 553 OFFCURVE",
"370 605 OFFCURVE",
"471 605 CURVE SMOOTH",
"537 605 OFFCURVE",
"654 564 OFFCURVE",
"718 527 CURVE",
"667 480 OFFCURVE",
"617 347 OFFCURVE",
"571 222 CURVE SMOOTH",
"501 34 OFFCURVE",
"390 -68 OFFCURVE",
"244 -68 CURVE SMOOTH",
"124 -68 OFFCURVE",
"37 22 OFFCURVE",
"37 132 CURVE SMOOTH",
"37 231 OFFCURVE",
"101 316 OFFCURVE",
"205 316 CURVE SMOOTH",
"286 316 OFFCURVE",
"339 260 OFFCURVE",
"339 185 CURVE SMOOTH",
"339 117 OFFCURVE",
"298 72 OFFCURVE",
"232 72 CURVE SMOOTH",
"219 72 OFFCURVE",
"204 75 OFFCURVE",
"193 84 CURVE SMOOTH",
"188 87 OFFCURVE",
"184 95 OFFCURVE",
"181 95 CURVE SMOOTH",
"178 95 OFFCURVE",
"176 93 OFFCURVE",
"176 89 CURVE SMOOTH",
"176 77 OFFCURVE",
"194 59 OFFCURVE",
"231 59 CURVE SMOOTH",
"308 59 OFFCURVE",
"358 109 OFFCURVE",
"358 185 CURVE SMOOTH",
"358 226 OFFCURVE",
"345 260 OFFCURVE",
"318 288 CURVE SMOOTH",
"289 317 OFFCURVE",
"253 332 OFFCURVE",
"209 332 CURVE SMOOTH",
"91 332 OFFCURVE",
"6 241 OFFCURVE",
"6 127 CURVE SMOOTH",
"6 3 OFFCURVE",
"107 -86 OFFCURVE",
"243 -86 CURVE SMOOTH"
);
},
{
closed = 1;
nodes = (
"613 280 LINE",
"659 409 OFFCURVE",
"699 488 OFFCURVE",
"734 521 CURVE",
"768 504 OFFCURVE",
"788 495 OFFCURVE",
"795 492 CURVE",
"766 424 OFFCURVE",
"744 354 OFFCURVE",
"729 280 CURVE"
);
},
{
closed = 1;
nodes = (
"849 493 OFFCURVE",
"834 495 OFFCURVE",
"823 499 CURVE",
"827 506 OFFCURVE",
"829 513 OFFCURVE",
"829 519 CURVE SMOOTH",
"829 522 OFFCURVE",
"826 528 OFFCURVE",
"821 528 CURVE SMOOTH",
"812 528 OFFCURVE",
"809 523 OFFCURVE",
"802 508 CURVE",
"751 533 LINE",
"776 552 OFFCURVE",
"803 561 OFFCURVE",
"832 561 CURVE SMOOTH",
"860 561 OFFCURVE",
"898 548 OFFCURVE",
"898 519 CURVE SMOOTH",
"898 501 OFFCURVE",
"882 493 OFFCURVE",
"860 493 CURVE SMOOTH"
);
}
);
userData = {
assembly = "NPUSHB[ ]	/* 68 values pushed */\0121 158 158 64 159 131 154 153 151 150 145 139 138 136 133 127 125 114 107 98 88 78 71 64 61 57 49 39 38 28 22 15 12 2 0 156 153 151 150 147 143 141 135 131 117 111 105 101 94 84 75 68 59 53 45 38 34 26 20 17 10 121 42 10 1 1 45 70 \012SROUND[ ]	/* SuperRound */\012MDAP[1]	/* MoveDirectAbsPt */\012SHZ[1]	/* ShiftZoneByLastPoint */\012RTG[ ]	/* RoundToGrid */\012SVTCA[0]	/* SetFreedomAndProjectionVectorToAxis */\012MIAP[1]	/* MoveIndirectAbsPt */\012MDAP[1]	/* MoveDirectAbsPt */\012MDAP[1]	/* MoveDirectAbsPt */\012SVTCA[1]	/* SetFreedomAndProjectionVectorToAxis */\012MDAP[0]	/* MoveDirectAbsPt */\012MDAP[0]	/* MoveDirectAbsPt */\012MDAP[0]	/* MoveDirectAbsPt */\012MDAP[0]	/* MoveDirectAbsPt */\012MDAP[0]	/* MoveDirectAbsPt */\012MDAP[0]	/* MoveDirectAbsPt */\012MDAP[0]	/* MoveDirectAbsPt */\012MDAP[0]	/* MoveDirectAbsPt */\012MDAP[0]	/* MoveDirectAbsPt */\012MDAP[0]	/* MoveDirectAbsPt */\012MDAP[0]	/* MoveDirectAbsPt */\012MDAP[0]	/* MoveDirectAbsPt */\012MDAP[0]	/* MoveDirectAbsPt */\012MDAP[0]	/* MoveDirectAbsPt */\012MDAP[0]	/* MoveDirectAbsPt */\012MDAP[0]	/* MoveDirectAbsPt */\012MDAP[0]	/* MoveDirectAbsPt */\012MDAP[0]	/* MoveDirectAbsPt */\012MDAP[0]	/* MoveDirectAbsPt */\012MDAP[0]	/* MoveDirectAbsPt */\012MDAP[0]	/* MoveDirectAbsPt */\012MDAP[0]	/* MoveDirectAbsPt */\012MDAP[0]	/* MoveDirectAbsPt */\012MDAP[0]	/* MoveDirectAbsPt */\012MDAP[0]	/* MoveDirectAbsPt */\012MDAP[0]	/* MoveDirectAbsPt */\012SVTCA[0]	/* SetFreedomAndProjectionVectorToAxis */\012MDAP[0]	/* MoveDirectAbsPt */\012MDAP[0]	/* MoveDirectAbsPt */\012MDAP[0]	/* MoveDirectAbsPt */\012MDAP[0]	/* MoveDirectAbsPt */\012MDAP[0]	/* MoveDirectAbsPt */\012MDAP[0]	/* MoveDirectAbsPt */\012MDAP[0]	/* MoveDirectAbsPt */\012MDAP[0]	/* MoveDirectAbsPt */\012MDAP[0]	/* MoveDirectAbsPt */\012MDAP[0]	/* MoveDirectAbsPt */\012MDAP[0]	/* MoveDirectAbsPt */\012MDAP[0]	/* MoveDirectAbsPt */\012MDAP[0]	/* MoveDirectAbsPt */\012MDAP[0]	/* MoveDirectAbsPt */\012MDAP[0]	/* MoveDirectAbsPt */\012MDAP[0]	/* MoveDirectAbsPt */\012MDAP[0]	/* MoveDirectAbsPt */\012MDAP[0]	/* MoveDirectAbsPt */\012MDAP[0]	/* MoveDirectAbsPt */\012MDAP[0]	/* MoveDirectAbsPt */\012MDAP[0]	/* MoveDirectAbsPt */\012MDAP[0]	/* MoveDirectAbsPt */\012MDAP[0]	/* MoveDirectAbsPt */\012MDAP[0]	/* MoveDirectAbsPt */\012MDAP[0]	/* MoveDirectAbsPt */\012MDAP[0]	/* MoveDirectAbsPt */\012MDAP[0]	/* MoveDirectAbsPt */\012MDAP[0]	/* MoveDirectAbsPt */\012MDAP[0]	/* MoveDirectAbsPt */\012IUP[1]	/* InterpolateUntPts */\012IUP[0]	/* InterpolateUntPts */\012SVTCA[1]	/* SetFreedomAndProjectionVectorToAxis */\012MD[0]	/* MeasureDistance */\012ROUND[00]	/* Round */\012PUSHW[ ]	/* 2 values pushed */\01245 158 \012MD[0]	/* MeasureDistance */\012ROUND[00]	/* Round */\012SUB[ ]	/* Subtract */\012PUSHB[ ]	/* 1 value pushed */\01264 \012GT[ ]	/* GreaterThan */\012IF[ ]	/* If */\012SHPIX[ ]	/* ShiftZoneByPixel */\012SRP1[ ]	/* SetRefPoint1 */\012SHZ[1]	/* ShiftZoneByLastPoint */\012PUSHW[ ]	/* 2 values pushed */\012158 -64 \012SHPIX[ ]	/* ShiftZoneByPixel */\012EIF[ ]	/* EndIf */";
};
width = 852;
}
);
note = A;
unicode = 0041;
},
{
glyphname = AE;
lastChange = "2022-03-02 21:18:25 +0000";
layers = (
{
layerId = "423D2297-FAE2-4393-80D6-0A1E9777D337";
paths = (
{
closed = 1;
nodes = (
"404 -86 OFFCURVE",
"522 18 OFFCURVE",
"595 225 CURVE SMOOTH",
"607 259 LINE",
"723 259 LINE",
"698 144 OFFCURVE",
"682 99 OFFCURVE",
"605 5 CURVE",
"629 4 OFFCURVE",
"649 2 OFFCURVE",
"711 -12 CURVE SMOOTH",
"730 -17 OFFCURVE",
"747 -20 OFFCURVE",
"760 -20 CURVE SMOOTH",
"789 -20 OFFCURVE",
"803 -7 OFFCURVE",
"803 13 CURVE SMOOTH",
"803 19 OFFCURVE",
"799 22 OFFCURVE",
"796 22 CURVE SMOOTH",
"792 22 OFFCURVE",
"789 19 OFFCURVE",
"789 16 CURVE SMOOTH",
"789 4 OFFCURVE",
"781 0 OFFCURVE",
"771 0 CURVE SMOOTH",
"750 0 OFFCURVE",
"702 20 OFFCURVE",
"667 20 CURVE SMOOTH",
"658 20 OFFCURVE",
"649 20 OFFCURVE",
"635 16 CURVE",
"685 46 OFFCURVE",
"719 77 OFFCURVE",
"743 113 CURVE",
"779 17 OFFCURVE",
"884 -34 OFFCURVE",
"1008 -34 CURVE SMOOTH",
"1142 -34 OFFCURVE",
"1261 42 OFFCURVE",
"1261 176 CURVE SMOOTH",
"1261 257 OFFCURVE",
"1209 314 OFFCURVE",
"1126 314 CURVE SMOOTH",
"1087 314 OFFCURVE",
"1051 288 OFFCURVE",
"1051 251 CURVE SMOOTH",
"1051 230 OFFCURVE",
"1060 221 OFFCURVE",
"1070 221 CURVE SMOOTH",
"1075 221 OFFCURVE",
"1078 223 OFFCURVE",
"1078 227 CURVE SMOOTH",
"1078 228 OFFCURVE",
"1078 228 OFFCURVE",
"1077 228 CURVE SMOOTH",
"1071 228 OFFCURVE",
"1064 232 OFFCURVE",
"1064 245 CURVE SMOOTH",
"1064 276 OFFCURVE",
"1089 297 OFFCURVE",
"1128 297 CURVE SMOOTH",
"1191 297 OFFCURVE",
"1228 246 OFFCURVE",
"1228 182 CURVE SMOOTH",
"1228 55 OFFCURVE",
"1126 -19 OFFCURVE",
"996 -19 CURVE SMOOTH",
"878 -19 OFFCURVE",
"782 64 OFFCURVE",
"782 178 CURVE SMOOTH",
"782 278 OFFCURVE",
"830 372 OFFCURVE",
"919 404 CURVE",
"950 382 OFFCURVE",
"981 367 OFFCURVE",
"1022 367 CURVE SMOOTH",
"1053 367 OFFCURVE",
"1078 380 OFFCURVE",
"1078 400 CURVE SMOOTH",
"1078 420 OFFCURVE",
"1057 433 OFFCURVE",
"1011 433 CURVE SMOOTH",
"988 433 OFFCURVE",
"960 429 OFFCURVE",
"941 424 CURVE",
"924 445 OFFCURVE",
"915 472 OFFCURVE",
"915 505 CURVE SMOOTH",
"915 584 OFFCURVE",
"963 637 OFFCURVE",
"1040 637 CURVE SMOOTH",
"1092 637 OFFCURVE",
"1140 603 OFFCURVE",
"1140 551 CURVE SMOOTH",
"1140 523 OFFCURVE",
"1120 497 OFFCURVE",
"1095 497 CURVE SMOOTH",
"1079 497 OFFCURVE",
"1065 512 OFFCURVE",
"1060 525 CURVE SMOOTH",
"1057 532 OFFCURVE",
"1056 535 OFFCURVE",
"1052 535 CURVE SMOOTH",
"1049 535 OFFCURVE",
"1047 534 OFFCURVE",
"1047 527 CURVE SMOOTH",
"1047 508 OFFCURVE",
"1064 484 OFFCURVE",
"1094 484 CURVE SMOOTH",
"1134 484 OFFCURVE",
"1164 517 OFFCURVE",
"1164 553 CURVE SMOOTH",
"1164 614 OFFCURVE",
"1100 650 OFFCURVE",
"1035 650 CURVE SMOOTH",
"967 650 OFFCURVE",
"904 622 OFFCURVE",
"879 568 CURVE",
"867 575 OFFCURVE",
"852 578 OFFCURVE",
"835 578 CURVE SMOOTH",
"806 578 OFFCURVE",
"773 567 OFFCURVE",
"736 543 CURVE",
"632 605 OFFCURVE",
"561 653 OFFCURVE",
"480 653 CURVE SMOOTH",
"347 653 OFFCURVE",
"255 572 OFFCURVE",
"255 447 CURVE SMOOTH",
"255 355 OFFCURVE",
"335 287 OFFCURVE",
"436 287 CURVE SMOOTH",
"523 287 OFFCURVE",
"592 332 OFFCURVE",
"592 409 CURVE SMOOTH",
"592 446 OFFCURVE",
"580 471 OFFCURVE",
"555 485 CURVE SMOOTH",
"548 488 OFFCURVE",
"544 490 OFFCURVE",
"541 490 CURVE SMOOTH",
"536 490 OFFCURVE",
"533 487 OFFCURVE",
"533 483 CURVE SMOOTH",
"533 477 OFFCURVE",
"538 476 OFFCURVE",
"544 473 CURVE",
"563 460 OFFCURVE",
"572 440 OFFCURVE",
"572 412 CURVE SMOOTH",
"572 343 OFFCURVE",
"514 305 OFFCURVE",
"437 305 CURVE SMOOTH",
"346 305 OFFCURVE",
"286 367 OFFCURVE",
"286 454 CURVE SMOOTH",
"286 553 OFFCURVE",
"370 605 OFFCURVE",
"471 605 CURVE SMOOTH",
"537 605 OFFCURVE",
"654 564 OFFCURVE",
"718 527 CURVE",
"667 480 OFFCURVE",
"617 347 OFFCURVE",
"571 222 CURVE SMOOTH",
"501 34 OFFCURVE",
"390 -68 OFFCURVE",
"244 -68 CURVE SMOOTH",
"124 -68 OFFCURVE",
"37 22 OFFCURVE",
"37 132 CURVE SMOOTH",
"37 231 OFFCURVE",
"101 316 OFFCURVE",
"205 316 CURVE SMOOTH",
"286 316 OFFCURVE",
"339 260 OFFCURVE",
"339 185 CURVE SMOOTH",
"339 117 OFFCURVE",
"298 72 OFFCURVE",
"232 72 CURVE SMOOTH",
"219 72 OFFCURVE",
"204 75 OFFCURVE",
"193 84 CURVE SMOOTH",
"188 87 OFFCURVE",
"184 95 OFFCURVE",
"181 95 CURVE SMOOTH",
"178 95 OFFCURVE",
"176 93 OFFCURVE",
"176 89 CURVE SMOOTH",
"176 77 OFFCURVE",
"194 59 OFFCURVE",
"231 59 CURVE SMOOTH",
"308 59 OFFCURVE",
"358 109 OFFCURVE",
"358 185 CURVE SMOOTH",
"358 226 OFFCURVE",
"345 260 OFFCURVE",
"318 288 CURVE SMOOTH",
"289 317 OFFCURVE",
"253 332 OFFCURVE",
"209 332 CURVE SMOOTH",
"91 332 OFFCURVE",
"6 241 OFFCURVE",
"6 127 CURVE SMOOTH",
"6 3 OFFCURVE",
"107 -86 OFFCURVE",
"243 -86 CURVE SMOOTH"
);
},
{
closed = 1;
nodes = (
"613 280 LINE",
"659 409 OFFCURVE",
"699 488 OFFCURVE",
"734 521 CURVE",
"768 504 OFFCURVE",
"788 495 OFFCURVE",
"795 492 CURVE",
"766 424 OFFCURVE",
"744 354 OFFCURVE",
"729 280 CURVE"
);
},
{
closed = 1;
nodes = (
"804 408 OFFCURVE",
"811 447 OFFCURVE",
"822 482 CURVE",
"839 479 OFFCURVE",
"854 477 OFFCURVE",
"867 477 CURVE SMOOTH",
"871 477 LINE",
"877 453 OFFCURVE",
"889 432 OFFCURVE",
"907 414 CURVE",
"864 400 OFFCURVE",
"826 379 OFFCURVE",
"797 351 CURVE"
);
},
{
closed = 1;
nodes = (
"849 493 OFFCURVE",
"837 494 OFFCURVE",
"826 498 CURVE",
"830 505 OFFCURVE",
"832 512 OFFCURVE",
"832 518 CURVE SMOOTH",
"832 525 OFFCURVE",
"829 529 OFFCURVE",
"824 529 CURVE SMOOTH",
"815 529 OFFCURVE",
"809 523 OFFCURVE",
"802 508 CURVE",
"751 533 LINE",
"776 552 OFFCURVE",
"803 561 OFFCURVE",
"832 561 CURVE SMOOTH",
"845 561 OFFCURVE",
"860 558 OFFCURVE",
"873 552 CURVE",
"869 540 OFFCURVE",
"867 527 OFFCURVE",
"867 513 CURVE SMOOTH",
"867 506 OFFCURVE",
"867 500 OFFCURVE",
"868 493 CURVE",
"860 493 LINE SMOOTH"
);
},
{
closed = 1;
nodes = (
"993 380 OFFCURVE",
"971 392 OFFCURVE",
"950 412 CURVE",
"971 417 OFFCURVE",
"991 420 OFFCURVE",
"1011 420 CURVE SMOOTH",
"1040 420 OFFCURVE",
"1060 413 OFFCURVE",
"1060 399 CURVE SMOOTH",
"1060 388 OFFCURVE",
"1043 380 OFFCURVE",
"1022 380 CURVE SMOOTH"
);
}
);
userData = {
assembly = "NPUSHB[ ]	/* 100 values pushed */\0121 240 240 64 241 228 236 232 225 220 210 203 195 193 189 187 182 176 172 168 159 157 155 144 137 128 118 108 101 94 91 87 79 69 68 58 52 45 42 38 34 32 30 29 25 23 17 16 14 11 3 2 0 238 234 228 222 218 214 207 199 191 185 179 170 165 147 141 135 131 124 114 105 98 89 83 75 68 64 56 50 47 40 27 25 21 19 13 9 5 2 151 72 161 3 40 1 1 75 70 \012SROUND[ ]	/* SuperRound */\012MDAP[1]	/* MoveDirectAbsPt */\012SHZ[1]	/* ShiftZoneByLastPoint */\012RTG[ ]	/* RoundToGrid */\012SVTCA[0]	/* SetFreedomAndProjectionVectorToAxis */\012MIAP[1]	/* MoveIndirectAbsPt */\012MIAP[1]	/* MoveIndirectAbsPt */\012MDAP[1]	/* MoveDirectAbsPt */\012MDAP[1]	/* MoveDirectAbsPt */\012SVTCA[1]	/* SetFreedomAndProjectionVectorToAxis */\012MDAP[0]	/* MoveDirectAbsPt */\012MDAP[0]	/* MoveDirectAbsPt */\012MDAP[0]	/* MoveDirectAbsPt */\012MDAP[0]	/* MoveDirectAbsPt */\012MDAP[0]	/* MoveDirectAbsPt */\012MDAP[0]	/* MoveDirectAbsPt */\012MDAP[0]	/* MoveDirectAbsPt */\012MDAP[0]	/* MoveDirectAbsPt */\012MDAP[0]	/* MoveDirectAbsPt */\012MDAP[0]	/* MoveDirectAbsPt */\012MDAP[0]	/* MoveDirectAbsPt */\012MDAP[0]	/* MoveDirectAbsPt */\012MDAP[0]	/* MoveDirectAbsPt */\012MDAP[0]	/* MoveDirectAbsPt */\012MDAP[0]	/* MoveDirectAbsPt */\012MDAP[0]	/* MoveDirectAbsPt */\012MDAP[0]	/* MoveDirectAbsPt */\012MDAP[0]	/* MoveDirectAbsPt */\012MDAP[0]	/* MoveDirectAbsPt */\012MDAP[0]	/* MoveDirectAbsPt */\012MDAP[0]	/* MoveDirectAbsPt */\012MDAP[0]	/* MoveDirectAbsPt */\012MDAP[0]	/* MoveDirectAbsPt */\012MDAP[0]	/* MoveDirectAbsPt */\012MDAP[0]	/* MoveDirectAbsPt */\012MDAP[0]	/* MoveDirectAbsPt */\012MDAP[0]	/* MoveDirectAbsPt */\012MDAP[0]	/* MoveDirectAbsPt */\012MDAP[0]	/* MoveDirectAbsPt */\012MDAP[0]	/* MoveDirectAbsPt */\012MDAP[0]	/* MoveDirectAbsPt */\012MDAP[0]	/* MoveDirectAbsPt */\012MDAP[0]	/* MoveDirectAbsPt */\012MDAP[0]	/* MoveDirectAbsPt */\012MDAP[0]	/* MoveDirectAbsPt */\012MDAP[0]	/* MoveDirectAbsPt */\012MDAP[0]	/* MoveDirectAbsPt */\012MDAP[0]	/* MoveDirectAbsPt */\012SVTCA[0]	/* SetFreedomAndProjectionVectorToAxis */\012MDAP[0]	/* MoveDirectAbsPt */\012MDAP[0]	/* MoveDirectAbsPt */\012MDAP[0]	/* MoveDirectAbsPt */\012MDAP[0]	/* MoveDirectAbsPt */\012MDAP[0]	/* MoveDirectAbsPt */\012MDAP[0]	/* MoveDirectAbsPt */\012MDAP[0]	/* MoveDirectAbsPt */\012MDAP[0]	/* MoveDirectAbsPt */\012MDAP[0]	/* MoveDirectAbsPt */\012MDAP[0]	/* MoveDirectAbsPt */\012MDAP[0]	/* MoveDirectAbsPt */\012MDAP[0]	/* MoveDirectAbsPt */\012MDAP[0]	/* MoveDirectAbsPt */\012MDAP[0]	/* MoveDirectAbsPt */\012MDAP[0]	/* MoveDirectAbsPt */\012MDAP[0]	/* MoveDirectAbsPt */\012MDAP[0]	/* MoveDirectAbsPt */\012MDAP[0]	/* MoveDirectAbsPt */\012MDAP[0]	/* MoveDirectAbsPt */\012MDAP[0]	/* MoveDirectAbsPt */\012MDAP[0]	/* MoveDirectAbsPt */\012MDAP[0]	/* MoveDirectAbsPt */\012MDAP[0]	/* MoveDirectAbsPt */\012MDAP[0]	/* MoveDirectAbsPt */\012MDAP[0]	/* MoveDirectAbsPt */\012MDAP[0]	/* MoveDirectAbsPt */\012MDAP[0]	/* MoveDirectAbsPt */\012MDAP[0]	/* MoveDirectAbsPt */\012MDAP[0]	/* MoveDirectAbsPt */\012MDAP[0]	/* MoveDirectAbsPt */\012MDAP[0]	/* MoveDirectAbsPt */\012MDAP[0]	/* MoveDirectAbsPt */\012MDAP[0]	/* MoveDirectAbsPt */\012MDAP[0]	/* MoveDirectAbsPt */\012MDAP[0]	/* MoveDirectAbsPt */\012MDAP[0]	/* MoveDirectAbsPt */\012MDAP[0]	/* MoveDirectAbsPt */\012MDAP[0]	/* MoveDirectAbsPt */\012MDAP[0]	/* MoveDirectAbsPt */\012MDAP[0]	/* MoveDirectAbsPt */\012MDAP[0]	/* MoveDirectAbsPt */\012MDAP[0]	/* MoveDirectAbsPt */\012MDAP[0]	/* MoveDirectAbsPt */\012MDAP[0]	/* MoveDirectAbsPt */\012MDAP[0]	/* MoveDirectAbsPt */\012MDAP[0]	/* MoveDirectAbsPt */\012MDAP[0]	/* MoveDirectAbsPt */\012IUP[1]	/* InterpolateUntPts */\012IUP[0]	/* InterpolateUntPts */\012SVTCA[1]	/* SetFreedomAndProjectionVectorToAxis */\012MD[0]	/* MeasureDistance */\012ROUND[00]	/* Round */\012PUSHW[ ]	/* 2 values pushed */\01275 240 \012MD[0]	/* MeasureDistance */\012ROUND[00]	/* Round */\012SUB[ ]	/* Subtract */\012PUSHB[ ]	/* 1 value pushed */\01264 \012GT[ ]	/* GreaterThan */\012IF[ ]	/* If */\012SHPIX[ ]	/* ShiftZoneByPixel */\012SRP1[ ]	/* SetRefPoint1 */\012SHZ[1]	/* ShiftZoneByLastPoint */\012PUSHW[ ]	/* 2 values pushed */\012240 -64 \012SHPIX[ ]	/* ShiftZoneByPixel */\012EIF[ ]	/* EndIf */";
};
width = 1275;
}
);
note = AE;
unicode = 00C6;
},
{
glyphname = B;
lastChange = "2022-03-02 21:18:25 +0000";
layers = (
{
layerId = "423D2297-FAE2-4393-80D6-0A1E9777D337";
paths = (
{
closed = 1;
nodes = (
"177 -35 OFFCURVE",
"212 -24 OFFCURVE",
"258 13 CURVE",
"315 -7 OFFCURVE",
"363 -17 OFFCURVE",
"402 -17 CURVE SMOOTH",
"524 -17 OFFCURVE",
"631 61 OFFCURVE",
"631 180 CURVE SMOOTH",
"631 283 OFFCURVE",
"541 344 OFFCURVE",
"432 354 CURVE",
"510 355 OFFCURVE",
"593 423 OFFCURVE",
"593 503 CURVE SMOOTH",
"593 568 OFFCURVE",
"551 616 OFFCURVE",
"468 645 CURVE",
"486 670 OFFCURVE",
"512 679 OFFCURVE",
"534 679 CURVE SMOOTH",
"540 679 OFFCURVE",
"548 678 OFFCURVE",
"559 677 CURVE SMOOTH",
"563 677 OFFCURVE",
"566 679 OFFCURVE",
"566 683 CURVE SMOOTH",
"566 689 OFFCURVE",
"558 692 OFFCURVE",
"537 692 CURVE SMOOTH",
"507 692 OFFCURVE",
"478 679 OFFCURVE",
"450 652 CURVE",
"412 665 OFFCURVE",
"368 671 OFFCURVE",
"317 671 CURVE SMOOTH",
"147 671 OFFCURVE",
"0 567 OFFCURVE",
"0 397 CURVE SMOOTH",
"0 310 OFFCURVE",
"50 229 OFFCURVE",
"147 229 CURVE SMOOTH",
"234 229 OFFCURVE",
"299 290 OFFCURVE",
"299 385 CURVE SMOOTH",
"299 447 OFFCURVE",
"269 510 OFFCURVE",
"206 510 CURVE SMOOTH",
"156 510 OFFCURVE",
"125 472 OFFCURVE",
"122 439 CURVE SMOOTH",
"119 409 OFFCURVE",
"132 386 OFFCURVE",
"158 386 CURVE SMOOTH",
"169 386 OFFCURVE",
"174 393 OFFCURVE",
"174 396 CURVE SMOOTH",
"174 398 OFFCURVE",
"173 399 OFFCURVE",
"172 399 CURVE SMOOTH",
"171 399 LINE",
"168 396 OFFCURVE",
"164 395 OFFCURVE",
"159 395 CURVE SMOOTH",
"144 395 OFFCURVE",
"134 409 OFFCURVE",
"134 429 CURVE SMOOTH",
"134 458 OFFCURVE",
"156 498 OFFCURVE",
"204 498 CURVE SMOOTH",
"253 498 OFFCURVE",
"276 446 OFFCURVE",
"276 393 CURVE SMOOTH",
"276 313 OFFCURVE",
"227 245 OFFCURVE",
"154 245 CURVE SMOOTH",
"82 245 OFFCURVE",
"41 322 OFFCURVE",
"41 399 CURVE SMOOTH",
"41 547 OFFCURVE",
"161 657 OFFCURVE",
"320 657 CURVE SMOOTH",
"364 657 OFFCURVE",
"403 651 OFFCURVE",
"437 639 CURVE",
"388 583 OFFCURVE",
"353 488 OFFCURVE",
"330 354 CURVE SMOOTH",
"314 258 OFFCURVE",
"304 203 OFFCURVE",
"300 188 CURVE SMOOTH",
"285 119 OFFCURVE",
"265 68 OFFCURVE",
"242 34 CURVE",
"189 56 OFFCURVE",
"146 68 OFFCURVE",
"121 68 CURVE SMOOTH",
"82 68 OFFCURVE",
"65 38 OFFCURVE",
"65 17 CURVE SMOOTH",
"65 -10 OFFCURVE",
"87 -35 OFFCURVE",
"136 -35 CURVE SMOOTH"
);
},
{
closed = 1;
nodes = (
"107 -21 OFFCURVE",
"87 -11 OFFCURVE",
"87 10 CURVE SMOOTH",
"87 35 OFFCURVE",
"105 47 OFFCURVE",
"140 47 CURVE SMOOTH",
"161 47 OFFCURVE",
"191 39 OFFCURVE",
"232 24 CURVE",
"209 -6 OFFCURVE",
"180 -21 OFFCURVE",
"146 -21 CURVE SMOOTH"
);
},
{
closed = 1;
nodes = (
"350 3 OFFCURVE",
"314 10 OFFCURVE",
"272 25 CURVE",
"311 61 OFFCURVE",
"338 111 OFFCURVE",
"354 175 CURVE SMOOTH",
"360 198 OFFCURVE",
"369 256 OFFCURVE",
"380 347 CURVE",
"480 341 OFFCURVE",
"573 295 OFFCURVE",
"573 199 CURVE SMOOTH",
"573 82 OFFCURVE",
"496 3 OFFCURVE",
"380 3 CURVE SMOOTH"
);
},
{
closed = 1;
nodes = (
"381 364 OFFCURVE",
"381 370 OFFCURVE",
"382 375 CURVE SMOOTH",
"397 492 OFFCURVE",
"422 578 OFFCURVE",
"457 631 CURVE",
"518 604 OFFCURVE",
"548 559 OFFCURVE",
"548 498 CURVE SMOOTH",
"548 418 OFFCURVE",
"451 358 OFFCURVE",
"381 358 CURVE"
);
}
);
userData = {
assembly = "NPUSHB[ ]	/* 61 values pushed */\0121 132 132 64 133 0 130 126 117 111 110 103 89 85 77 69 62 56 52 50 44 35 25 17 15 6 128 124 120 115 111 110 108 104 103 101 97 93 91 83 73 66 59 54 47 40 31 23 13 0 81 11 108 2 79 3 4 1 1 73 70 \012SROUND[ ]	/* SuperRound */\012MDAP[1]	/* MoveDirectAbsPt */\012SHZ[1]	/* ShiftZoneByLastPoint */\012RTG[ ]	/* RoundToGrid */\012SVTCA[0]	/* SetFreedomAndProjectionVectorToAxis */\012MIAP[1]	/* MoveIndirectAbsPt */\012MIAP[1]	/* MoveIndirectAbsPt */\012MIAP[1]	/* MoveIndirectAbsPt */\012MDAP[1]	/* MoveDirectAbsPt */\012MDAP[1]	/* MoveDirectAbsPt */\012SVTCA[1]	/* SetFreedomAndProjectionVectorToAxis */\012MDAP[0]	/* MoveDirectAbsPt */\012MDAP[0]	/* MoveDirectAbsPt */\012MDAP[0]	/* MoveDirectAbsPt */\012MDAP[0]	/* MoveDirectAbsPt */\012MDAP[0]	/* MoveDirectAbsPt */\012MDAP[0]	/* MoveDirectAbsPt */\012MDAP[0]	/* MoveDirectAbsPt */\012MDAP[0]	/* MoveDirectAbsPt */\012MDAP[0]	/* MoveDirectAbsPt */\012MDAP[0]	/* MoveDirectAbsPt */\012MDAP[0]	/* MoveDirectAbsPt */\012MDAP[0]	/* MoveDirectAbsPt */\012MDAP[0]	/* MoveDirectAbsPt */\012MDAP[0]	/* MoveDirectAbsPt */\012MDAP[0]	/* MoveDirectAbsPt */\012MDAP[0]	/* MoveDirectAbsPt */\012MDAP[0]	/* MoveDirectAbsPt */\012MDAP[0]	/* MoveDirectAbsPt */\012MDAP[0]	/* MoveDirectAbsPt */\012MDAP[0]	/* MoveDirectAbsPt */\012MDAP[0]	/* MoveDirectAbsPt */\012MDAP[0]	/* MoveDirectAbsPt */\012MDAP[0]	/* MoveDirectAbsPt */\012MDAP[0]	/* MoveDirectAbsPt */\012SVTCA[0]	/* SetFreedomAndProjectionVectorToAxis */\012MDAP[0]	/* MoveDirectAbsPt */\012MDAP[0]	/* MoveDirectAbsPt */\012MDAP[0]	/* MoveDirectAbsPt */\012MDAP[0]	/* MoveDirectAbsPt */\012MDAP[0]	/* MoveDirectAbsPt */\012MDAP[0]	/* MoveDirectAbsPt */\012MDAP[0]	/* MoveDirectAbsPt */\012MDAP[0]	/* MoveDirectAbsPt */\012MDAP[0]	/* MoveDirectAbsPt */\012MDAP[0]	/* MoveDirectAbsPt */\012MDAP[0]	/* MoveDirectAbsPt */\012MDAP[0]	/* MoveDirectAbsPt */\012MDAP[0]	/* MoveDirectAbsPt */\012MDAP[0]	/* MoveDirectAbsPt */\012MDAP[0]	/* MoveDirectAbsPt */\012MDAP[0]	/* MoveDirectAbsPt */\012MDAP[0]	/* MoveDirectAbsPt */\012MDAP[0]	/* MoveDirectAbsPt */\012MDAP[0]	/* MoveDirectAbsPt */\012MDAP[0]	/* MoveDirectAbsPt */\012IUP[1]	/* InterpolateUntPts */\012IUP[0]	/* InterpolateUntPts */\012SVTCA[1]	/* SetFreedomAndProjectionVectorToAxis */\012MD[0]	/* MeasureDistance */\012ROUND[00]	/* Round */\012PUSHW[ ]	/* 2 values pushed */\01273 132 \012MD[0]	/* MeasureDistance */\012ROUND[00]	/* Round */\012SUB[ ]	/* Subtract */\012PUSHB[ ]	/* 1 value pushed */\01264 \012GT[ ]	/* GreaterThan */\012IF[ ]	/* If */\012SHPIX[ ]	/* ShiftZoneByPixel */\012SRP1[ ]	/* SetRefPoint1 */\012SHZ[1]	/* ShiftZoneByLastPoint */\012PUSHW[ ]	/* 2 values pushed */\012132 -64 \012SHPIX[ ]	/* ShiftZoneByPixel */\012EIF[ ]	/* EndIf */";
};
width = 675;
}
);
note = B;
unicode = 0042;
},
{
glyphname = C;
lastChange = "2022-03-02 21:18:25 +0000";
layers = (
{
layerId = "423D2297-FAE2-4393-80D6-0A1E9777D337";
paths = (
{
closed = 1;
nodes = (
"500 -39 OFFCURVE",
"634 26 OFFCURVE",
"634 138 CURVE SMOOTH",
"634 195 OFFCURVE",
"593 239 OFFCURVE",
"536 239 CURVE SMOOTH",
"501 239 OFFCURVE",
"474 216 OFFCURVE",
"474 181 CURVE SMOOTH",
"474 163 OFFCURVE",
"478 155 OFFCURVE",
"484 155 CURVE SMOOTH",
"487 155 OFFCURVE",
"490 158 OFFCURVE",
"490 165 CURVE SMOOTH",
"490 169 OFFCURVE",
"489 176 OFFCURVE",
"489 181 CURVE SMOOTH",
"489 202 OFFCURVE",
"515 218 OFFCURVE",
"536 218 CURVE SMOOTH",
"576 218 OFFCURVE",
"597 181 OFFCURVE",
"597 139 CURVE SMOOTH",
"597 42 OFFCURVE",
"504 -21 OFFCURVE",
"386 -21 CURVE SMOOTH",
"227 -21 OFFCURVE",
"134 90 OFFCURVE",
"134 266 CURVE SMOOTH",
"134 287 OFFCURVE",
"136 311 OFFCURVE",
"139 336 CURVE",
"185 316 OFFCURVE",
"253 302 OFFCURVE",
"333 302 CURVE SMOOTH",
"475 302 OFFCURVE",
"645 374 OFFCURVE",
"645 512 CURVE SMOOTH",
"645 604 OFFCURVE",
"559 640 OFFCURVE",
"453 640 CURVE SMOOTH",
"293 640 OFFCURVE",
"149 553 OFFCURVE",
"93 397 CURVE",
"44 439 OFFCURVE",
"20 487 OFFCURVE",
"20 533 CURVE SMOOTH",
"20 617 OFFCURVE",
"93 697 OFFCURVE",
"193 697 CURVE SMOOTH",
"295 697 OFFCURVE",
"356 643 OFFCURVE",
"356 552 CURVE SMOOTH",
"356 513 OFFCURVE",
"333 456 OFFCURVE",
"284 456 CURVE SMOOTH",
"280 456 OFFCURVE",
"278 454 OFFCURVE",
"278 451 CURVE SMOOTH",
"278 447 OFFCURVE",
"282 443 OFFCURVE",
"288 443 CURVE SMOOTH",
"342 443 OFFCURVE",
"375 501 OFFCURVE",
"375 554 CURVE SMOOTH",
"375 670 OFFCURVE",
"285 715 OFFCURVE",
"195 715 CURVE SMOOTH",
"54 715 OFFCURVE",
"-12 628 OFFCURVE",
"-12 528 CURVE SMOOTH",
"-12 469 OFFCURVE",
"15 415 OFFCURVE",
"86 368 CURVE",
"76 336 OFFCURVE",
"71 303 OFFCURVE",
"71 270 CURVE SMOOTH",
"71 89 OFFCURVE",
"200 -39 OFFCURVE",
"383 -39 CURVE SMOOTH"
);
},
{
closed = 1;
nodes = (
"263 322 OFFCURVE",
"188 338 OFFCURVE",
"142 362 CURVE",
"172 521 OFFCURVE",
"286 621 OFFCURVE",
"444 621 CURVE SMOOTH",
"528 621 OFFCURVE",
"599 570 OFFCURVE",
"599 492 CURVE SMOOTH",
"599 381 OFFCURVE",
"459 322 OFFCURVE",
"329 322 CURVE SMOOTH"
);
}
);
userData = {
assembly = "NPUSHB[ ]	/* 44 values pushed */\0121 100 100 64 101 53 94 90 80 76 67 59 47 28 23 15 7 2 0 98 92 86 78 74 69 63 61 53 42 40 38 31 25 21 18 11 4 45 35 49 3 1 42 70 \012SROUND[ ]	/* SuperRound */\012MDAP[1]	/* MoveDirectAbsPt */\012SHZ[1]	/* ShiftZoneByLastPoint */\012RTG[ ]	/* RoundToGrid */\012SVTCA[0]	/* SetFreedomAndProjectionVectorToAxis */\012MIAP[1]	/* MoveIndirectAbsPt */\012MDAP[1]	/* MoveDirectAbsPt */\012MDAP[1]	/* MoveDirectAbsPt */\012SVTCA[1]	/* SetFreedomAndProjectionVectorToAxis */\012MDAP[0]	/* MoveDirectAbsPt */\012MDAP[0]	/* MoveDirectAbsPt */\012MDAP[0]	/* MoveDirectAbsPt */\012MDAP[0]	/* MoveDirectAbsPt */\012MDAP[0]	/* MoveDirectAbsPt */\012MDAP[0]	/* MoveDirectAbsPt */\012MDAP[0]	/* MoveDirectAbsPt */\012MDAP[0]	/* MoveDirectAbsPt */\012MDAP[0]	/* MoveDirectAbsPt */\012MDAP[0]	/* MoveDirectAbsPt */\012MDAP[0]	/* MoveDirectAbsPt */\012MDAP[0]	/* MoveDirectAbsPt */\012MDAP[0]	/* MoveDirectAbsPt */\012MDAP[0]	/* MoveDirectAbsPt */\012MDAP[0]	/* MoveDirectAbsPt */\012MDAP[0]	/* MoveDirectAbsPt */\012MDAP[0]	/* MoveDirectAbsPt */\012MDAP[0]	/* MoveDirectAbsPt */\012SVTCA[0]	/* SetFreedomAndProjectionVectorToAxis */\012MDAP[0]	/* MoveDirectAbsPt */\012MDAP[0]	/* MoveDirectAbsPt */\012MDAP[0]	/* MoveDirectAbsPt */\012MDAP[0]	/* MoveDirectAbsPt */\012MDAP[0]	/* MoveDirectAbsPt */\012MDAP[0]	/* MoveDirectAbsPt */\012MDAP[0]	/* MoveDirectAbsPt */\012MDAP[0]	/* MoveDirectAbsPt */\012MDAP[0]	/* MoveDirectAbsPt */\012MDAP[0]	/* MoveDirectAbsPt */\012MDAP[0]	/* MoveDirectAbsPt */\012MDAP[0]	/* MoveDirectAbsPt */\012MDAP[0]	/* MoveDirectAbsPt */\012IUP[1]	/* InterpolateUntPts */\012IUP[0]	/* InterpolateUntPts */\012SVTCA[1]	/* SetFreedomAndProjectionVectorToAxis */\012MD[0]	/* MeasureDistance */\012ROUND[00]	/* Round */\012PUSHW[ ]	/* 2 values pushed */\01242 100 \012MD[0]	/* MeasureDistance */\012ROUND[00]	/* Round */\012SUB[ ]	/* Subtract */\012PUSHB[ ]	/* 1 value pushed */\01264 \012GT[ ]	/* GreaterThan */\012IF[ ]	/* If */\012SHPIX[ ]	/* ShiftZoneByPixel */\012SRP1[ ]	/* SetRefPoint1 */\012SHZ[1]	/* ShiftZoneByLastPoint */\012PUSHW[ ]	/* 2 values pushed */\012100 -64 \012SHPIX[ ]	/* ShiftZoneByPixel */\012EIF[ ]	/* EndIf */";
};
width = 703;
}
);
note = C;
unicode = 0043;
},
{
glyphname = D;
lastChange = "2022-03-02 21:18:25 +0000";
layers = (
{
layerId = "423D2297-FAE2-4393-80D6-0A1E9777D337";
paths = (
{
closed = 1;
nodes = (
"184 -36 OFFCURVE",
"203 -21 OFFCURVE",
"239 10 CURVE",
"295 -9 OFFCURVE",
"344 -19 OFFCURVE",
"387 -19 CURVE SMOOTH",
"578 -19 OFFCURVE",
"710 111 OFFCURVE",
"710 302 CURVE SMOOTH",
"710 467 OFFCURVE",
"608 569 OFFCURVE",
"441 611 CURVE",
"459 631 OFFCURVE",
"478 639 OFFCURVE",
"499 639 CURVE SMOOTH",
"502 639 OFFCURVE",
"507 639 OFFCURVE",
"513 638 CURVE SMOOTH",
"519 637 OFFCURVE",
"523 637 OFFCURVE",
"526 637 CURVE SMOOTH",
"529 637 OFFCURVE",
"531 638 OFFCURVE",
"531 641 CURVE SMOOTH",
"531 647 OFFCURVE",
"521 650 OFFCURVE",
"500 650 CURVE SMOOTH",
"474 650 OFFCURVE",
"448 639 OFFCURVE",
"423 617 CURVE",
"382 625 OFFCURVE",
"341 629 OFFCURVE",
"298 629 CURVE SMOOTH",
"139 629 OFFCURVE",
"-3 530 OFFCURVE",
"-3 370 CURVE SMOOTH",
"-3 285 OFFCURVE",
"47 212 OFFCURVE",
"138 212 CURVE SMOOTH",
"216 212 OFFCURVE",
"277 268 OFFCURVE",
"277 356 CURVE SMOOTH",
"277 412 OFFCURVE",
"248 475 OFFCURVE",
"190 475 CURVE SMOOTH",
"149 475 OFFCURVE",
"112 440 OFFCURVE",
"112 397 CURVE SMOOTH",
"112 372 OFFCURVE",
"124 357 OFFCURVE",
"147 357 CURVE SMOOTH",
"154 357 OFFCURVE",
"158 361 OFFCURVE",
"158 363 CURVE SMOOTH",
"158 367 OFFCURVE",
"151 366 OFFCURVE",
"146 366 CURVE SMOOTH",
"132 366 OFFCURVE",
"122 378 OFFCURVE",
"122 397 CURVE SMOOTH",
"122 433 OFFCURVE",
"153 464 OFFCURVE",
"188 464 CURVE SMOOTH",
"233 464 OFFCURVE",
"254 418 OFFCURVE",
"254 368 CURVE SMOOTH",
"254 295 OFFCURVE",
"215 226 OFFCURVE",
"149 226 CURVE SMOOTH",
"77 226 OFFCURVE",
"36 293 OFFCURVE",
"36 372 CURVE SMOOTH",
"36 511 OFFCURVE",
"146 613 OFFCURVE",
"297 613 CURVE SMOOTH",
"332 613 OFFCURVE",
"370 609 OFFCURVE",
"410 600 CURVE",
"330 511 OFFCURVE",
"319 388 OFFCURVE",
"288 210 CURVE SMOOTH",
"273 129 OFFCURVE",
"252 69 OFFCURVE",
"225 30 CURVE",
"197 43 OFFCURVE",
"149 61 OFFCURVE",
"113 61 CURVE SMOOTH",
"80 61 OFFCURVE",
"47 40 OFFCURVE",
"47 13 CURVE SMOOTH",
"47 -21 OFFCURVE",
"93 -36 OFFCURVE",
"130 -36 CURVE SMOOTH"
);
},
{
closed = 1;
nodes = (
"116 -23 OFFCURVE",
"78 -16 OFFCURVE",
"78 8 CURVE SMOOTH",
"78 26 OFFCURVE",
"95 42 OFFCURVE",
"130 42 CURVE SMOOTH",
"150 42 OFFCURVE",
"179 35 OFFCURVE",
"216 20 CURVE",
"192 -9 OFFCURVE",
"166 -23 OFFCURVE",
"137 -23 CURVE SMOOTH"
);
},
{
closed = 1;
nodes = (
"328 1 OFFCURVE",
"292 8 OFFCURVE",
"253 22 CURVE",
"326 91 OFFCURVE",
"343 207 OFFCURVE",
"353 281 CURVE SMOOTH",
"372 420 OFFCURVE",
"398 547 OFFCURVE",
"430 596 CURVE",
"583 553 OFFCURVE",
"659 455 OFFCURVE",
"659 300 CURVE SMOOTH",
"659 132 OFFCURVE",
"531 1 OFFCURVE",
"363 1 CURVE SMOOTH"
);
}
);
userData = {
assembly = "NPUSHB[ ]	/* 55 values pushed */\0121 116 116 64 117 0 114 108 103 94 88 87 85 82 76 74 66 59 54 43 35 25 17 15 5 110 106 101 95 94 92 88 80 63 56 52 46 39 23 11 0 31 5 70 7 78 3 50 48 2 3 1 1 70 70 \012SROUND[ ]	/* SuperRound */\012MDAP[1]	/* MoveDirectAbsPt */\012SHZ[1]	/* ShiftZoneByLastPoint */\012RTG[ ]	/* RoundToGrid */\012SVTCA[0]	/* SetFreedomAndProjectionVectorToAxis */\012MIAP[1]	/* MoveIndirectAbsPt */\012MIAP[1]	/* MoveIndirectAbsPt */\012ALIGNRP[ ]	/* AlignRelativePt */\012MIAP[1]	/* MoveIndirectAbsPt */\012MDAP[1]	/* MoveDirectAbsPt */\012SVTCA[1]	/* SetFreedomAndProjectionVectorToAxis */\012MDAP[1]	/* MoveDirectAbsPt */\012MIRP[11101]	/* MoveIndirectRelPt */\012MDAP[0]	/* MoveDirectAbsPt */\012MDAP[0]	/* MoveDirectAbsPt */\012MDAP[0]	/* MoveDirectAbsPt */\012MDAP[0]	/* MoveDirectAbsPt */\012MDAP[0]	/* MoveDirectAbsPt */\012MDAP[0]	/* MoveDirectAbsPt */\012MDAP[0]	/* MoveDirectAbsPt */\012MDAP[0]	/* MoveDirectAbsPt */\012MDAP[0]	/* MoveDirectAbsPt */\012MDAP[0]	/* MoveDirectAbsPt */\012MDAP[0]	/* MoveDirectAbsPt */\012MDAP[0]	/* MoveDirectAbsPt */\012MDAP[0]	/* MoveDirectAbsPt */\012MDAP[0]	/* MoveDirectAbsPt */\012MDAP[0]	/* MoveDirectAbsPt */\012MDAP[0]	/* MoveDirectAbsPt */\012SVTCA[0]	/* SetFreedomAndProjectionVectorToAxis */\012MDAP[0]	/* MoveDirectAbsPt */\012MDAP[0]	/* MoveDirectAbsPt */\012MDAP[0]	/* MoveDirectAbsPt */\012MDAP[0]	/* MoveDirectAbsPt */\012MDAP[0]	/* MoveDirectAbsPt */\012MDAP[0]	/* MoveDirectAbsPt */\012MDAP[0]	/* MoveDirectAbsPt */\012MDAP[0]	/* MoveDirectAbsPt */\012MDAP[0]	/* MoveDirectAbsPt */\012MDAP[0]	/* MoveDirectAbsPt */\012MDAP[0]	/* MoveDirectAbsPt */\012MDAP[0]	/* MoveDirectAbsPt */\012MDAP[0]	/* MoveDirectAbsPt */\012MDAP[0]	/* MoveDirectAbsPt */\012MDAP[0]	/* MoveDirectAbsPt */\012MDAP[0]	/* MoveDirectAbsPt */\012MDAP[0]	/* MoveDirectAbsPt */\012MDAP[0]	/* MoveDirectAbsPt */\012MDAP[0]	/* MoveDirectAbsPt */\012IUP[1]	/* InterpolateUntPts */\012IUP[0]	/* InterpolateUntPts */\012SVTCA[1]	/* SetFreedomAndProjectionVectorToAxis */\012MD[0]	/* MeasureDistance */\012ROUND[00]	/* Round */\012PUSHW[ ]	/* 2 values pushed */\01270 116 \012MD[0]	/* MeasureDistance */\012ROUND[00]	/* Round */\012SUB[ ]	/* Subtract */\012PUSHB[ ]	/* 1 value pushed */\01264 \012GT[ ]	/* GreaterThan */\012IF[ ]	/* If */\012SHPIX[ ]	/* ShiftZoneByPixel */\012SRP1[ ]	/* SetRefPoint1 */\012SHZ[1]	/* ShiftZoneByLastPoint */\012PUSHW[ ]	/* 2 values pushed */\012116 -64 \012SHPIX[ ]	/* ShiftZoneByPixel */\012EIF[ ]	/* EndIf */";
};
width = 738;
}
);
note = D;
unicode = 0044;
},
{
glyphname = E;
lastChange = "2022-03-02 21:18:25 +0000";
layers = (
{
layerId = "423D2297-FAE2-4393-80D6-0A1E9777D337";
paths = (
{
closed = 1;
nodes = (
"451 -37 OFFCURVE",
"570 39 OFFCURVE",
"570 173 CURVE SMOOTH",
"570 254 OFFCURVE",
"518 311 OFFCURVE",
"435 311 CURVE SMOOTH",
"396 311 OFFCURVE",
"360 285 OFFCURVE",
"360 248 CURVE SMOOTH",
"360 227 OFFCURVE",
"369 218 OFFCURVE",
"379 218 CURVE SMOOTH",
"384 218 OFFCURVE",
"387 220 OFFCURVE",
"387 224 CURVE SMOOTH",
"387 225 OFFCURVE",
"387 225 OFFCURVE",
"386 225 CURVE SMOOTH",
"380 225 OFFCURVE",
"373 229 OFFCURVE",
"373 242 CURVE SMOOTH",
"373 273 OFFCURVE",
"398 294 OFFCURVE",
"437 294 CURVE SMOOTH",
"500 294 OFFCURVE",
"537 243 OFFCURVE",
"537 179 CURVE SMOOTH",
"537 52 OFFCURVE",
"435 -22 OFFCURVE",
"305 -22 CURVE SMOOTH",
"187 -22 OFFCURVE",
"91 61 OFFCURVE",
"91 175 CURVE SMOOTH",
"91 275 OFFCURVE",
"139 369 OFFCURVE",
"228 401 CURVE",
"259 379 OFFCURVE",
"290 364 OFFCURVE",
"331 364 CURVE SMOOTH",
"362 364 OFFCURVE",
"387 377 OFFCURVE",
"387 397 CURVE SMOOTH",
"387 417 OFFCURVE",
"366 430 OFFCURVE",
"320 430 CURVE SMOOTH",
"297 430 OFFCURVE",
"269 426 OFFCURVE",
"250 421 CURVE",
"233 442 OFFCURVE",
"224 469 OFFCURVE",
"224 502 CURVE SMOOTH",
"224 581 OFFCURVE",
"272 634 OFFCURVE",
"349 634 CURVE SMOOTH",
"401 634 OFFCURVE",
"449 600 OFFCURVE",
"449 548 CURVE SMOOTH",
"449 520 OFFCURVE",
"429 494 OFFCURVE",
"404 494 CURVE SMOOTH",
"388 494 OFFCURVE",
"374 509 OFFCURVE",
"369 522 CURVE SMOOTH",
"366 529 OFFCURVE",
"365 532 OFFCURVE",
"361 532 CURVE SMOOTH",
"358 532 OFFCURVE",
"356 531 OFFCURVE",
"356 524 CURVE SMOOTH",
"356 505 OFFCURVE",
"373 481 OFFCURVE",
"403 481 CURVE SMOOTH",
"443 481 OFFCURVE",
"473 514 OFFCURVE",
"473 550 CURVE SMOOTH",
"473 611 OFFCURVE",
"409 647 OFFCURVE",
"344 647 CURVE SMOOTH",
"255 647 OFFCURVE",
"176 599 OFFCURVE",
"176 510 CURVE SMOOTH",
"176 471 OFFCURVE",
"189 438 OFFCURVE",
"216 411 CURVE",
"109 377 OFFCURVE",
"38 297 OFFCURVE",
"38 189 CURVE SMOOTH",
"38 42 OFFCURVE",
"162 -37 OFFCURVE",
"317 -37 CURVE SMOOTH"
);
},
{
closed = 1;
nodes = (
"302 377 OFFCURVE",
"280 389 OFFCURVE",
"259 409 CURVE",
"280 414 OFFCURVE",
"300 417 OFFCURVE",
"320 417 CURVE SMOOTH",
"349 417 OFFCURVE",
"369 410 OFFCURVE",
"369 396 CURVE SMOOTH",
"369 385 OFFCURVE",
"352 377 OFFCURVE",
"331 377 CURVE SMOOTH"
);
}
);
userData = {
assembly = "NPUSHB[ ]	/* 45 values pushed */\0121 94 94 64 95 81 90 88 87 85 78 73 63 56 48 46 42 40 35 29 25 21 92 88 87 81 75 71 67 60 52 44 38 32 23 18 10 8 4 0 14 3 1 4 70 \012SROUND[ ]	/* SuperRound */\012MDAP[1]	/* MoveDirectAbsPt */\012SHZ[1]	/* ShiftZoneByLastPoint */\012RTG[ ]	/* RoundToGrid */\012SVTCA[0]	/* SetFreedomAndProjectionVectorToAxis */\012MIAP[1]	/* MoveIndirectAbsPt */\012MDAP[1]	/* MoveDirectAbsPt */\012SVTCA[1]	/* SetFreedomAndProjectionVectorToAxis */\012MDAP[0]	/* MoveDirectAbsPt */\012MDAP[0]	/* MoveDirectAbsPt */\012MDAP[0]	/* MoveDirectAbsPt */\012MDAP[0]	/* MoveDirectAbsPt */\012MDAP[0]	/* MoveDirectAbsPt */\012MDAP[0]	/* MoveDirectAbsPt */\012MDAP[0]	/* MoveDirectAbsPt */\012MDAP[0]	/* MoveDirectAbsPt */\012MDAP[0]	/* MoveDirectAbsPt */\012MDAP[0]	/* MoveDirectAbsPt */\012MDAP[0]	/* MoveDirectAbsPt */\012MDAP[0]	/* MoveDirectAbsPt */\012MDAP[0]	/* MoveDirectAbsPt */\012MDAP[0]	/* MoveDirectAbsPt */\012MDAP[0]	/* MoveDirectAbsPt */\012MDAP[0]	/* MoveDirectAbsPt */\012MDAP[0]	/* MoveDirectAbsPt */\012SVTCA[0]	/* SetFreedomAndProjectionVectorToAxis */\012MDAP[0]	/* MoveDirectAbsPt */\012MDAP[0]	/* MoveDirectAbsPt */\012MDAP[0]	/* MoveDirectAbsPt */\012MDAP[0]	/* MoveDirectAbsPt */\012MDAP[0]	/* MoveDirectAbsPt */\012MDAP[0]	/* MoveDirectAbsPt */\012MDAP[0]	/* MoveDirectAbsPt */\012MDAP[0]	/* MoveDirectAbsPt */\012MDAP[0]	/* MoveDirectAbsPt */\012MDAP[0]	/* MoveDirectAbsPt */\012MDAP[0]	/* MoveDirectAbsPt */\012MDAP[0]	/* MoveDirectAbsPt */\012MDAP[0]	/* MoveDirectAbsPt */\012MDAP[0]	/* MoveDirectAbsPt */\012MDAP[0]	/* MoveDirectAbsPt */\012MDAP[0]	/* MoveDirectAbsPt */\012IUP[1]	/* InterpolateUntPts */\012IUP[0]	/* InterpolateUntPts */\012SVTCA[1]	/* SetFreedomAndProjectionVectorToAxis */\012MD[0]	/* MeasureDistance */\012ROUND[00]	/* Round */\012PUSHW[ ]	/* 2 values pushed */\0124 94 \012MD[0]	/* MeasureDistance */\012ROUND[00]	/* Round */\012SUB[ ]	/* Subtract */\012PUSHB[ ]	/* 1 value pushed */\01264 \012GT[ ]	/* GreaterThan */\012IF[ ]	/* If */\012SHPIX[ ]	/* ShiftZoneByPixel */\012SRP1[ ]	/* SetRefPoint1 */\012SHZ[1]	/* ShiftZoneByLastPoint */\012PUSHW[ ]	/* 2 values pushed */\01294 -64 \012SHPIX[ ]	/* ShiftZoneByPixel */\012EIF[ ]	/* EndIf */";
};
width = 584;
}
);
note = E;
unicode = 0045;
},
{
glyphname = F;
lastChange = "2022-03-02 21:18:25 +0000";
layers = (
{
layerId = "423D2297-FAE2-4393-80D6-0A1E9777D337";
paths = (
{
closed = 1;
nodes = (
"372 -53 OFFCURVE",
"467 82 OFFCURVE",
"493 293 CURVE",
"560 294 LINE SMOOTH",
"569 294 OFFCURVE",
"573 297 OFFCURVE",
"573 303 CURVE SMOOTH",
"573 307 OFFCURVE",
"570 309 OFFCURVE",
"564 309 CURVE SMOOTH",
"494 309 LINE",
"510 428 OFFCURVE",
"529 509 OFFCURVE",
"551 550 CURVE",
"643 519 OFFCURVE",
"719 508 OFFCURVE",
"768 508 CURVE SMOOTH",
"837 508 OFFCURVE",
"888 526 OFFCURVE",
"888 559 CURVE SMOOTH",
"888 566 OFFCURVE",
"886 569 OFFCURVE",
"881 569 CURVE SMOOTH",
"872 569 OFFCURVE",
"868 564 OFFCURVE",
"868 555 CURVE SMOOTH",
"868 532 OFFCURVE",
"796 522 OFFCURVE",
"777 522 CURVE SMOOTH",
"712 522 OFFCURVE",
"644 536 OFFCURVE",
"563 568 CURVE",
"577 585 OFFCURVE",
"600 602 OFFCURVE",
"618 602 CURVE SMOOTH",
"621 602 OFFCURVE",
"622 604 OFFCURVE",
"622 605 CURVE SMOOTH",
"622 608 OFFCURVE",
"618 609 OFFCURVE",
"614 609 CURVE SMOOTH",
"595 609 OFFCURVE",
"571 597 OFFCURVE",
"549 574 CURVE",
"443 618 OFFCURVE",
"357 653 OFFCURVE",
"271 653 CURVE SMOOTH",
"164 653 OFFCURVE",
"83 581 OFFCURVE",
"83 476 CURVE SMOOTH",
"83 387 OFFCURVE",
"143 325 OFFCURVE",
"231 325 CURVE SMOOTH",
"304 325 OFFCURVE",
"361 376 OFFCURVE",
"361 442 CURVE SMOOTH",
"361 455 OFFCURVE",
"358 464 OFFCURVE",
"353 464 CURVE SMOOTH",
"348 464 OFFCURVE",
"347 459 OFFCURVE",
"347 453 CURVE SMOOTH",
"347 388 OFFCURVE",
"300 339 OFFCURVE",
"232 339 CURVE SMOOTH",
"161 339 OFFCURVE",
"118 385 OFFCURVE",
"118 456 CURVE SMOOTH",
"118 549 OFFCURVE",
"182 622 OFFCURVE",
"286 622 CURVE SMOOTH",
"339 622 OFFCURVE",
"422 600 OFFCURVE",
"535 557 CURVE",
"499 491 OFFCURVE",
"484 426 OFFCURVE",
"457 309 CURVE",
"372 309 LINE SMOOTH",
"363 309 OFFCURVE",
"358 306 OFFCURVE",
"358 300 CURVE SMOOTH",
"358 296 OFFCURVE",
"361 294 OFFCURVE",
"368 294 CURVE SMOOTH",
"453 294 LINE",
"410 108 OFFCURVE",
"337 -36 OFFCURVE",
"174 -36 CURVE SMOOTH",
"75 -36 OFFCURVE",
"11 31 OFFCURVE",
"11 130 CURVE SMOOTH",
"11 198 OFFCURVE",
"58 260 OFFCURVE",
"118 260 CURVE SMOOTH",
"169 260 OFFCURVE",
"201 233 OFFCURVE",
"201 179 CURVE SMOOTH",
"201 140 OFFCURVE",
"176 104 OFFCURVE",
"139 104 CURVE SMOOTH",
"131 104 OFFCURVE",
"127 102 OFFCURVE",
"127 99 CURVE SMOOTH",
"127 94 OFFCURVE",
"130 92 OFFCURVE",
"137 92 CURVE SMOOTH",
"185 92 OFFCURVE",
"220 133 OFFCURVE",
"220 182 CURVE SMOOTH",
"220 240 OFFCURVE",
"174 275 OFFCURVE",
"118 275 CURVE SMOOTH",
"38 275 OFFCURVE",
"-20 202 OFFCURVE",
"-20 131 CURVE SMOOTH",
"-20 22 OFFCURVE",
"65 -53 OFFCURVE",
"187 -53 CURVE SMOOTH"
);
}
);
userData = {
assembly = "NPUSHB[ ]	/* 60 values pushed */\0121 117 117 64 118 115 113 100 96 81 66 48 30 2 115 105 102 89 83 79 77 75 69 64 57 54 45 43 37 32 27 20 7 4 55 10 9 3 54 7 60 59 5 3 4 23 7 39 86 7 72 0 7 107 15 92 3 1 20 70 \012SROUND[ ]	/* SuperRound */\012MDAP[1]	/* MoveDirectAbsPt */\012SHZ[1]	/* ShiftZoneByLastPoint */\012RTG[ ]	/* RoundToGrid */\012SVTCA[0]	/* SetFreedomAndProjectionVectorToAxis */\012MIAP[1]	/* MoveIndirectAbsPt */\012MDAP[1]	/* MoveDirectAbsPt */\012MDAP[1]	/* MoveDirectAbsPt */\012MIRP[11101]	/* MoveIndirectRelPt */\012MDAP[1]	/* MoveDirectAbsPt */\012MIRP[11101]	/* MoveIndirectRelPt */\012MDAP[1]	/* MoveDirectAbsPt */\012MIRP[11101]	/* MoveIndirectRelPt */\012MDAP[1]	/* MoveDirectAbsPt */\012SLOOP[ ]	/* SetLoopVariable */\012ALIGNRP[ ]	/* AlignRelativePt */\012MIRP[11101]	/* MoveIndirectRelPt */\012SLOOP[ ]	/* SetLoopVariable */\012ALIGNRP[ ]	/* AlignRelativePt */\012SVTCA[1]	/* SetFreedomAndProjectionVectorToAxis */\012MDAP[0]	/* MoveDirectAbsPt */\012MDAP[0]	/* MoveDirectAbsPt */\012MDAP[0]	/* MoveDirectAbsPt */\012MDAP[0]	/* MoveDirectAbsPt */\012MDAP[0]	/* MoveDirectAbsPt */\012MDAP[0]	/* MoveDirectAbsPt */\012MDAP[0]	/* MoveDirectAbsPt */\012MDAP[0]	/* MoveDirectAbsPt */\012MDAP[0]	/* MoveDirectAbsPt */\012MDAP[0]	/* MoveDirectAbsPt */\012MDAP[0]	/* MoveDirectAbsPt */\012MDAP[0]	/* MoveDirectAbsPt */\012MDAP[0]	/* MoveDirectAbsPt */\012MDAP[0]	/* MoveDirectAbsPt */\012MDAP[0]	/* MoveDirectAbsPt */\012MDAP[0]	/* MoveDirectAbsPt */\012MDAP[0]	/* MoveDirectAbsPt */\012MDAP[0]	/* MoveDirectAbsPt */\012MDAP[0]	/* MoveDirectAbsPt */\012MDAP[0]	/* MoveDirectAbsPt */\012SVTCA[0]	/* SetFreedomAndProjectionVectorToAxis */\012MDAP[0]	/* MoveDirectAbsPt */\012MDAP[0]	/* MoveDirectAbsPt */\012MDAP[0]	/* MoveDirectAbsPt */\012MDAP[0]	/* MoveDirectAbsPt */\012MDAP[0]	/* MoveDirectAbsPt */\012MDAP[0]	/* MoveDirectAbsPt */\012MDAP[0]	/* MoveDirectAbsPt */\012MDAP[0]	/* MoveDirectAbsPt */\012IUP[1]	/* InterpolateUntPts */\012IUP[0]	/* InterpolateUntPts */\012SVTCA[1]	/* SetFreedomAndProjectionVectorToAxis */\012MD[0]	/* MeasureDistance */\012ROUND[00]	/* Round */\012PUSHW[ ]	/* 2 values pushed */\01220 117 \012MD[0]	/* MeasureDistance */\012ROUND[00]	/* Round */\012SUB[ ]	/* Subtract */\012PUSHB[ ]	/* 1 value pushed */\01264 \012GT[ ]	/* GreaterThan */\012IF[ ]	/* If */\012SHPIX[ ]	/* ShiftZoneByPixel */\012SRP1[ ]	/* SetRefPoint1 */\012SHZ[1]	/* ShiftZoneByLastPoint */\012PUSHW[ ]	/* 2 values pushed */\012117 -64 \012SHPIX[ ]	/* ShiftZoneByPixel */\012EIF[ ]	/* EndIf */";
};
width = 590;
}
);
note = F;
unicode = 0046;
},
{
glyphname = G;
lastChange = "2022-03-02 21:18:25 +0000";
layers = (
{
layerId = "423D2297-FAE2-4393-80D6-0A1E9777D337";
paths = (
{
closed = 1;
nodes = (
"348 -298 OFFCURVE",
"500 -216 OFFCURVE",
"552 -74 CURVE",
"635 -95 OFFCURVE",
"700 -105 OFFCURVE",
"747 -105 CURVE SMOOTH",
"817 -105 OFFCURVE",
"864 -86 OFFCURVE",
"887 -47 CURVE SMOOTH",
"890 -42 OFFCURVE",
"892 -38 OFFCURVE",
"892 -35 CURVE SMOOTH",
"892 -26 OFFCURVE",
"884 -27 OFFCURVE",
"869 -40 CURVE SMOOTH",
"836 -69 OFFCURVE",
"795 -83 OFFCURVE",
"747 -83 CURVE SMOOTH",
"712 -83 OFFCURVE",
"650 -73 OFFCURVE",
"559 -54 CURVE",
"571 -17 OFFCURVE",
"580 41 OFFCURVE",
"589 101 CURVE",
"652 160 OFFCURVE",
"683 222 OFFCURVE",
"683 275 CURVE SMOOTH",
"683 300 OFFCURVE",
"670 323 OFFCURVE",
"641 323 CURVE SMOOTH",
"575 323 OFFCURVE",
"567 212 OFFCURVE",
"560 109 CURVE",
"512 65 OFFCURVE",
"459 43 OFFCURVE",
"401 43 CURVE SMOOTH",
"341 43 OFFCURVE",
"294 64 OFFCURVE",
"259 107 CURVE SMOOTH",
"228 145 OFFCURVE",
"210 195 OFFCURVE",
"206 257 CURVE",
"231 252 OFFCURVE",
"259 249 OFFCURVE",
"290 249 CURVE SMOOTH",
"455 249 OFFCURVE",
"669 346 OFFCURVE",
"669 486 CURVE SMOOTH",
"669 571 OFFCURVE",
"589 616 OFFCURVE",
"500 616 CURVE SMOOTH",
"456 616 OFFCURVE",
"410 607 OFFCURVE",
"363 588 CURVE",
"342 619 OFFCURVE",
"298 643 OFFCURVE",
"254 643 CURVE SMOOTH",
"139 643 OFFCURVE",
"55 557 OFFCURVE",
"55 444 CURVE SMOOTH",
"55 377 OFFCURVE",
"85 323 OFFCURVE",
"146 284 CURVE",
"143 131 OFFCURVE",
"240 26 OFFCURVE",
"392 26 CURVE SMOOTH",
"451 26 OFFCURVE",
"505 42 OFFCURVE",
"554 75 CURVE",
"547 17 OFFCURVE",
"533 -14 OFFCURVE",
"520 -41 CURVE",
"371 0 OFFCURVE",
"256 29 OFFCURVE",
"156 29 CURVE SMOOTH",
"43 29 OFFCURVE",
"-49 -21 OFFCURVE",
"-49 -122 CURVE SMOOTH",
"-49 -238 OFFCURVE",
"52 -298 OFFCURVE",
"188 -298 CURVE SMOOTH"
);
},
{
closed = 1;
nodes = (
"60 -279 OFFCURVE",
"-9 -208 OFFCURVE",
"-9 -116 CURVE SMOOTH",
"-9 -26 OFFCURVE",
"68 8 OFFCURVE",
"169 8 CURVE SMOOTH",
"243 8 OFFCURVE",
"364 -15 OFFCURVE",
"513 -61 CURVE",
"479 -174 OFFCURVE",
"298 -279 OFFCURVE",
"178 -279 CURVE SMOOTH"
);
},
{
closed = 1;
nodes = (
"145 315 LINE",
"98 346 OFFCURVE",
"75 391 OFFCURVE",
"75 448 CURVE SMOOTH",
"75 543 OFFCURVE",
"151 609 OFFCURVE",
"246 609 CURVE SMOOTH",
"284 609 OFFCURVE",
"314 598 OFFCURVE",
"336 577 CURVE",
"228 529 OFFCURVE",
"157 432 OFFCURVE",
"146 315 CURVE"
);
},
{
closed = 1;
nodes = (
"591 211 OFFCURVE",
"596 308 OFFCURVE",
"640 308 CURVE SMOOTH",
"652 308 OFFCURVE",
"658 298 OFFCURVE",
"658 279 CURVE SMOOTH",
"658 241 OFFCURVE",
"624 176 OFFCURVE",
"589 141 CURVE"
);
},
{
closed = 1;
nodes = (
"251 277 OFFCURVE",
"227 279 OFFCURVE",
"205 284 CURVE",
"206 396 OFFCURVE",
"261 494 OFFCURVE",
"356 550 CURVE",
"364 536 OFFCURVE",
"367 521 OFFCURVE",
"367 506 CURVE SMOOTH",
"367 461 OFFCURVE",
"334 412 OFFCURVE",
"293 412 CURVE SMOOTH",
"287 412 OFFCURVE",
"282 408 OFFCURVE",
"282 403 CURVE SMOOTH",
"282 399 OFFCURVE",
"288 395 OFFCURVE",
"300 395 CURVE SMOOTH",
"346 395 OFFCURVE",
"390 451 OFFCURVE",
"390 509 CURVE SMOOTH",
"390 526 OFFCURVE",
"386 544 OFFCURVE",
"378 561 CURVE",
"423 582 OFFCURVE",
"465 593 OFFCURVE",
"504 593 CURVE SMOOTH",
"568 593 OFFCURVE",
"631 560 OFFCURVE",
"631 494 CURVE SMOOTH",
"631 371 OFFCURVE",
"428 277 OFFCURVE",
"276 277 CURVE SMOOTH"
);
}
);
userData = {
assembly = "NPUSHB[ ]	/* 57 values pushed */\0121 152 152 64 153 148 148 144 132 126 122 120 110 108 97 95 93 89 75 73 69 59 52 47 46 44 34 29 19 7 0 148 142 136 122 114 102 95 85 63 57 55 50 40 32 27 21 15 13 5 0 79 105 3 1 85 70 \012SROUND[ ]	/* SuperRound */\012MDAP[1]	/* MoveDirectAbsPt */\012SHZ[1]	/* ShiftZoneByLastPoint */\012RTG[ ]	/* RoundToGrid */\012SVTCA[0]	/* SetFreedomAndProjectionVectorToAxis */\012MIAP[1]	/* MoveIndirectAbsPt */\012MDAP[1]	/* MoveDirectAbsPt */\012SVTCA[1]	/* SetFreedomAndProjectionVectorToAxis */\012MDAP[0]	/* MoveDirectAbsPt */\012MDAP[0]	/* MoveDirectAbsPt */\012MDAP[0]	/* MoveDirectAbsPt */\012MDAP[0]	/* MoveDirectAbsPt */\012MDAP[0]	/* MoveDirectAbsPt */\012MDAP[0]	/* MoveDirectAbsPt */\012MDAP[0]	/* MoveDirectAbsPt */\012MDAP[0]	/* MoveDirectAbsPt */\012MDAP[0]	/* MoveDirectAbsPt */\012MDAP[0]	/* MoveDirectAbsPt */\012MDAP[0]	/* MoveDirectAbsPt */\012MDAP[0]	/* MoveDirectAbsPt */\012MDAP[0]	/* MoveDirectAbsPt */\012MDAP[0]	/* MoveDirectAbsPt */\012MDAP[0]	/* MoveDirectAbsPt */\012MDAP[0]	/* MoveDirectAbsPt */\012MDAP[0]	/* MoveDirectAbsPt */\012MDAP[0]	/* MoveDirectAbsPt */\012MDAP[0]	/* MoveDirectAbsPt */\012MDAP[0]	/* MoveDirectAbsPt */\012SVTCA[0]	/* SetFreedomAndProjectionVectorToAxis */\012MDAP[0]	/* MoveDirectAbsPt */\012MDAP[0]	/* MoveDirectAbsPt */\012MDAP[0]	/* MoveDirectAbsPt */\012MDAP[0]	/* MoveDirectAbsPt */\012MDAP[0]	/* MoveDirectAbsPt */\012MDAP[0]	/* MoveDirectAbsPt */\012MDAP[0]	/* MoveDirectAbsPt */\012MDAP[0]	/* MoveDirectAbsPt */\012MDAP[0]	/* MoveDirectAbsPt */\012MDAP[0]	/* MoveDirectAbsPt */\012MDAP[0]	/* MoveDirectAbsPt */\012MDAP[0]	/* MoveDirectAbsPt */\012MDAP[0]	/* MoveDirectAbsPt */\012MDAP[0]	/* MoveDirectAbsPt */\012MDAP[0]	/* MoveDirectAbsPt */\012MDAP[0]	/* MoveDirectAbsPt */\012MDAP[0]	/* MoveDirectAbsPt */\012MDAP[0]	/* MoveDirectAbsPt */\012MDAP[0]	/* MoveDirectAbsPt */\012MDAP[0]	/* MoveDirectAbsPt */\012MDAP[0]	/* MoveDirectAbsPt */\012MDAP[0]	/* MoveDirectAbsPt */\012MDAP[0]	/* MoveDirectAbsPt */\012MDAP[0]	/* MoveDirectAbsPt */\012MDAP[0]	/* MoveDirectAbsPt */\012IUP[1]	/* InterpolateUntPts */\012IUP[0]	/* InterpolateUntPts */\012SVTCA[1]	/* SetFreedomAndProjectionVectorToAxis */\012MD[0]	/* MeasureDistance */\012ROUND[00]	/* Round */\012PUSHW[ ]	/* 2 values pushed */\01285 152 \012MD[0]	/* MeasureDistance */\012ROUND[00]	/* Round */\012SUB[ ]	/* Subtract */\012PUSHB[ ]	/* 1 value pushed */\01264 \012GT[ ]	/* GreaterThan */\012IF[ ]	/* If */\012SHPIX[ ]	/* ShiftZoneByPixel */\012SRP1[ ]	/* SetRefPoint1 */\012SHZ[1]	/* ShiftZoneByLastPoint */\012PUSHW[ ]	/* 2 values pushed */\012152 -64 \012SHPIX[ ]	/* ShiftZoneByPixel */\012EIF[ ]	/* EndIf */";
};
width = 716;
}
);
note = G;
unicode = 0047;
},
{
glyphname = H;
lastChange = "2022-03-02 21:18:25 +0000";
layers = (
{
layerId = "423D2297-FAE2-4393-80D6-0A1E9777D337";
paths = (
{
closed = 1;
nodes = (
"370 -46 OFFCURVE",
"452 85 OFFCURVE",
"466 292 CURVE",
"691 292 LINE",
"677 221 OFFCURVE",
"670 161 OFFCURVE",
"670 113 CURVE SMOOTH",
"670 32 OFFCURVE",
"691 -14 OFFCURVE",
"738 -14 CURVE SMOOTH",
"761 -14 OFFCURVE",
"782 0 OFFCURVE",
"802 27 CURVE SMOOTH",
"817 48 OFFCURVE",
"829 72 OFFCURVE",
"837 99 CURVE",
"837 104 LINE SMOOTH",
"837 113 OFFCURVE",
"835 118 OFFCURVE",
"832 118 CURVE SMOOTH",
"829 118 OFFCURVE",
"827 113 OFFCURVE",
"824 104 CURVE SMOOTH",
"813 62 OFFCURVE",
"778 5 OFFCURVE",
"749 5 CURVE SMOOTH",
"728 5 OFFCURVE",
"718 39 OFFCURVE",
"718 108 CURVE SMOOTH",
"718 247 OFFCURVE",
"772 606 OFFCURVE",
"860 606 CURVE SMOOTH",
"863 606 LINE SMOOTH",
"897 606 OFFCURVE",
"914 586 OFFCURVE",
"914 547 CURVE SMOOTH",
"914 536 OFFCURVE",
"912 524 OFFCURVE",
"909 513 CURVE SMOOTH",
"906 505 OFFCURVE",
"907 501 OFFCURVE",
"912 501 CURVE SMOOTH",
"915 501 OFFCURVE",
"917 504 OFFCURVE",
"920 510 CURVE",
"924 526 OFFCURVE",
"926 539 OFFCURVE",
"926 548 CURVE SMOOTH",
"926 588 OFFCURVE",
"902 620 OFFCURVE",
"863 620 CURVE SMOOTH",
"848 620 OFFCURVE",
"832 613 OFFCURVE",
"814 600 CURVE SMOOTH",
"757 558 OFFCURVE",
"725 449 OFFCURVE",
"693 307 CURVE",
"467 307 LINE",
"468 320 OFFCURVE",
"469 331 OFFCURVE",
"469 339 CURVE SMOOTH",
"470 419 OFFCURVE",
"483 479 OFFCURVE",
"508 520 CURVE",
"537 509 OFFCURVE",
"561 503 OFFCURVE",
"580 503 CURVE SMOOTH",
"615 503 OFFCURVE",
"636 519 OFFCURVE",
"636 545 CURVE SMOOTH",
"636 570 OFFCURVE",
"610 585 OFFCURVE",
"585 585 CURVE SMOOTH",
"558 585 OFFCURVE",
"529 570 OFFCURVE",
"500 539 CURVE",
"382 592 OFFCURVE",
"295 633 OFFCURVE",
"203 633 CURVE SMOOTH",
"92 633 OFFCURVE",
"16 552 OFFCURVE",
"16 441 CURVE SMOOTH",
"16 406 OFFCURVE",
"23 374 OFFCURVE",
"38 345 CURVE",
"-19 308 OFFCURVE",
"-47 251 OFFCURVE",
"-47 176 CURVE SMOOTH",
"-47 49 OFFCURVE",
"51 -46 OFFCURVE",
"179 -46 CURVE SMOOTH"
);
},
{
closed = 1;
nodes = (
"116 279 OFFCURVE",
"85 298 OFFCURVE",
"64 335 CURVE",
"77 344 OFFCURVE",
"91 348 OFFCURVE",
"107 348 CURVE SMOOTH",
"161 348 OFFCURVE",
"199 329 OFFCURVE",
"220 292 CURVE",
"202 283 OFFCURVE",
"182 279 OFFCURVE",
"159 279 CURVE SMOOTH"
);
},
{
closed = 1;
nodes = (
"66 -27 OFFCURVE",
"-11 58 OFFCURVE",
"-11 167 CURVE SMOOTH",
"-11 237 OFFCURVE",
"9 289 OFFCURVE",
"48 323 CURVE",
"73 284 OFFCURVE",
"110 264 OFFCURVE",
"161 264 CURVE SMOOTH",
"184 264 OFFCURVE",
"205 269 OFFCURVE",
"226 278 CURVE",
"232 263 OFFCURVE",
"237 246 OFFCURVE",
"237 225 CURVE SMOOTH",
"237 165 OFFCURVE",
"201 114 OFFCURVE",
"149 114 CURVE SMOOTH",
"141 114 OFFCURVE",
"137 111 OFFCURVE",
"137 106 CURVE SMOOTH",
"137 101 OFFCURVE",
"140 98 OFFCURVE",
"145 98 CURVE SMOOTH",
"214 98 OFFCURVE",
"256 159 OFFCURVE",
"256 230 CURVE SMOOTH",
"256 250 OFFCURVE",
"251 269 OFFCURVE",
"242 288 CURVE",
"276 311 OFFCURVE",
"293 344 OFFCURVE",
"293 387 CURVE SMOOTH",
"293 396 OFFCURVE",
"291 400 OFFCURVE",
"288 400 CURVE SMOOTH",
"283 400 OFFCURVE",
"280 396 OFFCURVE",
"280 387 CURVE SMOOTH",
"280 348 OFFCURVE",
"266 319 OFFCURVE",
"237 299 CURVE",
"212 344 OFFCURVE",
"170 367 OFFCURVE",
"113 367 CURVE SMOOTH",
"92 367 OFFCURVE",
"72 363 OFFCURVE",
"55 354 CURVE",
"46 375 OFFCURVE",
"42 399 OFFCURVE",
"42 424 CURVE SMOOTH",
"42 529 OFFCURVE",
"114 601 OFFCURVE",
"219 601 CURVE SMOOTH",
"296 601 OFFCURVE",
"372 575 OFFCURVE",
"488 526 CURVE",
"448 475 OFFCURVE",
"433 396 OFFCURVE",
"422 313 CURVE SMOOTH",
"400 124 OFFCURVE",
"350 -27 OFFCURVE",
"174 -27 CURVE SMOOTH"
);
},
{
closed = 1;
nodes = (
"562 515 OFFCURVE",
"541 521 OFFCURVE",
"518 533 CURVE",
"535 554 OFFCURVE",
"557 569 OFFCURVE",
"583 569 CURVE SMOOTH",
"607 569 OFFCURVE",
"622 558 OFFCURVE",
"622 544 CURVE SMOOTH",
"622 527 OFFCURVE",
"606 515 OFFCURVE",
"581 515 CURVE SMOOTH"
);
}
);
userData = {
assembly = "NPUSHB[ ]	/* 72 values pushed */\0121 149 149 64 150 76 147 143 131 126 124 122 113 103 99 90 84 80 73 69 68 64 62 57 55 37 36 23 9 8 2 145 141 120 115 109 107 105 93 86 82 78 76 68 60 48 46 36 34 26 25 15 6 4 128 5 44 17 7 30 41 97 2 95 2 51 3 30 1 1 44 70 \012SROUND[ ]	/* SuperRound */\012MDAP[1]	/* MoveDirectAbsPt */\012SHZ[1]	/* ShiftZoneByLastPoint */\012RTG[ ]	/* RoundToGrid */\012SVTCA[0]	/* SetFreedomAndProjectionVectorToAxis */\012MIAP[1]	/* MoveIndirectAbsPt */\012MIAP[1]	/* MoveIndirectAbsPt */\012MIAP[1]	/* MoveIndirectAbsPt */\012MIAP[1]	/* MoveIndirectAbsPt */\012MDAP[1]	/* MoveDirectAbsPt */\012SRP0[ ]	/* SetRefPoint0 */\012MIRP[11101]	/* MoveIndirectRelPt */\012SVTCA[1]	/* SetFreedomAndProjectionVectorToAxis */\012MDAP[1]	/* MoveDirectAbsPt */\012MIRP[11101]	/* MoveIndirectRelPt */\012MDAP[0]	/* MoveDirectAbsPt */\012MDAP[0]	/* MoveDirectAbsPt */\012MDAP[0]	/* MoveDirectAbsPt */\012MDAP[0]	/* MoveDirectAbsPt */\012MDAP[0]	/* MoveDirectAbsPt */\012MDAP[0]	/* MoveDirectAbsPt */\012MDAP[0]	/* MoveDirectAbsPt */\012MDAP[0]	/* MoveDirectAbsPt */\012MDAP[0]	/* MoveDirectAbsPt */\012MDAP[0]	/* MoveDirectAbsPt */\012MDAP[0]	/* MoveDirectAbsPt */\012MDAP[0]	/* MoveDirectAbsPt */\012MDAP[0]	/* MoveDirectAbsPt */\012MDAP[0]	/* MoveDirectAbsPt */\012MDAP[0]	/* MoveDirectAbsPt */\012MDAP[0]	/* MoveDirectAbsPt */\012MDAP[0]	/* MoveDirectAbsPt */\012MDAP[0]	/* MoveDirectAbsPt */\012MDAP[0]	/* MoveDirectAbsPt */\012MDAP[0]	/* MoveDirectAbsPt */\012MDAP[0]	/* MoveDirectAbsPt */\012MDAP[0]	/* MoveDirectAbsPt */\012MDAP[0]	/* MoveDirectAbsPt */\012SVTCA[0]	/* SetFreedomAndProjectionVectorToAxis */\012MDAP[0]	/* MoveDirectAbsPt */\012MDAP[0]	/* MoveDirectAbsPt */\012MDAP[0]	/* MoveDirectAbsPt */\012MDAP[0]	/* MoveDirectAbsPt */\012MDAP[0]	/* MoveDirectAbsPt */\012MDAP[0]	/* MoveDirectAbsPt */\012MDAP[0]	/* MoveDirectAbsPt */\012MDAP[0]	/* MoveDirectAbsPt */\012MDAP[0]	/* MoveDirectAbsPt */\012MDAP[0]	/* MoveDirectAbsPt */\012MDAP[0]	/* MoveDirectAbsPt */\012MDAP[0]	/* MoveDirectAbsPt */\012MDAP[0]	/* MoveDirectAbsPt */\012MDAP[0]	/* MoveDirectAbsPt */\012MDAP[0]	/* MoveDirectAbsPt */\012MDAP[0]	/* MoveDirectAbsPt */\012MDAP[0]	/* MoveDirectAbsPt */\012MDAP[0]	/* MoveDirectAbsPt */\012MDAP[0]	/* MoveDirectAbsPt */\012MDAP[0]	/* MoveDirectAbsPt */\012MDAP[0]	/* MoveDirectAbsPt */\012MDAP[0]	/* MoveDirectAbsPt */\012MDAP[0]	/* MoveDirectAbsPt */\012MDAP[0]	/* MoveDirectAbsPt */\012MDAP[0]	/* MoveDirectAbsPt */\012IUP[1]	/* InterpolateUntPts */\012IUP[0]	/* InterpolateUntPts */\012SVTCA[1]	/* SetFreedomAndProjectionVectorToAxis */\012MD[0]	/* MeasureDistance */\012ROUND[00]	/* Round */\012PUSHW[ ]	/* 2 values pushed */\01244 149 \012MD[0]	/* MeasureDistance */\012ROUND[00]	/* Round */\012SUB[ ]	/* Subtract */\012PUSHB[ ]	/* 1 value pushed */\01264 \012GT[ ]	/* GreaterThan */\012IF[ ]	/* If */\012SHPIX[ ]	/* ShiftZoneByPixel */\012SRP1[ ]	/* SetRefPoint1 */\012SHZ[1]	/* ShiftZoneByLastPoint */\012PUSHW[ ]	/* 2 values pushed */\012149 -64 \012SHPIX[ ]	/* ShiftZoneByPixel */\012EIF[ ]	/* EndIf */";
};
width = 809;
}
);
note = H;
unicode = 0048;
},
{
glyphname = I;
lastChange = "2022-03-02 21:18:25 +0000";
layers = (
{
layerId = "423D2297-FAE2-4393-80D6-0A1E9777D337";
paths = (
{
closed = 1;
nodes = (
"352 -52 OFFCURVE",
"428 107 OFFCURVE",
"433 306 CURVE",
"478 327 OFFCURVE",
"501 365 OFFCURVE",
"501 420 CURVE SMOOTH",
"501 453 OFFCURVE",
"488 478 OFFCURVE",
"463 497 CURVE",
"479 545 OFFCURVE",
"521 608 OFFCURVE",
"561 612 CURVE SMOOTH",
"570 613 OFFCURVE",
"574 614 OFFCURVE",
"574 617 CURVE SMOOTH",
"574 618 OFFCURVE",
"573 620 OFFCURVE",
"572 621 CURVE",
"549 631 OFFCURVE",
"520 636 OFFCURVE",
"486 636 CURVE SMOOTH",
"350 636 OFFCURVE",
"224 561 OFFCURVE",
"224 426 CURVE SMOOTH",
"224 345 OFFCURVE",
"284 291 OFFCURVE",
"350 291 CURVE SMOOTH",
"369 291 OFFCURVE",
"382 292 OFFCURVE",
"386 293 CURVE",
"369 115 OFFCURVE",
"332 -39 OFFCURVE",
"191 -39 CURVE SMOOTH",
"85 -39 OFFCURVE",
"36 39 OFFCURVE",
"36 152 CURVE SMOOTH",
"36 234 OFFCURVE",
"83 312 OFFCURVE",
"167 312 CURVE SMOOTH",
"224 312 OFFCURVE",
"266 257 OFFCURVE",
"266 198 CURVE SMOOTH",
"266 147 OFFCURVE",
"230 107 OFFCURVE",
"179 107 CURVE SMOOTH",
"143 107 OFFCURVE",
"119 141 OFFCURVE",
"119 178 CURVE SMOOTH",
"119 182 OFFCURVE",
"119 198 OFFCURVE",
"123 207 CURVE",
"123 210 OFFCURVE",
"122 212 OFFCURVE",
"120 212 CURVE SMOOTH",
"113 212 OFFCURVE",
"107 202 OFFCURVE",
"107 182 CURVE SMOOTH",
"107 137 OFFCURVE",
"131 98 OFFCURVE",
"183 98 CURVE SMOOTH",
"242 98 OFFCURVE",
"283 140 OFFCURVE",
"283 197 CURVE SMOOTH",
"283 265 OFFCURVE",
"233 324 OFFCURVE",
"166 324 CURVE SMOOTH",
"67 324 OFFCURVE",
"-4 232 OFFCURVE",
"-4 134 CURVE SMOOTH",
"-4 27 OFFCURVE",
"79 -52 OFFCURVE",
"186 -52 CURVE SMOOTH"
);
},
{
closed = 1;
nodes = (
"296 302 OFFCURVE",
"254 341 OFFCURVE",
"254 417 CURVE SMOOTH",
"254 432 OFFCURVE",
"255 444 OFFCURVE",
"256 453 CURVE SMOOTH",
"272 558 OFFCURVE",
"369 623 OFFCURVE",
"479 623 CURVE SMOOTH",
"501 623 OFFCURVE",
"521 621 OFFCURVE",
"540 616 CURVE",
"499 615 OFFCURVE",
"463 579 OFFCURVE",
"432 510 CURVE",
"429 511 OFFCURVE",
"422 512 OFFCURVE",
"415 512 CURVE SMOOTH",
"380 512 OFFCURVE",
"348 486 OFFCURVE",
"348 451 CURVE SMOOTH",
"348 434 OFFCURVE",
"356 414 OFFCURVE",
"369 414 CURVE SMOOTH",
"372 414 OFFCURVE",
"374 415 OFFCURVE",
"374 418 CURVE SMOOTH",
"374 419 OFFCURVE",
"372 421 OFFCURVE",
"368 423 CURVE",
"362 429 OFFCURVE",
"359 439 OFFCURVE",
"359 452 CURVE SMOOTH",
"359 480 OFFCURVE",
"382 501 OFFCURVE",
"410 501 CURVE SMOOTH",
"417 501 OFFCURVE",
"424 500 OFFCURVE",
"427 499 CURVE",
"405 446 OFFCURVE",
"392 398 OFFCURVE",
"390 357 CURVE SMOOTH",
"387 304 LINE",
"383 303 OFFCURVE",
"370 302 OFFCURVE",
"362 302 CURVE SMOOTH"
);
},
{
closed = 1;
nodes = (
"436 382 OFFCURVE",
"443 438 OFFCURVE",
"459 487 CURVE",
"474 472 OFFCURVE",
"488 449 OFFCURVE",
"488 419 CURVE SMOOTH",
"488 377 OFFCURVE",
"474 344 OFFCURVE",
"433 321 CURVE"
);
}
);
userData = {
assembly = "NPUSHB[ ]	/* 60 values pushed */\0121 122 122 64 123 2 120 118 111 102 95 94 86 77 75 64 63 51 45 37 32 26 15 14 115 109 105 100 96 95 92 84 77 75 73 67 63 55 48 42 39 35 29 22 15 14 10 2 79 6 12 59 7 19 19 71 3 1 22 70 \012SROUND[ ]	/* SuperRound */\012MDAP[1]	/* MoveDirectAbsPt */\012SHZ[1]	/* ShiftZoneByLastPoint */\012RTG[ ]	/* RoundToGrid */\012SVTCA[0]	/* SetFreedomAndProjectionVectorToAxis */\012MIAP[1]	/* MoveIndirectAbsPt */\012MDAP[1]	/* MoveDirectAbsPt */\012SRP0[ ]	/* SetRefPoint0 */\012MIRP[11101]	/* MoveIndirectRelPt */\012SVTCA[1]	/* SetFreedomAndProjectionVectorToAxis */\012MDAP[1]	/* MoveDirectAbsPt */\012MIRP[11101]	/* MoveIndirectRelPt */\012MDAP[0]	/* MoveDirectAbsPt */\012MDAP[0]	/* MoveDirectAbsPt */\012MDAP[0]	/* MoveDirectAbsPt */\012MDAP[0]	/* MoveDirectAbsPt */\012MDAP[0]	/* MoveDirectAbsPt */\012MDAP[0]	/* MoveDirectAbsPt */\012MDAP[0]	/* MoveDirectAbsPt */\012MDAP[0]	/* MoveDirectAbsPt */\012MDAP[0]	/* MoveDirectAbsPt */\012MDAP[0]	/* MoveDirectAbsPt */\012MDAP[0]	/* MoveDirectAbsPt */\012MDAP[0]	/* MoveDirectAbsPt */\012MDAP[0]	/* MoveDirectAbsPt */\012MDAP[0]	/* MoveDirectAbsPt */\012MDAP[0]	/* MoveDirectAbsPt */\012MDAP[0]	/* MoveDirectAbsPt */\012MDAP[0]	/* MoveDirectAbsPt */\012MDAP[0]	/* MoveDirectAbsPt */\012MDAP[0]	/* MoveDirectAbsPt */\012MDAP[0]	/* MoveDirectAbsPt */\012MDAP[0]	/* MoveDirectAbsPt */\012MDAP[0]	/* MoveDirectAbsPt */\012MDAP[0]	/* MoveDirectAbsPt */\012MDAP[0]	/* MoveDirectAbsPt */\012SVTCA[0]	/* SetFreedomAndProjectionVectorToAxis */\012MDAP[0]	/* MoveDirectAbsPt */\012MDAP[0]	/* MoveDirectAbsPt */\012MDAP[0]	/* MoveDirectAbsPt */\012MDAP[0]	/* MoveDirectAbsPt */\012MDAP[0]	/* MoveDirectAbsPt */\012MDAP[0]	/* MoveDirectAbsPt */\012MDAP[0]	/* MoveDirectAbsPt */\012MDAP[0]	/* MoveDirectAbsPt */\012MDAP[0]	/* MoveDirectAbsPt */\012MDAP[0]	/* MoveDirectAbsPt */\012MDAP[0]	/* MoveDirectAbsPt */\012MDAP[0]	/* MoveDirectAbsPt */\012MDAP[0]	/* MoveDirectAbsPt */\012MDAP[0]	/* MoveDirectAbsPt */\012MDAP[0]	/* MoveDirectAbsPt */\012MDAP[0]	/* MoveDirectAbsPt */\012MDAP[0]	/* MoveDirectAbsPt */\012MDAP[0]	/* MoveDirectAbsPt */\012IUP[1]	/* InterpolateUntPts */\012IUP[0]	/* InterpolateUntPts */\012SVTCA[1]	/* SetFreedomAndProjectionVectorToAxis */\012MD[0]	/* MeasureDistance */\012ROUND[00]	/* Round */\012PUSHW[ ]	/* 2 values pushed */\01222 122 \012MD[0]	/* MeasureDistance */\012ROUND[00]	/* Round */\012SUB[ ]	/* Subtract */\012PUSHB[ ]	/* 1 value pushed */\01264 \012GT[ ]	/* GreaterThan */\012IF[ ]	/* If */\012SHPIX[ ]	/* ShiftZoneByPixel */\012SRP1[ ]	/* SetRefPoint1 */\012SHZ[1]	/* ShiftZoneByLastPoint */\012PUSHW[ ]	/* 2 values pushed */\012122 -64 \012SHPIX[ ]	/* ShiftZoneByPixel */\012EIF[ ]	/* EndIf */";
};
width = 484;
}
);
note = I;
unicode = 0049;
},
{
glyphname = J;
lastChange = "2022-03-02 21:18:25 +0000";
layers = (
{
layerId = "423D2297-FAE2-4393-80D6-0A1E9777D337";
paths = (
{
closed = 1;
nodes = (
"343 -272 OFFCURVE",
"447 -25 OFFCURVE",
"447 242 CURVE SMOOTH",
"447 311 OFFCURVE",
"444 366 OFFCURVE",
"444 411 CURVE SMOOTH",
"444 480 OFFCURVE",
"451 530 OFFCURVE",
"487 583 CURVE SMOOTH",
"496 597 OFFCURVE",
"508 605 OFFCURVE",
"508 606 CURVE SMOOTH",
"508 607 OFFCURVE",
"508 608 OFFCURVE",
"507 609 CURVE",
"504 609 LINE SMOOTH",
"500 609 OFFCURVE",
"466 617 OFFCURVE",
"446 617 CURVE SMOOTH",
"325 617 OFFCURVE",
"214 536 OFFCURVE",
"214 423 CURVE SMOOTH",
"214 379 OFFCURVE",
"236 344 OFFCURVE",
"286 344 CURVE SMOOTH",
"333 344 OFFCURVE",
"367 383 OFFCURVE",
"367 428 CURVE SMOOTH",
"367 459 OFFCURVE",
"358 472 OFFCURVE",
"352 472 CURVE SMOOTH",
"349 472 OFFCURVE",
"346 470 OFFCURVE",
"346 466 CURVE SMOOTH",
"346 465 OFFCURVE",
"347 463 OFFCURVE",
"348 461 CURVE SMOOTH",
"350 458 OFFCURVE",
"354 441 OFFCURVE",
"354 429 CURVE SMOOTH",
"354 392 OFFCURVE",
"324 356 OFFCURVE",
"288 356 CURVE SMOOTH",
"249 356 OFFCURVE",
"236 391 OFFCURVE",
"236 429 CURVE SMOOTH",
"236 536 OFFCURVE",
"336 609 OFFCURVE",
"444 609 CURVE SMOOTH",
"467 609 OFFCURVE",
"485 605 OFFCURVE",
"490 604 CURVE",
"434 578 OFFCURVE",
"401 474 OFFCURVE",
"401 314 CURVE SMOOTH",
"401 43 OFFCURVE",
"328 -256 OFFCURVE",
"107 -256 CURVE SMOOTH",
"-4 -256 OFFCURVE",
"-81 -157 OFFCURVE",
"-81 -45 CURVE SMOOTH",
"-81 61 OFFCURVE",
"-16 147 OFFCURVE",
"85 147 CURVE SMOOTH",
"160 147 OFFCURVE",
"210 85 OFFCURVE",
"210 9 CURVE SMOOTH",
"210 -59 OFFCURVE",
"170 -109 OFFCURVE",
"105 -109 CURVE SMOOTH",
"87 -109 OFFCURVE",
"70 -105 OFFCURVE",
"61 -88 CURVE",
"57 -88 OFFCURVE",
"55 -91 OFFCURVE",
"55 -97 CURVE SMOOTH",
"55 -107 OFFCURVE",
"72 -121 OFFCURVE",
"106 -121 CURVE SMOOTH",
"176 -121 OFFCURVE",
"227 -70 OFFCURVE",
"227 9 CURVE SMOOTH",
"227 93 OFFCURVE",
"168 160 OFFCURVE",
"85 160 CURVE SMOOTH",
"-28 160 OFFCURVE",
"-108 64 OFFCURVE",
"-108 -52 CURVE SMOOTH",
"-108 -175 OFFCURVE",
"-15 -272 OFFCURVE",
"106 -272 CURVE SMOOTH"
);
}
);
userData = {
assembly = "NPUSHB[ ]	/* 45 values pushed */\0121 94 94 64 95 0 86 81 65 39 35 29 1 0 88 83 79 75 69 63 59 58 50 43 33 25 19 12 9 3 1 0 54 7 16 46 7 22 92 16 71 2 1 19 70 \012SROUND[ ]	/* SuperRound */\012MDAP[1]	/* MoveDirectAbsPt */\012SHZ[1]	/* ShiftZoneByLastPoint */\012RTG[ ]	/* RoundToGrid */\012SVTCA[0]	/* SetFreedomAndProjectionVectorToAxis */\012MIAP[1]	/* MoveIndirectAbsPt */\012MDAP[1]	/* MoveDirectAbsPt */\012MDAP[1]	/* MoveDirectAbsPt */\012MDAP[1]	/* MoveDirectAbsPt */\012MIRP[11101]	/* MoveIndirectRelPt */\012SRP0[ ]	/* SetRefPoint0 */\012MIRP[11101]	/* MoveIndirectRelPt */\012SVTCA[1]	/* SetFreedomAndProjectionVectorToAxis */\012MDAP[0]	/* MoveDirectAbsPt */\012MDAP[0]	/* MoveDirectAbsPt */\012MDAP[0]	/* MoveDirectAbsPt */\012MDAP[0]	/* MoveDirectAbsPt */\012MDAP[0]	/* MoveDirectAbsPt */\012MDAP[0]	/* MoveDirectAbsPt */\012MDAP[0]	/* MoveDirectAbsPt */\012MDAP[0]	/* MoveDirectAbsPt */\012MDAP[0]	/* MoveDirectAbsPt */\012MDAP[0]	/* MoveDirectAbsPt */\012MDAP[0]	/* MoveDirectAbsPt */\012MDAP[0]	/* MoveDirectAbsPt */\012MDAP[0]	/* MoveDirectAbsPt */\012MDAP[0]	/* MoveDirectAbsPt */\012MDAP[0]	/* MoveDirectAbsPt */\012MDAP[0]	/* MoveDirectAbsPt */\012MDAP[0]	/* MoveDirectAbsPt */\012MDAP[0]	/* MoveDirectAbsPt */\012SVTCA[0]	/* SetFreedomAndProjectionVectorToAxis */\012MDAP[0]	/* MoveDirectAbsPt */\012MDAP[0]	/* MoveDirectAbsPt */\012MDAP[0]	/* MoveDirectAbsPt */\012MDAP[0]	/* MoveDirectAbsPt */\012MDAP[0]	/* MoveDirectAbsPt */\012MDAP[0]	/* MoveDirectAbsPt */\012MDAP[0]	/* MoveDirectAbsPt */\012MDAP[0]	/* MoveDirectAbsPt */\012IUP[1]	/* InterpolateUntPts */\012IUP[0]	/* InterpolateUntPts */\012SVTCA[1]	/* SetFreedomAndProjectionVectorToAxis */\012MD[0]	/* MeasureDistance */\012ROUND[00]	/* Round */\012PUSHW[ ]	/* 2 values pushed */\01219 94 \012MD[0]	/* MeasureDistance */\012ROUND[00]	/* Round */\012SUB[ ]	/* Subtract */\012PUSHB[ ]	/* 1 value pushed */\01264 \012GT[ ]	/* GreaterThan */\012IF[ ]	/* If */\012SHPIX[ ]	/* ShiftZoneByPixel */\012SRP1[ ]	/* SetRefPoint1 */\012SHZ[1]	/* ShiftZoneByLastPoint */\012PUSHW[ ]	/* 2 values pushed */\01294 -64 \012SHPIX[ ]	/* ShiftZoneByPixel */\012EIF[ ]	/* EndIf */";
};
width = 486;
}
);
note = J;
unicode = 004A;
},
{
glyphname = K;
lastChange = "2022-03-02 21:18:25 +0000";
layers = (
{
layerId = "423D2297-FAE2-4393-80D6-0A1E9777D337";
paths = (
{
closed = 1;
nodes = (
"458 -114 OFFCURVE",
"576 37 OFFCURVE",
"582 282 CURVE",
"644 269 OFFCURVE",
"685 212 OFFCURVE",
"718 122 CURVE SMOOTH",
"755 20 OFFCURVE",
"800 -56 OFFCURVE",
"905 -56 CURVE SMOOTH",
"954 -56 OFFCURVE",
"978 -41 OFFCURVE",
"978 -11 CURVE SMOOTH",
"978 6 OFFCURVE",
"975 15 OFFCURVE",
"969 15 CURVE SMOOTH",
"966 15 OFFCURVE",
"964 12 OFFCURVE",
"963 5 CURVE SMOOTH",
"962 1 OFFCURVE",
"962 -3 OFFCURVE",
"961 -7 CURVE",
"959 -31 OFFCURVE",
"947 -43 OFFCURVE",
"918 -43 CURVE SMOOTH",
"867 -43 OFFCURVE",
"802 59 OFFCURVE",
"767 132 CURVE SMOOTH",
"733 203 OFFCURVE",
"709 281 OFFCURVE",
"614 285 CURVE",
"707 295 OFFCURVE",
"797 368 OFFCURVE",
"849 455 CURVE SMOOTH",
"866 483 OFFCURVE",
"881 515 OFFCURVE",
"895 550 CURVE SMOOTH",
"912 593 OFFCURVE",
"931 614 OFFCURVE",
"953 614 CURVE SMOOTH",
"964 614 OFFCURVE",
"973 610 OFFCURVE",
"982 601 CURVE SMOOTH",
"994 588 LINE",
"997 588 OFFCURVE",
"999 590 OFFCURVE",
"999 594 CURVE SMOOTH",
"999 613 OFFCURVE",
"965 627 OFFCURVE",
"945 627 CURVE SMOOTH",
"886 627 OFFCURVE",
"858 569 OFFCURVE",
"819 489 CURVE SMOOTH",
"772 385 OFFCURVE",
"687 291 OFFCURVE",
"582 291 CURVE",
"582 306 OFFCURVE",
"576 415 OFFCURVE",
"576 429 CURVE SMOOTH",
"576 515 OFFCURVE",
"594 580 OFFCURVE",
"633 622 CURVE SMOOTH",
"647 637 LINE",
"647 639 OFFCURVE",
"631 639 OFFCURVE",
"622 639 CURVE SMOOTH",
"506 639 OFFCURVE",
"340 572 OFFCURVE",
"340 465 CURVE SMOOTH",
"340 421 OFFCURVE",
"369 390 OFFCURVE",
"413 390 CURVE SMOOTH",
"458 390 OFFCURVE",
"497 422 OFFCURVE",
"497 466 CURVE SMOOTH",
"497 474 OFFCURVE",
"493 499 OFFCURVE",
"485 499 CURVE SMOOTH",
"481 499 OFFCURVE",
"479 497 OFFCURVE",
"479 494 CURVE SMOOTH",
"479 492 OFFCURVE",
"484 476 OFFCURVE",
"484 468 CURVE SMOOTH",
"484 431 OFFCURVE",
"456 405 OFFCURVE",
"421 405 CURVE SMOOTH",
"388 405 OFFCURVE",
"362 430 OFFCURVE",
"362 463 CURVE SMOOTH",
"362 565 OFFCURVE",
"500 628 OFFCURVE",
"614 628 CURVE SMOOTH",
"619 628 LINE",
"554 594 OFFCURVE",
"535 520 OFFCURVE",
"535 353 CURVE SMOOTH",
"535 111 OFFCURVE",
"448 -101 OFFCURVE",
"228 -101 CURVE SMOOTH",
"120 -101 OFFCURVE",
"35 -13 OFFCURVE",
"35 96 CURVE SMOOTH",
"35 200 OFFCURVE",
"105 279 OFFCURVE",
"208 279 CURVE SMOOTH",
"284 279 OFFCURVE",
"338 224 OFFCURVE",
"338 149 CURVE SMOOTH",
"338 82 OFFCURVE",
"297 36 OFFCURVE",
"230 36 CURVE SMOOTH",
"210 36 OFFCURVE",
"198 43 OFFCURVE",
"192 48 CURVE SMOOTH",
"184 54 OFFCURVE",
"183 59 OFFCURVE",
"181 59 CURVE SMOOTH",
"179 59 OFFCURVE",
"178 58 OFFCURVE",
"178 55 CURVE SMOOTH",
"178 42 OFFCURVE",
"195 26 OFFCURVE",
"230 26 CURVE SMOOTH",
"301 26 OFFCURVE",
"352 74 OFFCURVE",
"352 149 CURVE SMOOTH",
"352 232 OFFCURVE",
"291 290 OFFCURVE",
"208 290 CURVE SMOOTH",
"97 290 OFFCURVE",
"9 207 OFFCURVE",
"9 96 CURVE SMOOTH",
"9 -27 OFFCURVE",
"109 -114 OFFCURVE",
"230 -114 CURVE SMOOTH"
);
}
);
userData = {
assembly = "NPUSHB[ ]	/* 51 values pushed */\0121 140 140 64 141 0 137 129 111 104 96 88 87 80 74 68 65 61 55 43 29 5 2 126 122 114 108 102 99 93 92 87 85 84 77 71 63 58 52 31 13 0 23 7 33 48 118 3 1 52 70 \012SROUND[ ]	/* SuperRound */\012MDAP[1]	/* MoveDirectAbsPt */\012SHZ[1]	/* ShiftZoneByLastPoint */\012RTG[ ]	/* RoundToGrid */\012SVTCA[0]	/* SetFreedomAndProjectionVectorToAxis */\012MIAP[1]	/* MoveIndirectAbsPt */\012MDAP[1]	/* MoveDirectAbsPt */\012MDAP[1]	/* MoveDirectAbsPt */\012MIRP[11101]	/* MoveIndirectRelPt */\012SVTCA[1]	/* SetFreedomAndProjectionVectorToAxis */\012MDAP[0]	/* MoveDirectAbsPt */\012MDAP[0]	/* MoveDirectAbsPt */\012MDAP[0]	/* MoveDirectAbsPt */\012MDAP[0]	/* MoveDirectAbsPt */\012MDAP[0]	/* MoveDirectAbsPt */\012MDAP[0]	/* MoveDirectAbsPt */\012MDAP[0]	/* MoveDirectAbsPt */\012MDAP[0]	/* MoveDirectAbsPt */\012MDAP[0]	/* MoveDirectAbsPt */\012MDAP[0]	/* MoveDirectAbsPt */\012MDAP[0]	/* MoveDirectAbsPt */\012MDAP[0]	/* MoveDirectAbsPt */\012MDAP[0]	/* MoveDirectAbsPt */\012MDAP[0]	/* MoveDirectAbsPt */\012MDAP[0]	/* MoveDirectAbsPt */\012MDAP[0]	/* MoveDirectAbsPt */\012MDAP[0]	/* MoveDirectAbsPt */\012MDAP[0]	/* MoveDirectAbsPt */\012MDAP[0]	/* MoveDirectAbsPt */\012SVTCA[0]	/* SetFreedomAndProjectionVectorToAxis */\012MDAP[0]	/* MoveDirectAbsPt */\012MDAP[0]	/* MoveDirectAbsPt */\012MDAP[0]	/* MoveDirectAbsPt */\012MDAP[0]	/* MoveDirectAbsPt */\012MDAP[0]	/* MoveDirectAbsPt */\012MDAP[0]	/* MoveDirectAbsPt */\012MDAP[0]	/* MoveDirectAbsPt */\012MDAP[0]	/* MoveDirectAbsPt */\012MDAP[0]	/* MoveDirectAbsPt */\012MDAP[0]	/* MoveDirectAbsPt */\012MDAP[0]	/* MoveDirectAbsPt */\012MDAP[0]	/* MoveDirectAbsPt */\012MDAP[0]	/* MoveDirectAbsPt */\012MDAP[0]	/* MoveDirectAbsPt */\012MDAP[0]	/* MoveDirectAbsPt */\012MDAP[0]	/* MoveDirectAbsPt */\012MDAP[0]	/* MoveDirectAbsPt */\012IUP[1]	/* InterpolateUntPts */\012IUP[0]	/* InterpolateUntPts */\012SVTCA[1]	/* SetFreedomAndProjectionVectorToAxis */\012MD[0]	/* MeasureDistance */\012ROUND[00]	/* Round */\012PUSHW[ ]	/* 2 values pushed */\01252 140 \012MD[0]	/* MeasureDistance */\012ROUND[00]	/* Round */\012SUB[ ]	/* Subtract */\012PUSHB[ ]	/* 1 value pushed */\01264 \012GT[ ]	/* GreaterThan */\012IF[ ]	/* If */\012SHPIX[ ]	/* ShiftZoneByPixel */\012SRP1[ ]	/* SetRefPoint1 */\012SHZ[1]	/* ShiftZoneByLastPoint */\012PUSHW[ ]	/* 2 values pushed */\012140 -64 \012SHPIX[ ]	/* ShiftZoneByPixel */\012EIF[ ]	/* EndIf */";
};
width = 884;
}
);
note = K;
unicode = 004B;
},
{
glyphname = L;
lastChange = "2022-03-02 21:18:25 +0000";
layers = (
{
layerId = "423D2297-FAE2-4393-80D6-0A1E9777D337";
paths = (
{
closed = 1;
nodes = (
"543 -119 OFFCURVE",
"591 -75 OFFCURVE",
"591 -14 CURVE SMOOTH",
"591 5 OFFCURVE",
"588 22 OFFCURVE",
"580 22 CURVE SMOOTH",
"576 22 OFFCURVE",
"575 19 OFFCURVE",
"575 16 CURVE",
"577 7 OFFCURVE",
"578 -2 OFFCURVE",
"578 -10 CURVE SMOOTH",
"578 -51 OFFCURVE",
"552 -80 OFFCURVE",
"498 -80 CURVE SMOOTH",
"423 -80 OFFCURVE",
"293 -26 OFFCURVE",
"223 21 CURVE",
"292 94 OFFCURVE",
"314 185 OFFCURVE",
"327 316 CURVE",
"386 325 OFFCURVE",
"441 363 OFFCURVE",
"479 411 CURVE SMOOTH",
"515 458 OFFCURVE",
"537 513 OFFCURVE",
"537 557 CURVE SMOOTH",
"537 602 OFFCURVE",
"513 636 OFFCURVE",
"458 636 CURVE SMOOTH",
"349 636 OFFCURVE",
"296 476 OFFCURVE",
"280 330 CURVE",
"157 330 OFFCURVE",
"53 411 OFFCURVE",
"53 528 CURVE SMOOTH",
"53 592 OFFCURVE",
"75 624 OFFCURVE",
"118 624 CURVE SMOOTH",
"154 624 OFFCURVE",
"182 603 OFFCURVE",
"202 560 CURVE SMOOTH",
"203 557 OFFCURVE",
"205 553 OFFCURVE",
"211 553 CURVE SMOOTH",
"215 553 OFFCURVE",
"217 556 OFFCURVE",
"217 563 CURVE",
"202 607 OFFCURVE",
"161 640 OFFCURVE",
"116 640 CURVE SMOOTH",
"89 640 OFFCURVE",
"69 629 OFFCURVE",
"54 608 CURVE SMOOTH",
"42 589 OFFCURVE",
"36 566 OFFCURVE",
"36 537 CURVE SMOOTH",
"36 411 OFFCURVE",
"135 314 OFFCURVE",
"278 314 CURVE",
"254 175 OFFCURVE",
"227 85 OFFCURVE",
"196 42 CURVE",
"103 107 OFFCURVE",
"34 139 OFFCURVE",
"-13 139 CURVE SMOOTH",
"-46 139 OFFCURVE",
"-62 125 OFFCURVE",
"-62 97 CURVE SMOOTH",
"-62 15 OFFCURVE",
"10 -30 OFFCURVE",
"93 -30 CURVE SMOOTH",
"134 -30 OFFCURVE",
"169 -19 OFFCURVE",
"200 3 CURVE",
"308 -70 OFFCURVE",
"390 -119 OFFCURVE",
"474 -119 CURVE SMOOTH"
);
},
{
closed = 1;
nodes = (
"31 -14 OFFCURVE",
"-42 39 OFFCURVE",
"-42 88 CURVE SMOOTH",
"-42 103 OFFCURVE",
"-33 111 OFFCURVE",
"-14 111 CURVE SMOOTH",
"22 111 OFFCURVE",
"85 80 OFFCURVE",
"175 19 CURVE",
"151 -3 OFFCURVE",
"122 -14 OFFCURVE",
"87 -14 CURVE SMOOTH"
);
},
{
closed = 1;
nodes = (
"340 458 OFFCURVE",
"375 613 OFFCURVE",
"473 613 CURVE SMOOTH",
"505 613 OFFCURVE",
"518 587 OFFCURVE",
"518 553 CURVE SMOOTH",
"518 512 OFFCURVE",
"500 460 OFFCURVE",
"470 422 CURVE SMOOTH",
"435 377 OFFCURVE",
"384 342 OFFCURVE",
"328 333 CURVE"
);
}
);
userData = {
assembly = "NPUSHB[ ]	/* 45 values pushed */\0121 100 100 64 101 20 98 96 88 80 74 66 60 56 40 38 28 26 18 11 90 86 84 80 62 54 53 46 42 36 20 16 13 7 0 22 72 3 50 3 24 1 1 36 70 \012SROUND[ ]	/* SuperRound */\012MDAP[1]	/* MoveDirectAbsPt */\012SHZ[1]	/* ShiftZoneByLastPoint */\012RTG[ ]	/* RoundToGrid */\012SVTCA[0]	/* SetFreedomAndProjectionVectorToAxis */\012MIAP[1]	/* MoveIndirectAbsPt */\012MIAP[1]	/* MoveIndirectAbsPt */\012MIAP[1]	/* MoveIndirectAbsPt */\012MDAP[1]	/* MoveDirectAbsPt */\012SVTCA[1]	/* SetFreedomAndProjectionVectorToAxis */\012MDAP[0]	/* MoveDirectAbsPt */\012MDAP[0]	/* MoveDirectAbsPt */\012MDAP[0]	/* MoveDirectAbsPt */\012MDAP[0]	/* MoveDirectAbsPt */\012MDAP[0]	/* MoveDirectAbsPt */\012MDAP[0]	/* MoveDirectAbsPt */\012MDAP[0]	/* MoveDirectAbsPt */\012MDAP[0]	/* MoveDirectAbsPt */\012MDAP[0]	/* MoveDirectAbsPt */\012MDAP[0]	/* MoveDirectAbsPt */\012MDAP[0]	/* MoveDirectAbsPt */\012MDAP[0]	/* MoveDirectAbsPt */\012MDAP[0]	/* MoveDirectAbsPt */\012MDAP[0]	/* MoveDirectAbsPt */\012MDAP[0]	/* MoveDirectAbsPt */\012SVTCA[0]	/* SetFreedomAndProjectionVectorToAxis */\012MDAP[0]	/* MoveDirectAbsPt */\012MDAP[0]	/* MoveDirectAbsPt */\012MDAP[0]	/* MoveDirectAbsPt */\012MDAP[0]	/* MoveDirectAbsPt */\012MDAP[0]	/* MoveDirectAbsPt */\012MDAP[0]	/* MoveDirectAbsPt */\012MDAP[0]	/* MoveDirectAbsPt */\012MDAP[0]	/* MoveDirectAbsPt */\012MDAP[0]	/* MoveDirectAbsPt */\012MDAP[0]	/* MoveDirectAbsPt */\012MDAP[0]	/* MoveDirectAbsPt */\012MDAP[0]	/* MoveDirectAbsPt */\012MDAP[0]	/* MoveDirectAbsPt */\012MDAP[0]	/* MoveDirectAbsPt */\012IUP[1]	/* InterpolateUntPts */\012IUP[0]	/* InterpolateUntPts */\012SVTCA[1]	/* SetFreedomAndProjectionVectorToAxis */\012MD[0]	/* MeasureDistance */\012ROUND[00]	/* Round */\012PUSHW[ ]	/* 2 values pushed */\01236 100 \012MD[0]	/* MeasureDistance */\012ROUND[00]	/* Round */\012SUB[ ]	/* Subtract */\012PUSHB[ ]	/* 1 value pushed */\01264 \012GT[ ]	/* GreaterThan */\012IF[ ]	/* If */\012SHPIX[ ]	/* ShiftZoneByPixel */\012SRP1[ ]	/* SetRefPoint1 */\012SHZ[1]	/* ShiftZoneByLastPoint */\012PUSHW[ ]	/* 2 values pushed */\012100 -64 \012SHPIX[ ]	/* ShiftZoneByPixel */\012EIF[ ]	/* EndIf */";
};
width = 465;
}
);
note = L;
unicode = 004C;
},
{
glyphname = M;
lastChange = "2022-03-02 21:18:25 +0000";
layers = (
{
layerId = "423D2297-FAE2-4393-80D6-0A1E9777D337";
paths = (
{
closed = 1;
nodes = (
"215 -52 OFFCURVE",
"278 -16 OFFCURVE",
"313 41 CURVE SMOOTH",
"370 134 OFFCURVE",
"355 309 OFFCURVE",
"385 435 CURVE SMOOTH",
"406 525 OFFCURVE",
"434 586 OFFCURVE",
"468 618 CURVE",
"457 585 OFFCURVE",
"451 552 OFFCURVE",
"451 520 CURVE SMOOTH",
"451 411 OFFCURVE",
"471 288 OFFCURVE",
"510 153 CURVE SMOOTH",
"523 108 OFFCURVE",
"530 81 OFFCURVE",
"535 53 CURVE SMOOTH",
"538 40 OFFCURVE",
"541 23 OFFCURVE",
"553 23 CURVE SMOOTH",
"560 23 OFFCURVE",
"566 36 OFFCURVE",
"585 72 CURVE SMOOTH",
"617 133 OFFCURVE",
"703 436 OFFCURVE",
"744 520 CURVE SMOOTH",
"785 605 OFFCURVE",
"826 647 OFFCURVE",
"865 646 CURVE",
"790 571 OFFCURVE",
"753 403 OFFCURVE",
"753 278 CURVE SMOOTH",
"753 135 OFFCURVE",
"782 40 OFFCURVE",
"839 -6 CURVE SMOOTH",
"857 -21 OFFCURVE",
"876 -28 OFFCURVE",
"897 -28 CURVE SMOOTH",
"941 -28 OFFCURVE",
"984 14 OFFCURVE",
"984 58 CURVE SMOOTH",
"984 84 OFFCURVE",
"975 97 OFFCURVE",
"957 97 CURVE SMOOTH",
"954 97 OFFCURVE",
"953 96 OFFCURVE",
"953 94 CURVE",
"962 85 LINE SMOOTH",
"969 78 OFFCURVE",
"971 69 OFFCURVE",
"971 57 CURVE SMOOTH",
"971 25 OFFCURVE",
"946 -9 OFFCURVE",
"914 -9 CURVE SMOOTH",
"901 -9 OFFCURVE",
"889 -3 OFFCURVE",
"877 8 CURVE SMOOTH",
"833 49 OFFCURVE",
"811 138 OFFCURVE",
"811 275 CURVE SMOOTH",
"811 389 OFFCURVE",
"837 564 OFFCURVE",
"892 644 CURVE",
"912 640 OFFCURVE",
"932 632 OFFCURVE",
"952 632 CURVE SMOOTH",
"986 632 OFFCURVE",
"1005 644 OFFCURVE",
"1005 667 CURVE SMOOTH",
"1005 686 OFFCURVE",
"990 697 OFFCURVE",
"964 697 CURVE SMOOTH",
"933 697 OFFCURVE",
"904 682 OFFCURVE",
"878 658 CURVE",
"870 658 LINE SMOOTH",
"807 658 OFFCURVE",
"750 599 OFFCURVE",
"700 481 CURVE SMOOTH",
"671 415 OFFCURVE",
"593 106 OFFCURVE",
"564 70 CURVE",
"564 115 OFFCURVE",
"555 188 OFFCURVE",
"550 211 CURVE SMOOTH",
"536 269 OFFCURVE",
"522 327 OFFCURVE",
"509 385 CURVE SMOOTH",
"494 454 OFFCURVE",
"486 513 OFFCURVE",
"486 562 CURVE SMOOTH",
"486 582 OFFCURVE",
"488 599 OFFCURVE",
"491 612 CURVE",
"534 610 OFFCURVE",
"584 620 OFFCURVE",
"584 650 CURVE SMOOTH",
"584 664 OFFCURVE",
"573 671 OFFCURVE",
"550 671 CURVE SMOOTH",
"520 671 OFFCURVE",
"490 657 OFFCURVE",
"459 629 CURVE",
"368 656 OFFCURVE",
"307 669 OFFCURVE",
"277 669 CURVE SMOOTH",
"160 669 OFFCURVE",
"55 598 OFFCURVE",
"55 480 CURVE SMOOTH",
"55 403 OFFCURVE",
"109 343 OFFCURVE",
"186 343 CURVE SMOOTH",
"264 343 OFFCURVE",
"331 393 OFFCURVE",
"331 471 CURVE SMOOTH",
"331 514 OFFCURVE",
"306 546 OFFCURVE",
"265 546 CURVE SMOOTH",
"242 546 OFFCURVE",
"215 527 OFFCURVE",
"216 506 CURVE",
"217 505 OFFCURVE",
"219 504 OFFCURVE",
"220 504 CURVE SMOOTH",
"223 504 OFFCURVE",
"224 505 OFFCURVE",
"224 507 CURVE",
"228 526 OFFCURVE",
"241 535 OFFCURVE",
"264 535 CURVE SMOOTH",
"297 535 OFFCURVE",
"315 507 OFFCURVE",
"315 472 CURVE SMOOTH",
"315 403 OFFCURVE",
"256 355 OFFCURVE",
"187 355 CURVE SMOOTH",
"123 355 OFFCURVE",
"84 412 OFFCURVE",
"84 478 CURVE SMOOTH",
"84 584 OFFCURVE",
"166 654 OFFCURVE",
"274 654 CURVE SMOOTH",
"344 654 OFFCURVE",
"400 626 OFFCURVE",
"449 619 CURVE",
"412 579 OFFCURVE",
"387 515 OFFCURVE",
"369 441 CURVE SMOOTH",
"357 389 OFFCURVE",
"350 335 OFFCURVE",
"344 282 CURVE SMOOTH",
"323 121 OFFCURVE",
"278 -42 OFFCURVE",
"139 -42 CURVE SMOOTH",
"65 -42 OFFCURVE",
"24 29 OFFCURVE",
"24 106 CURVE SMOOTH",
"24 205 OFFCURVE",
"83 305 OFFCURVE",
"170 305 CURVE SMOOTH",
"232 305 OFFCURVE",
"268 246 OFFCURVE",
"268 181 CURVE SMOOTH",
"268 127 OFFCURVE",
"239 56 OFFCURVE",
"184 56 CURVE SMOOTH",
"155 56 OFFCURVE",
"134 80 OFFCURVE",
"134 109 CURVE SMOOTH",
"134 114 OFFCURVE",
"135 120 OFFCURVE",
"137 127 CURVE SMOOTH",
"139 134 OFFCURVE",
"140 139 OFFCURVE",
"140 141 CURVE SMOOTH",
"140 143 OFFCURVE",
"139 144 OFFCURVE",
"137 144 CURVE SMOOTH",
"127 144 OFFCURVE",
"122 132 OFFCURVE",
"122 108 CURVE SMOOTH",
"122 73 OFFCURVE",
"150 49 OFFCURVE",
"185 49 CURVE SMOOTH",
"248 49 OFFCURVE",
"281 112 OFFCURVE",
"281 180 CURVE SMOOTH",
"281 251 OFFCURVE",
"244 313 OFFCURVE",
"172 313 CURVE SMOOTH",
"84 313 OFFCURVE",
"-7 215 OFFCURVE",
"-7 113 CURVE SMOOTH",
"-7 18 OFFCURVE",
"55 -52 OFFCURVE",
"149 -52 CURVE SMOOTH"
);
},
{
closed = 1;
nodes = (
"502 620 OFFCURVE",
"496 620 OFFCURVE",
"493 621 CURVE",
"500 642 OFFCURVE",
"523 663 OFFCURVE",
"546 663 CURVE SMOOTH",
"559 663 OFFCURVE",
"566 658 OFFCURVE",
"566 648 CURVE SMOOTH",
"566 629 OFFCURVE",
"533 620 OFFCURVE",
"509 620 CURVE SMOOTH"
);
},
{
closed = 1;
nodes = (
"942 644 OFFCURVE",
"919 651 OFFCURVE",
"902 656 CURVE",
"918 677 OFFCURVE",
"938 688 OFFCURVE",
"962 688 CURVE SMOOTH",
"981 688 OFFCURVE",
"991 681 OFFCURVE",
"991 666 CURVE SMOOTH",
"991 652 OFFCURVE",
"978 644 OFFCURVE",
"954 644 CURVE SMOOTH"
);
}
);
userData = {
assembly = "NPUSHB[ ]	/* 71 values pushed */\0121 206 206 64 207 160 202 197 187 180 172 164 162 156 155 149 136 134 132 125 118 113 109 95 79 69 61 53 48 40 24 16 0 200 195 189 185 182 178 175 168 160 143 138 128 121 115 106 99 89 75 65 58 55 51 44 36 24 22 8 4 158 32 103 2 193 8 3 1 36 70 \012SROUND[ ]	/* SuperRound */\012MDAP[1]	/* MoveDirectAbsPt */\012SHZ[1]	/* ShiftZoneByLastPoint */\012RTG[ ]	/* RoundToGrid */\012SVTCA[0]	/* SetFreedomAndProjectionVectorToAxis */\012MIAP[1]	/* MoveIndirectAbsPt */\012ALIGNRP[ ]	/* AlignRelativePt */\012MIAP[1]	/* MoveIndirectAbsPt */\012MDAP[1]	/* MoveDirectAbsPt */\012MDAP[1]	/* MoveDirectAbsPt */\012SVTCA[1]	/* SetFreedomAndProjectionVectorToAxis */\012MDAP[0]	/* MoveDirectAbsPt */\012MDAP[0]	/* MoveDirectAbsPt */\012MDAP[0]	/* MoveDirectAbsPt */\012MDAP[0]	/* MoveDirectAbsPt */\012MDAP[0]	/* MoveDirectAbsPt */\012MDAP[0]	/* MoveDirectAbsPt */\012MDAP[0]	/* MoveDirectAbsPt */\012MDAP[0]	/* MoveDirectAbsPt */\012MDAP[0]	/* MoveDirectAbsPt */\012MDAP[0]	/* MoveDirectAbsPt */\012MDAP[0]	/* MoveDirectAbsPt */\012MDAP[0]	/* MoveDirectAbsPt */\012MDAP[0]	/* MoveDirectAbsPt */\012MDAP[0]	/* MoveDirectAbsPt */\012MDAP[0]	/* MoveDirectAbsPt */\012MDAP[0]	/* MoveDirectAbsPt */\012MDAP[0]	/* MoveDirectAbsPt */\012MDAP[0]	/* MoveDirectAbsPt */\012MDAP[0]	/* MoveDirectAbsPt */\012MDAP[0]	/* MoveDirectAbsPt */\012MDAP[0]	/* MoveDirectAbsPt */\012MDAP[0]	/* MoveDirectAbsPt */\012MDAP[0]	/* MoveDirectAbsPt */\012MDAP[0]	/* MoveDirectAbsPt */\012MDAP[0]	/* MoveDirectAbsPt */\012MDAP[0]	/* MoveDirectAbsPt */\012MDAP[0]	/* MoveDirectAbsPt */\012MDAP[0]	/* MoveDirectAbsPt */\012SVTCA[0]	/* SetFreedomAndProjectionVectorToAxis */\012MDAP[0]	/* MoveDirectAbsPt */\012MDAP[0]	/* MoveDirectAbsPt */\012MDAP[0]	/* MoveDirectAbsPt */\012MDAP[0]	/* MoveDirectAbsPt */\012MDAP[0]	/* MoveDirectAbsPt */\012MDAP[0]	/* MoveDirectAbsPt */\012MDAP[0]	/* MoveDirectAbsPt */\012MDAP[0]	/* MoveDirectAbsPt */\012MDAP[0]	/* MoveDirectAbsPt */\012MDAP[0]	/* MoveDirectAbsPt */\012MDAP[0]	/* MoveDirectAbsPt */\012MDAP[0]	/* MoveDirectAbsPt */\012MDAP[0]	/* MoveDirectAbsPt */\012MDAP[0]	/* MoveDirectAbsPt */\012MDAP[0]	/* MoveDirectAbsPt */\012MDAP[0]	/* MoveDirectAbsPt */\012MDAP[0]	/* MoveDirectAbsPt */\012MDAP[0]	/* MoveDirectAbsPt */\012MDAP[0]	/* MoveDirectAbsPt */\012MDAP[0]	/* MoveDirectAbsPt */\012MDAP[0]	/* MoveDirectAbsPt */\012MDAP[0]	/* MoveDirectAbsPt */\012MDAP[0]	/* MoveDirectAbsPt */\012MDAP[0]	/* MoveDirectAbsPt */\012MDAP[0]	/* MoveDirectAbsPt */\012MDAP[0]	/* MoveDirectAbsPt */\012MDAP[0]	/* MoveDirectAbsPt */\012IUP[1]	/* InterpolateUntPts */\012IUP[0]	/* InterpolateUntPts */\012SVTCA[1]	/* SetFreedomAndProjectionVectorToAxis */\012MD[0]	/* MeasureDistance */\012ROUND[00]	/* Round */\012PUSHW[ ]	/* 2 values pushed */\01236 206 \012MD[0]	/* MeasureDistance */\012ROUND[00]	/* Round */\012SUB[ ]	/* Subtract */\012PUSHB[ ]	/* 1 value pushed */\01264 \012GT[ ]	/* GreaterThan */\012IF[ ]	/* If */\012SHPIX[ ]	/* ShiftZoneByPixel */\012SRP1[ ]	/* SetRefPoint1 */\012SHZ[1]	/* ShiftZoneByLastPoint */\012PUSHW[ ]	/* 2 values pushed */\012206 -64 \012SHPIX[ ]	/* ShiftZoneByPixel */\012EIF[ ]	/* EndIf */";
};
width = 985;
}
);
note = M;
unicode = 004D;
},
{
glyphname = N;
lastChange = "2022-03-02 21:18:25 +0000";
layers = (
{
layerId = "423D2297-FAE2-4393-80D6-0A1E9777D337";
paths = (
{
closed = 1;
nodes = (
"340 -63 OFFCURVE",
"423 -22 OFFCURVE",
"475 42 CURVE SMOOTH",
"588 183 OFFCURVE",
"546 363 OFFCURVE",
"586 514 CURVE SMOOTH",
"598 559 OFFCURVE",
"615 589 OFFCURVE",
"637 604 CURVE",
"622 570 OFFCURVE",
"614 535 OFFCURVE",
"614 498 CURVE SMOOTH",
"614 442 OFFCURVE",
"652 361 OFFCURVE",
"696 277 CURVE SMOOTH",
"742 191 OFFCURVE",
"795 103 OFFCURVE",
"823 35 CURVE SMOOTH",
"827 24 OFFCURVE",
"829 14 OFFCURVE",
"829 4 CURVE SMOOTH",
"829 -5 OFFCURVE",
"826 -19 OFFCURVE",
"822 -22 CURVE",
"822 -24 OFFCURVE",
"830 -25 OFFCURVE",
"835 -25 CURVE SMOOTH",
"839 -25 OFFCURVE",
"841 -25 OFFCURVE",
"842 -24 CURVE",
"917 24 OFFCURVE",
"920 140 OFFCURVE",
"920 335 CURVE SMOOTH",
"920 486 OFFCURVE",
"943 657 OFFCURVE",
"1040 657 CURVE SMOOTH",
"1086 657 OFFCURVE",
"1112 616 OFFCURVE",
"1112 571 CURVE SMOOTH",
"1112 540 OFFCURVE",
"1107 519 OFFCURVE",
"1096 500 CURVE SMOOTH",
"1083 477 OFFCURVE",
"1060 466 OFFCURVE",
"1033 466 CURVE SMOOTH",
"1025 466 OFFCURVE",
"1020 464 OFFCURVE",
"1020 461 CURVE SMOOTH",
"1020 457 OFFCURVE",
"1023 455 OFFCURVE",
"1033 455 CURVE SMOOTH",
"1066 455 OFFCURVE",
"1090 466 OFFCURVE",
"1107 493 CURVE SMOOTH",
"1122 516 OFFCURVE",
"1126 544 OFFCURVE",
"1126 572 CURVE SMOOTH",
"1126 629 OFFCURVE",
"1092 668 OFFCURVE",
"1041 668 CURVE SMOOTH",
"914 668 OFFCURVE",
"901 501 OFFCURVE",
"901 334 CURVE SMOOTH",
"901 90 OFFCURVE",
"884 16 OFFCURVE",
"839 -12 CURVE",
"848 6 OFFCURVE",
"853 29 OFFCURVE",
"853 57 CURVE SMOOTH",
"853 112 OFFCURVE",
"803 213 OFFCURVE",
"744 320 CURVE SMOOTH",
"690 422 OFFCURVE",
"652 478 OFFCURVE",
"652 567 CURVE SMOOTH",
"652 580 OFFCURVE",
"654 590 OFFCURVE",
"657 598 CURVE",
"678 592 OFFCURVE",
"700 587 OFFCURVE",
"716 587 CURVE SMOOTH",
"743 587 OFFCURVE",
"758 599 OFFCURVE",
"758 615 CURVE SMOOTH",
"758 634 OFFCURVE",
"740 642 OFFCURVE",
"715 642 CURVE SMOOTH",
"690 642 OFFCURVE",
"653 636 OFFCURVE",
"632 615 CURVE",
"506 658 OFFCURVE",
"431 689 OFFCURVE",
"343 689 CURVE SMOOTH",
"156 689 OFFCURVE",
"12 591 OFFCURVE",
"12 417 CURVE SMOOTH",
"12 362 OFFCURVE",
"27 314 OFFCURVE",
"58 275 CURVE",
"33 239 OFFCURVE",
"21 199 OFFCURVE",
"21 154 CURVE SMOOTH",
"21 30 OFFCURVE",
"123 -63 OFFCURVE",
"248 -63 CURVE SMOOTH"
);
},
{
closed = 1;
nodes = (
"179 204 OFFCURVE",
"130 228 OFFCURVE",
"88 276 CURVE",
"120 316 OFFCURVE",
"159 336 OFFCURVE",
"206 336 CURVE SMOOTH",
"270 336 OFFCURVE",
"320 293 OFFCURVE",
"336 231 CURVE",
"303 213 OFFCURVE",
"270 204 OFFCURVE",
"235 204 CURVE SMOOTH"
);
},
{
closed = 1;
nodes = (
"128 -48 OFFCURVE",
"48 34 OFFCURVE",
"48 157 CURVE SMOOTH",
"48 193 OFFCURVE",
"57 226 OFFCURVE",
"75 256 CURVE",
"118 211 OFFCURVE",
"174 188 OFFCURVE",
"235 188 CURVE SMOOTH",
"278 188 OFFCURVE",
"310 196 OFFCURVE",
"340 212 CURVE",
"341 207 OFFCURVE",
"342 199 OFFCURVE",
"342 188 CURVE SMOOTH",
"342 131 OFFCURVE",
"302 83 OFFCURVE",
"246 83 CURVE SMOOTH",
"237 83 OFFCURVE",
"230 84 OFFCURVE",
"227 84 CURVE SMOOTH",
"222 84 OFFCURVE",
"221 82 OFFCURVE",
"221 78 CURVE SMOOTH",
"221 72 OFFCURVE",
"236 70 OFFCURVE",
"253 70 CURVE SMOOTH",
"284 70 OFFCURVE",
"310 83 OFFCURVE",
"330 109 CURVE SMOOTH",
"349 133 OFFCURVE",
"358 161 OFFCURVE",
"358 194 CURVE SMOOTH",
"358 200 OFFCURVE",
"357 209 OFFCURVE",
"356 221 CURVE",
"423 265 OFFCURVE",
"457 328 OFFCURVE",
"457 409 CURVE SMOOTH",
"457 504 OFFCURVE",
"394 564 OFFCURVE",
"299 564 CURVE SMOOTH",
"230 564 OFFCURVE",
"175 517 OFFCURVE",
"175 448 CURVE SMOOTH",
"175 416 OFFCURVE",
"187 393 OFFCURVE",
"212 378 CURVE SMOOTH",
"218 375 OFFCURVE",
"223 373 OFFCURVE",
"226 373 CURVE",
"229 374 OFFCURVE",
"231 375 OFFCURVE",
"231 377 CURVE SMOOTH",
"231 380 OFFCURVE",
"228 382 OFFCURVE",
"222 382 CURVE",
"199 395 OFFCURVE",
"188 416 OFFCURVE",
"188 443 CURVE SMOOTH",
"188 504 OFFCURVE",
"242 546 OFFCURVE",
"305 546 CURVE SMOOTH",
"385 546 OFFCURVE",
"441 482 OFFCURVE",
"441 401 CURVE SMOOTH",
"441 334 OFFCURVE",
"411 280 OFFCURVE",
"352 239 CURVE",
"331 308 OFFCURVE",
"272 350 OFFCURVE",
"199 350 CURVE SMOOTH",
"149 350 OFFCURVE",
"107 332 OFFCURVE",
"74 295 CURVE",
"52 328 OFFCURVE",
"41 366 OFFCURVE",
"41 408 CURVE SMOOTH",
"41 574 OFFCURVE",
"176 661 OFFCURVE",
"361 661 CURVE SMOOTH",
"436 661 OFFCURVE",
"518 637 OFFCURVE",
"623 609 CURVE",
"602 593 OFFCURVE",
"586 564 OFFCURVE",
"575 524 CURVE SMOOTH",
"537 392 OFFCURVE",
"534 209 OFFCURVE",
"466 95 CURVE SMOOTH",
"407 -4 OFFCURVE",
"335 -48 OFFCURVE",
"251 -48 CURVE SMOOTH"
);
},
{
closed = 1;
nodes = (
"704 597 OFFCURVE",
"690 601 OFFCURVE",
"663 608 CURVE",
"674 625 OFFCURVE",
"691 633 OFFCURVE",
"714 633 CURVE SMOOTH",
"730 633 OFFCURVE",
"745 627 OFFCURVE",
"745 614 CURVE SMOOTH",
"745 603 OFFCURVE",
"731 597 OFFCURVE",
"714 597 CURVE SMOOTH"
);
}
);
userData = {
assembly = "NPUSHB[ ]	/* 90 values pushed */\0121 194 194 64 195 0 193 191 187 184 173 171 169 164 162 160 156 155 153 142 135 126 121 116 110 106 105 103 99 97 96 91 72 70 64 40 23 15 4 193 189 184 175 167 158 149 147 145 139 133 129 123 114 105 101 97 96 94 82 80 74 68 55 53 51 40 38 30 25 11 6 0 84 87 6 19 178 7 48 60 48 118 2 82 1 66 3 1 55 70 \012SROUND[ ]	/* SuperRound */\012MDAP[1]	/* MoveDirectAbsPt */\012SHZ[1]	/* ShiftZoneByLastPoint */\012RTG[ ]	/* RoundToGrid */\012SVTCA[0]	/* SetFreedomAndProjectionVectorToAxis */\012MIAP[1]	/* MoveIndirectAbsPt */\012MIAP[1]	/* MoveIndirectAbsPt */\012MIAP[1]	/* MoveIndirectAbsPt */\012MDAP[1]	/* MoveDirectAbsPt */\012MDAP[1]	/* MoveDirectAbsPt */\012SRP0[ ]	/* SetRefPoint0 */\012MIRP[11101]	/* MoveIndirectRelPt */\012SVTCA[1]	/* SetFreedomAndProjectionVectorToAxis */\012MDAP[1]	/* MoveDirectAbsPt */\012MIRP[11101]	/* MoveIndirectRelPt */\012ALIGNRP[ ]	/* AlignRelativePt */\012MDAP[0]	/* MoveDirectAbsPt */\012MDAP[0]	/* MoveDirectAbsPt */\012MDAP[0]	/* MoveDirectAbsPt */\012MDAP[0]	/* MoveDirectAbsPt */\012MDAP[0]	/* MoveDirectAbsPt */\012MDAP[0]	/* MoveDirectAbsPt */\012MDAP[0]	/* MoveDirectAbsPt */\012MDAP[0]	/* MoveDirectAbsPt */\012MDAP[0]	/* MoveDirectAbsPt */\012MDAP[0]	/* MoveDirectAbsPt */\012MDAP[0]	/* MoveDirectAbsPt */\012MDAP[0]	/* MoveDirectAbsPt */\012MDAP[0]	/* MoveDirectAbsPt */\012MDAP[0]	/* MoveDirectAbsPt */\012MDAP[0]	/* MoveDirectAbsPt */\012MDAP[0]	/* MoveDirectAbsPt */\012MDAP[0]	/* MoveDirectAbsPt */\012MDAP[0]	/* MoveDirectAbsPt */\012MDAP[0]	/* MoveDirectAbsPt */\012MDAP[0]	/* MoveDirectAbsPt */\012MDAP[0]	/* MoveDirectAbsPt */\012MDAP[0]	/* MoveDirectAbsPt */\012MDAP[0]	/* MoveDirectAbsPt */\012MDAP[0]	/* MoveDirectAbsPt */\012MDAP[0]	/* MoveDirectAbsPt */\012MDAP[0]	/* MoveDirectAbsPt */\012MDAP[0]	/* MoveDirectAbsPt */\012MDAP[0]	/* MoveDirectAbsPt */\012MDAP[0]	/* MoveDirectAbsPt */\012MDAP[0]	/* MoveDirectAbsPt */\012MDAP[0]	/* MoveDirectAbsPt */\012MDAP[0]	/* MoveDirectAbsPt */\012MDAP[0]	/* MoveDirectAbsPt */\012SVTCA[0]	/* SetFreedomAndProjectionVectorToAxis */\012MDAP[0]	/* MoveDirectAbsPt */\012MDAP[0]	/* MoveDirectAbsPt */\012MDAP[0]	/* MoveDirectAbsPt */\012MDAP[0]	/* MoveDirectAbsPt */\012MDAP[0]	/* MoveDirectAbsPt */\012MDAP[0]	/* MoveDirectAbsPt */\012MDAP[0]	/* MoveDirectAbsPt */\012MDAP[0]	/* MoveDirectAbsPt */\012MDAP[0]	/* MoveDirectAbsPt */\012MDAP[0]	/* MoveDirectAbsPt */\012MDAP[0]	/* MoveDirectAbsPt */\012MDAP[0]	/* MoveDirectAbsPt */\012MDAP[0]	/* MoveDirectAbsPt */\012MDAP[0]	/* MoveDirectAbsPt */\012MDAP[0]	/* MoveDirectAbsPt */\012MDAP[0]	/* MoveDirectAbsPt */\012MDAP[0]	/* MoveDirectAbsPt */\012MDAP[0]	/* MoveDirectAbsPt */\012MDAP[0]	/* MoveDirectAbsPt */\012MDAP[0]	/* MoveDirectAbsPt */\012MDAP[0]	/* MoveDirectAbsPt */\012MDAP[0]	/* MoveDirectAbsPt */\012MDAP[0]	/* MoveDirectAbsPt */\012MDAP[0]	/* MoveDirectAbsPt */\012MDAP[0]	/* MoveDirectAbsPt */\012MDAP[0]	/* MoveDirectAbsPt */\012MDAP[0]	/* MoveDirectAbsPt */\012MDAP[0]	/* MoveDirectAbsPt */\012MDAP[0]	/* MoveDirectAbsPt */\012MDAP[0]	/* MoveDirectAbsPt */\012MDAP[0]	/* MoveDirectAbsPt */\012MDAP[0]	/* MoveDirectAbsPt */\012MDAP[0]	/* MoveDirectAbsPt */\012IUP[1]	/* InterpolateUntPts */\012IUP[0]	/* InterpolateUntPts */\012SVTCA[1]	/* SetFreedomAndProjectionVectorToAxis */\012MD[0]	/* MeasureDistance */\012ROUND[00]	/* Round */\012PUSHW[ ]	/* 2 values pushed */\01255 194 \012MD[0]	/* MeasureDistance */\012ROUND[00]	/* Round */\012SUB[ ]	/* Subtract */\012PUSHB[ ]	/* 1 value pushed */\01264 \012GT[ ]	/* GreaterThan */\012IF[ ]	/* If */\012SHPIX[ ]	/* ShiftZoneByPixel */\012SRP1[ ]	/* SetRefPoint1 */\012SHZ[1]	/* ShiftZoneByLastPoint */\012PUSHW[ ]	/* 2 values pushed */\012194 -64 \012SHPIX[ ]	/* ShiftZoneByPixel */\012EIF[ ]	/* EndIf */";
};
width = 976;
}
);
note = N;
unicode = 004E;
},
{
color = 1;
glyphname = Eng;
lastChange = "2022-03-02 21:18:25 +0000";
layers = (
{
layerId = "423D2297-FAE2-4393-80D6-0A1E9777D337";
paths = (
{
closed = 1;
nodes = (
"795 -371 OFFCURVE",
"866 -213 OFFCURVE",
"866 -66 CURVE SMOOTH",
"866 -31 OFFCURVE",
"865 -18 OFFCURVE",
"864 -6 CURVE",
"918 51 OFFCURVE",
"920 162 OFFCURVE",
"920 335 CURVE SMOOTH",
"920 486 OFFCURVE",
"943 657 OFFCURVE",
"1040 657 CURVE SMOOTH",
"1086 657 OFFCURVE",
"1112 616 OFFCURVE",
"1112 571 CURVE SMOOTH",
"1112 540 OFFCURVE",
"1107 519 OFFCURVE",
"1096 500 CURVE SMOOTH",
"1083 477 OFFCURVE",
"1060 466 OFFCURVE",
"1033 466 CURVE SMOOTH",
"1025 466 OFFCURVE",
"1020 464 OFFCURVE",
"1020 461 CURVE SMOOTH",
"1020 457 OFFCURVE",
"1023 455 OFFCURVE",
"1033 455 CURVE SMOOTH",
"1066 455 OFFCURVE",
"1090 466 OFFCURVE",
"1107 493 CURVE SMOOTH",
"1122 516 OFFCURVE",
"1126 544 OFFCURVE",
"1126 572 CURVE SMOOTH",
"1126 629 OFFCURVE",
"1092 668 OFFCURVE",
"1041 668 CURVE SMOOTH",
"914 668 OFFCURVE",
"901 501 OFFCURVE",
"901 334 CURVE SMOOTH",
"901 139 OFFCURVE",
"890 52 OFFCURVE",
"863 11 CURVE",
"848 117 OFFCURVE",
"815 192 OFFCURVE",
"744 320 CURVE SMOOTH",
"690 422 OFFCURVE",
"652 478 OFFCURVE",
"652 567 CURVE SMOOTH",
"652 580 OFFCURVE",
"654 590 OFFCURVE",
"657 598 CURVE",
"678 592 OFFCURVE",
"700 587 OFFCURVE",
"716 587 CURVE SMOOTH",
"743 587 OFFCURVE",
"758 599 OFFCURVE",
"758 615 CURVE SMOOTH",
"758 634 OFFCURVE",
"740 642 OFFCURVE",
"715 642 CURVE SMOOTH",
"690 642 OFFCURVE",
"653 636 OFFCURVE",
"632 615 CURVE",
"506 658 OFFCURVE",
"431 689 OFFCURVE",
"343 689 CURVE SMOOTH",
"156 689 OFFCURVE",
"12 591 OFFCURVE",
"12 417 CURVE SMOOTH",
"12 362 OFFCURVE",
"27 314 OFFCURVE",
"58 275 CURVE",
"33 239 OFFCURVE",
"21 199 OFFCURVE",
"21 154 CURVE SMOOTH",
"21 30 OFFCURVE",
"123 -63 OFFCURVE",
"248 -63 CURVE SMOOTH",
"340 -63 OFFCURVE",
"423 -22 OFFCURVE",
"475 42 CURVE SMOOTH",
"588 183 OFFCURVE",
"546 363 OFFCURVE",
"586 514 CURVE SMOOTH",
"598 559 OFFCURVE",
"615 589 OFFCURVE",
"637 604 CURVE",
"622 570 OFFCURVE",
"614 535 OFFCURVE",
"614 498 CURVE SMOOTH",
"614 442 OFFCURVE",
"652 361 OFFCURVE",
"696 277 CURVE SMOOTH",
"739 195 OFFCURVE",
"821 66 OFFCURVE",
"821 -79 CURVE SMOOTH",
"821 -169 OFFCURVE",
"781 -355 OFFCURVE",
"634 -355 CURVE SMOOTH",
"564 -355 OFFCURVE",
"515 -297 OFFCURVE",
"515 -224 CURVE SMOOTH",
"515 -156 OFFCURVE",
"555 -106 OFFCURVE",
"619 -106 CURVE SMOOTH",
"666 -106 OFFCURVE",
"695 -141 OFFCURVE",
"695 -190 CURVE SMOOTH",
"695 -233 OFFCURVE",
"673 -262 OFFCURVE",
"633 -262 CURVE SMOOTH",
"619 -262 OFFCURVE",
"609 -258 OFFCURVE",
"607 -253 CURVE SMOOTH",
"606 -250 OFFCURVE",
"605 -249 OFFCURVE",
"602 -249 CURVE SMOOTH",
"599 -249 OFFCURVE",
"596 -252 OFFCURVE",
"596 -257 CURVE SMOOTH",
"596 -268 OFFCURVE",
"612 -275 OFFCURVE",
"633 -275 CURVE SMOOTH",
"683 -275 OFFCURVE",
"721 -240 OFFCURVE",
"721 -190 CURVE SMOOTH",
"721 -135 OFFCURVE",
"676 -92 OFFCURVE",
"619 -92 CURVE SMOOTH",
"543 -92 OFFCURVE",
"486 -152 OFFCURVE",
"486 -229 CURVE SMOOTH",
"486 -309 OFFCURVE",
"551 -371 OFFCURVE",
"633 -371 CURVE SMOOTH"
);
},
{
closed = 1;
nodes = (
"179 204 OFFCURVE",
"130 228 OFFCURVE",
"88 276 CURVE",
"120 316 OFFCURVE",
"159 336 OFFCURVE",
"206 336 CURVE SMOOTH",
"270 336 OFFCURVE",
"320 293 OFFCURVE",
"336 231 CURVE",
"303 213 OFFCURVE",
"270 204 OFFCURVE",
"235 204 CURVE SMOOTH"
);
},
{
closed = 1;
nodes = (
"128 -48 OFFCURVE",
"48 34 OFFCURVE",
"48 157 CURVE SMOOTH",
"48 193 OFFCURVE",
"57 226 OFFCURVE",
"75 256 CURVE",
"118 211 OFFCURVE",
"174 188 OFFCURVE",
"235 188 CURVE SMOOTH",
"278 188 OFFCURVE",
"310 196 OFFCURVE",
"340 212 CURVE",
"341 207 OFFCURVE",
"342 199 OFFCURVE",
"342 188 CURVE SMOOTH",
"342 131 OFFCURVE",
"302 83 OFFCURVE",
"246 83 CURVE SMOOTH",
"237 83 OFFCURVE",
"230 84 OFFCURVE",
"227 84 CURVE SMOOTH",
"222 84 OFFCURVE",
"221 82 OFFCURVE",
"221 78 CURVE SMOOTH",
"221 72 OFFCURVE",
"236 70 OFFCURVE",
"253 70 CURVE SMOOTH",
"284 70 OFFCURVE",
"310 83 OFFCURVE",
"330 109 CURVE SMOOTH",
"349 133 OFFCURVE",
"358 161 OFFCURVE",
"358 194 CURVE SMOOTH",
"358 200 OFFCURVE",
"357 209 OFFCURVE",
"356 221 CURVE",
"423 265 OFFCURVE",
"457 328 OFFCURVE",
"457 409 CURVE SMOOTH",
"457 504 OFFCURVE",
"394 564 OFFCURVE",
"299 564 CURVE SMOOTH",
"230 564 OFFCURVE",
"175 517 OFFCURVE",
"175 448 CURVE SMOOTH",
"175 416 OFFCURVE",
"187 393 OFFCURVE",
"212 378 CURVE SMOOTH",
"218 375 OFFCURVE",
"223 373 OFFCURVE",
"226 373 CURVE",
"229 374 OFFCURVE",
"231 375 OFFCURVE",
"231 377 CURVE SMOOTH",
"231 380 OFFCURVE",
"228 382 OFFCURVE",
"222 382 CURVE",
"199 395 OFFCURVE",
"188 416 OFFCURVE",
"188 443 CURVE SMOOTH",
"188 504 OFFCURVE",
"242 546 OFFCURVE",
"305 546 CURVE SMOOTH",
"385 546 OFFCURVE",
"441 482 OFFCURVE",
"441 401 CURVE SMOOTH",
"441 334 OFFCURVE",
"411 280 OFFCURVE",
"352 239 CURVE",
"331 308 OFFCURVE",
"272 350 OFFCURVE",
"199 350 CURVE SMOOTH",
"149 350 OFFCURVE",
"107 332 OFFCURVE",
"74 295 CURVE",
"52 328 OFFCURVE",
"41 366 OFFCURVE",
"41 408 CURVE SMOOTH",
"41 574 OFFCURVE",
"176 661 OFFCURVE",
"361 661 CURVE SMOOTH",
"436 661 OFFCURVE",
"518 637 OFFCURVE",
"623 609 CURVE",
"602 593 OFFCURVE",
"586 564 OFFCURVE",
"575 524 CURVE SMOOTH",
"537 392 OFFCURVE",
"534 209 OFFCURVE",
"466 95 CURVE SMOOTH",
"407 -4 OFFCURVE",
"335 -48 OFFCURVE",
"251 -48 CURVE SMOOTH"
);
},
{
closed = 1;
nodes = (
"704 597 OFFCURVE",
"690 601 OFFCURVE",
"663 608 CURVE",
"674 625 OFFCURVE",
"691 633 OFFCURVE",
"714 633 CURVE SMOOTH",
"730 633 OFFCURVE",
"745 627 OFFCURVE",
"745 614 CURVE SMOOTH",
"745 603 OFFCURVE",
"731 597 OFFCURVE",
"714 597 CURVE SMOOTH"
);
}
);
width = 976;
}
);
unicode = 014A;
},
{
glyphname = O;
lastChange = "2022-03-02 21:18:25 +0000";
layers = (
{
layerId = "423D2297-FAE2-4393-80D6-0A1E9777D337";
paths = (
{
closed = 1;
nodes = (
"500 -38 OFFCURVE",
"618 111 OFFCURVE",
"618 321 CURVE SMOOTH",
"618 415 OFFCURVE",
"587 488 OFFCURVE",
"525 540 CURVE",
"525 579 OFFCURVE",
"509 608 OFFCURVE",
"476 629 CURVE SMOOTH",
"448 644 OFFCURVE",
"413 652 OFFCURVE",
"370 652 CURVE SMOOTH",
"249 652 OFFCURVE",
"158 606 OFFCURVE",
"95 513 CURVE",
"60 543 OFFCURVE",
"43 577 OFFCURVE",
"43 612 CURVE SMOOTH",
"44 665 OFFCURVE",
"79 695 OFFCURVE",
"132 695 CURVE SMOOTH",
"160 695 OFFCURVE",
"186 684 OFFCURVE",
"210 666 CURVE",
"211 666 OFFCURVE",
"217 665 OFFCURVE",
"217 668 CURVE SMOOTH",
"217 670 OFFCURVE",
"215 673 OFFCURVE",
"212 676 CURVE SMOOTH",
"192 696 OFFCURVE",
"164 705 OFFCURVE",
"131 705 CURVE SMOOTH",
"68 705 OFFCURVE",
"22 671 OFFCURVE",
"22 610 CURVE SMOOTH",
"22 571 OFFCURVE",
"44 533 OFFCURVE",
"86 498 CURVE",
"48 435 OFFCURVE",
"28 360 OFFCURVE",
"28 276 CURVE SMOOTH",
"28 98 OFFCURVE",
"129 -38 OFFCURVE",
"310 -38 CURVE SMOOTH"
);
},
{
closed = 1;
nodes = (
"169 -22 OFFCURVE",
"87 129 OFFCURVE",
"87 286 CURVE SMOOTH",
"87 352 OFFCURVE",
"100 413 OFFCURVE",
"128 468 CURVE",
"180 435 OFFCURVE",
"257 417 OFFCURVE",
"323 417 CURVE SMOOTH",
"406 417 OFFCURVE",
"481 445 OFFCURVE",
"513 509 CURVE",
"550 462 OFFCURVE",
"568 400 OFFCURVE",
"568 323 CURVE SMOOTH",
"568 143 OFFCURVE",
"473 -22 OFFCURVE",
"315 -22 CURVE SMOOTH"
);
},
{
closed = 1;
nodes = (
"253 435 OFFCURVE",
"190 454 OFFCURVE",
"136 484 CURVE",
"159 528 OFFCURVE",
"192 566 OFFCURVE",
"231 594 CURVE SMOOTH",
"275 624 OFFCURVE",
"321 640 OFFCURVE",
"369 640 CURVE SMOOTH",
"447 640 OFFCURVE",
"491 612 OFFCURVE",
"502 556 CURVE",
"472 579 OFFCURVE",
"443 584 OFFCURVE",
"414 584 CURVE SMOOTH",
"388 584 OFFCURVE",
"335 572 OFFCURVE",
"335 545 CURVE SMOOTH",
"335 540 OFFCURVE",
"337 538 OFFCURVE",
"340 538 CURVE",
"360 555 OFFCURVE",
"381 567 OFFCURVE",
"413 567 CURVE SMOOTH",
"445 567 OFFCURVE",
"475 553 OFFCURVE",
"501 525 CURVE",
"483 463 OFFCURVE",
"399 435 OFFCURVE",
"317 435 CURVE SMOOTH"
);
}
);
userData = {
assembly = "NPUSHB[ ]	/* 40 values pushed */\0121 79 79 64 80 0 69 67 65 61 55 50 44 36 28 24 22 71 63 57 48 42 36 26 20 12 10 8 0 38 7 30 75 7 4 16 4 1 12 70 \012SROUND[ ]	/* SuperRound */\012MDAP[1]	/* MoveDirectAbsPt */\012SHZ[1]	/* ShiftZoneByLastPoint */\012RTG[ ]	/* RoundToGrid */\012SVTCA[0]	/* SetFreedomAndProjectionVectorToAxis */\012MDAP[1]	/* MoveDirectAbsPt */\012MDAP[1]	/* MoveDirectAbsPt */\012SRP0[ ]	/* SetRefPoint0 */\012MIRP[11101]	/* MoveIndirectRelPt */\012MDAP[1]	/* MoveDirectAbsPt */\012MIRP[11101]	/* MoveIndirectRelPt */\012SVTCA[1]	/* SetFreedomAndProjectionVectorToAxis */\012MDAP[0]	/* MoveDirectAbsPt */\012MDAP[0]	/* MoveDirectAbsPt */\012MDAP[0]	/* MoveDirectAbsPt */\012MDAP[0]	/* MoveDirectAbsPt */\012MDAP[0]	/* MoveDirectAbsPt */\012MDAP[0]	/* MoveDirectAbsPt */\012MDAP[0]	/* MoveDirectAbsPt */\012MDAP[0]	/* MoveDirectAbsPt */\012MDAP[0]	/* MoveDirectAbsPt */\012MDAP[0]	/* MoveDirectAbsPt */\012MDAP[0]	/* MoveDirectAbsPt */\012MDAP[0]	/* MoveDirectAbsPt */\012SVTCA[0]	/* SetFreedomAndProjectionVectorToAxis */\012MDAP[0]	/* MoveDirectAbsPt */\012MDAP[0]	/* MoveDirectAbsPt */\012MDAP[0]	/* MoveDirectAbsPt */\012MDAP[0]	/* MoveDirectAbsPt */\012MDAP[0]	/* MoveDirectAbsPt */\012MDAP[0]	/* MoveDirectAbsPt */\012MDAP[0]	/* MoveDirectAbsPt */\012MDAP[0]	/* MoveDirectAbsPt */\012MDAP[0]	/* MoveDirectAbsPt */\012MDAP[0]	/* MoveDirectAbsPt */\012MDAP[0]	/* MoveDirectAbsPt */\012IUP[1]	/* InterpolateUntPts */\012IUP[0]	/* InterpolateUntPts */\012SVTCA[1]	/* SetFreedomAndProjectionVectorToAxis */\012MD[0]	/* MeasureDistance */\012ROUND[00]	/* Round */\012PUSHW[ ]	/* 2 values pushed */\01212 79 \012MD[0]	/* MeasureDistance */\012ROUND[00]	/* Round */\012SUB[ ]	/* Subtract */\012PUSHB[ ]	/* 1 value pushed */\01264 \012GT[ ]	/* GreaterThan */\012IF[ ]	/* If */\012SHPIX[ ]	/* ShiftZoneByPixel */\012SRP1[ ]	/* SetRefPoint1 */\012SHZ[1]	/* ShiftZoneByLastPoint */\012PUSHW[ ]	/* 2 values pushed */\01279 -64 \012SHPIX[ ]	/* ShiftZoneByPixel */\012EIF[ ]	/* EndIf */";
};
width = 659;
}
);
note = O;
unicode = 004F;
},
{
glyphname = OE;
lastChange = "2022-03-02 21:18:25 +0000";
layers = (
{
background = {
paths = (
{
closed = 1;
nodes = (
"324 -43 OFFCURVE",
"362.333 -34.333 OFFCURVE",
"399 -17 CURVE SMOOTH",
"445 5 OFFCURVE",
"481 38 OFFCURVE",
"507 82 CURVE",
"529 41.333 OFFCURVE",
"564.333 10 OFFCURVE",
"613 -12 CURVE SMOOTH",
"657 -32 OFFCURVE",
"706.667 -42 OFFCURVE",
"762 -42 CURVE",
"762 -42 LINE",
"830.667 -42 OFFCURVE",
"889 -24.333 OFFCURVE",
"937 11 CURVE SMOOTH",
"989.667 49.667 OFFCURVE",
"1016 102 OFFCURVE",
"1016 168 CURVE SMOOTH",
"1016 249.333 OFFCURVE",
"962.667 306 OFFCURVE",
"880 306 CURVE SMOOTH",
"841.333 306 OFFCURVE",
"805 280.333 OFFCURVE",
"805 243 CURVE SMOOTH",
"805 221.667 OFFCURVE",
"810 211 OFFCURVE",
"820 211 CURVE SMOOTH",
"825.333 211 OFFCURVE",
"828 213 OFFCURVE",
"828 217 CURVE SMOOTH",
"828 217.667 OFFCURVE",
"827.667 218 OFFCURVE",
"827 218 CURVE SMOOTH",
"821 218 OFFCURVE",
"818 224.333 OFFCURVE",
"818 237 CURVE SMOOTH",
"818 253.667 OFFCURVE",
"824.667 267 OFFCURVE",
"838 277 CURVE SMOOTH",
"850 285 OFFCURVE",
"864.667 289 OFFCURVE",
"882 289 CURVE SMOOTH",
"944.667 289 OFFCURVE",
"983 238 OFFCURVE",
"983 174 CURVE SMOOTH",
"983 110.667 OFFCURVE",
"959.667 60.667 OFFCURVE",
"913 24 CURVE SMOOTH",
"869.667 -10 OFFCURVE",
"815.333 -27 OFFCURVE",
"750 -27 CURVE SMOOTH",
"684 -27 OFFCURVE",
"631.333 -4.333 OFFCURVE",
"592 41 CURVE SMOOTH",
"556.667 82.333 OFFCURVE",
"539 132.667 OFFCURVE",
"539 192 CURVE SMOOTH",
"539 237.333 OFFCURVE",
"550 278 OFFCURVE",
"572 314 CURVE SMOOTH",
"596 353.333 OFFCURVE",
"629.667 380.667 OFFCURVE",
"673 396 CURVE",
"704.333 374 OFFCURVE",
"740.333 363 OFFCURVE",
"781 363 CURVE SMOOTH",
"822.333 363 OFFCURVE",
"843 372 OFFCURVE",
"843 390 CURVE SMOOTH",
"843 412 OFFCURVE",
"815 423 OFFCURVE",
"759 423 CURVE SMOOTH",
"735.667 423 OFFCURVE",
"714.333 420.667 OFFCURVE",
"695 416 CURVE",
"677.667 438 OFFCURVE",
"669 465 OFFCURVE",
"669 497 CURVE SMOOTH",
"669 575.667 OFFCURVE",
"716.333 629 OFFCURVE",
"795 629 CURVE SMOOTH",
"847 629 OFFCURVE",
"894 595 OFFCURVE",
"894 543 CURVE SMOOTH",
"894 515 OFFCURVE",
"875 489 OFFCURVE",
"847 489 CURVE SMOOTH",
"827.175 489 OFFCURVE",
"816.34 530 OFFCURVE",
"807 530 CURVE SMOOTH",
"803 530 OFFCURVE",
"801 526.333 OFFCURVE",
"801 519 CURVE SMOOTH",
"801 489 OFFCURVE",
"818.333 474 OFFCURVE",
"853 474 CURVE SMOOTH",
"887.667 474 OFFCURVE",
"918 509 OFFCURVE",
"918 545 CURVE SMOOTH",
"918 575 OFFCURVE",
"903.667 599.333 OFFCURVE",
"875 618 CURVE SMOOTH",
"850.333 634 OFFCURVE",
"822 642 OFFCURVE",
"790 642 CURVE SMOOTH",
"744.667 642 OFFCURVE",
"706 630.667 OFFCURVE",
"674 608 CURVE SMOOTH",
"638.667 582.667 OFFCURVE",
"621 548.333 OFFCURVE",
"621 505 CURVE SMOOTH",
"621 465.667 OFFCURVE",
"634.333 432.667 OFFCURVE",
"661 406 CURVE",
"615.667 392 OFFCURVE",
"577 369 OFFCURVE",
"545 337 CURVE",
"531.667 394.333 OFFCURVE",
"505.333 439.333 OFFCURVE",
"466 472 CURVE",
"466 506.667 OFFCURVE",
"451 533 OFFCURVE",
"421 551 CURVE SMOOTH",
"396.333 565 OFFCURVE",
"365 572 OFFCURVE",
"327 572 CURVE SMOOTH",
"219 572 OFFCURVE",
"138 530.667 OFFCURVE",
"84 448 CURVE",
"52 475.333 OFFCURVE",
"36 504.667 OFFCURVE",
"36 536 CURVE SMOOTH",
"36 583.333 OFFCURVE",
"59.333 607 OFFCURVE",
"106 607 CURVE SMOOTH",
"126 607 OFFCURVE",
"152.667 598.333 OFFCURVE",
"186 581 CURVE",
"188.667 581 OFFCURVE",
"190 582.667 OFFCURVE",
"190 586 CURVE SMOOTH",
"190 588 OFFCURVE",
"189.333 589.667 OFFCURVE",
"188 591 CURVE SMOOTH",
"167.333 609.667 OFFCURVE",
"142.333 619 OFFCURVE",
"113 619 CURVE SMOOTH",
"85.667 619 OFFCURVE",
"63.333 612.333 OFFCURVE",
"46 599 CURVE SMOOTH",
"26.667 584.333 OFFCURVE",
"17 563.667 OFFCURVE",
"17 537 CURVE SMOOTH",
"17 501 OFFCURVE",
"36.667 467 OFFCURVE",
"76 435 CURVE",
"44 379.667 OFFCURVE",
"28 316 OFFCURVE",
"28 244 CURVE SMOOTH",
"28 162 OFFCURVE",
"49.667 94.667 OFFCURVE",
"93 42 CURVE SMOOTH",
"139.667 -14.667 OFFCURVE",
"203.333 -43 OFFCURVE",
"284 -43 CURVE SMOOTH"
);
},
{
closed = 1;
nodes = (
"222 -29 OFFCURVE",
"169.333 2.667 OFFCURVE",
"130 66 CURVE SMOOTH",
"96.667 120 OFFCURVE",
"80 182.333 OFFCURVE",
"80 253 CURVE SMOOTH",
"80 309 OFFCURVE",
"91.333 360.667 OFFCURVE",
"114 408 CURVE",
"162 380.667 OFFCURVE",
"214.667 367 OFFCURVE",
"272 367 CURVE SMOOTH",
"370 367 OFFCURVE",
"431.333 392.667 OFFCURVE",
"456 444 CURVE",
"456 444 LINE",
"487.333 406 OFFCURVE",
"503 352.333 OFFCURVE",
"503 283 CURVE SMOOTH",
"503 223.667 OFFCURVE",
"492 167.333 OFFCURVE",
"470 114 CURVE SMOOTH",
"446 58 OFFCURVE",
"415.667 19 OFFCURVE",
"379 -3 CURVE SMOOTH",
"349.667 -20.333 OFFCURVE",
"319.333 -29 OFFCURVE",
"288 -29 CURVE SMOOTH"
);
},
{
closed = 1;
nodes = (
"220 377 OFFCURVE",
"168 391.333 OFFCURVE",
"120 420 CURVE",
"141.333 461.333 OFFCURVE",
"169.333 494.667 OFFCURVE",
"204 520 CURVE SMOOTH",
"242 547.333 OFFCURVE",
"282.667 561 OFFCURVE",
"326 561 CURVE SMOOTH",
"394.667 561 OFFCURVE",
"434.667 536 OFFCURVE",
"446 486 CURVE",
"446 486 LINE",
"419.333 502.667 OFFCURVE",
"393 511 OFFCURVE",
"367 511 CURVE SMOOTH",
"353.667 511 OFFCURVE",
"339.667 508.333 OFFCURVE",
"325 503 CURVE SMOOTH",
"306.333 495.667 OFFCURVE",
"297 486.667 OFFCURVE",
"297 476 CURVE SMOOTH",
"297 472 OFFCURVE",
"298.667 470 OFFCURVE",
"302 470 CURVE SMOOTH",
"303.333 470 OFFCURVE",
"307.667 472.833 OFFCURVE",
"315 478.5 CURVE SMOOTH",
"322.333 484.167 OFFCURVE",
"327.333 487.667 OFFCURVE",
"330 489 CURVE SMOOTH",
"340.667 493.667 OFFCURVE",
"352.667 496 OFFCURVE",
"366 496 CURVE SMOOTH",
"395.333 496 OFFCURVE",
"421.667 483.667 OFFCURVE",
"445 459 CURVE",
"437.667 433 OFFCURVE",
"413.667 412 OFFCURVE",
"373 396 CURVE SMOOTH",
"340.333 383.333 OFFCURVE",
"308 377 OFFCURVE",
"276 377 CURVE SMOOTH"
);
},
{
closed = 1;
nodes = (
"704 404 LINE",
"704 405 LINE",
"705 405 LINE",
"704 404 LINE"
);
}
);
};
layerId = "423D2297-FAE2-4393-80D6-0A1E9777D337";
paths = (
{
closed = 1;
nodes = (
"416 -38 OFFCURVE",
"499 8 OFFCURVE",
"552 84 CURVE",
"529 134 LINE",
"487 42 OFFCURVE",
"413 -22 OFFCURVE",
"315 -22 CURVE SMOOTH",
"169 -22 OFFCURVE",
"87 129 OFFCURVE",
"87 286 CURVE SMOOTH",
"87 352 OFFCURVE",
"100 413 OFFCURVE",
"128 468 CURVE",
"180 435 OFFCURVE",
"257 417 OFFCURVE",
"323 417 CURVE SMOOTH",
"406 417 OFFCURVE",
"481 445 OFFCURVE",
"513 509 CURVE",
"549 464 OFFCURVE",
"567 404 OFFCURVE",
"568 331 CURVE",
"615 373 LINE",
"605 442 OFFCURVE",
"575 498 OFFCURVE",
"525 540 CURVE",
"525 579 OFFCURVE",
"509 608 OFFCURVE",
"476 629 CURVE SMOOTH",
"448 644 OFFCURVE",
"413 652 OFFCURVE",
"370 652 CURVE SMOOTH",
"249 652 OFFCURVE",
"158 606 OFFCURVE",
"95 513 CURVE",
"60 543 OFFCURVE",
"43 577 OFFCURVE",
"43 612 CURVE SMOOTH",
"44 665 OFFCURVE",
"79 695 OFFCURVE",
"132 695 CURVE SMOOTH",
"160 695 OFFCURVE",
"186 684 OFFCURVE",
"210 666 CURVE",
"211 666 OFFCURVE",
"217 665 OFFCURVE",
"217 668 CURVE SMOOTH",
"217 670 OFFCURVE",
"215 673 OFFCURVE",
"212 676 CURVE SMOOTH",
"192 696 OFFCURVE",
"164 705 OFFCURVE",
"131 705 CURVE SMOOTH",
"68 705 OFFCURVE",
"22 671 OFFCURVE",
"22 610 CURVE SMOOTH",
"22 571 OFFCURVE",
"44 533 OFFCURVE",
"86 498 CURVE",
"48 435 OFFCURVE",
"28 360 OFFCURVE",
"28 276 CURVE SMOOTH",
"28 98 OFFCURVE",
"129 -38 OFFCURVE",
"310 -38 CURVE SMOOTH"
);
},
{
closed = 1;
nodes = (
"253 435 OFFCURVE",
"190 454 OFFCURVE",
"136 484 CURVE",
"159 528 OFFCURVE",
"192 566 OFFCURVE",
"231 594 CURVE SMOOTH",
"275 624 OFFCURVE",
"321 640 OFFCURVE",
"369 640 CURVE SMOOTH",
"447 640 OFFCURVE",
"491 612 OFFCURVE",
"502 556 CURVE",
"472 579 OFFCURVE",
"443 584 OFFCURVE",
"414 584 CURVE SMOOTH",
"388 584 OFFCURVE",
"335 572 OFFCURVE",
"335 545 CURVE SMOOTH",
"335 540 OFFCURVE",
"337 538 OFFCURVE",
"340 538 CURVE",
"360 555 OFFCURVE",
"381 567 OFFCURVE",
"413 567 CURVE SMOOTH",
"445 567 OFFCURVE",
"475 553 OFFCURVE",
"501 525 CURVE",
"483 463 OFFCURVE",
"399 435 OFFCURVE",
"317 435 CURVE SMOOTH"
);
},
{
closed = 1;
nodes = (
"913 -37 OFFCURVE",
"1032 39 OFFCURVE",
"1032 173 CURVE SMOOTH",
"1032 254 OFFCURVE",
"980 311 OFFCURVE",
"897 311 CURVE SMOOTH",
"858 311 OFFCURVE",
"822 285 OFFCURVE",
"822 248 CURVE SMOOTH",
"822 227 OFFCURVE",
"831 218 OFFCURVE",
"841 218 CURVE SMOOTH",
"846 218 OFFCURVE",
"849 220 OFFCURVE",
"849 224 CURVE SMOOTH",
"849 225 OFFCURVE",
"849 225 OFFCURVE",
"848 225 CURVE SMOOTH",
"842 225 OFFCURVE",
"835 229 OFFCURVE",
"835 242 CURVE SMOOTH",
"835 273 OFFCURVE",
"860 294 OFFCURVE",
"899 294 CURVE SMOOTH",
"962 294 OFFCURVE",
"999 243 OFFCURVE",
"999 179 CURVE SMOOTH",
"999 52 OFFCURVE",
"897 -22 OFFCURVE",
"767 -22 CURVE SMOOTH",
"649 -22 OFFCURVE",
"553 61 OFFCURVE",
"553 175 CURVE SMOOTH",
"553 275 OFFCURVE",
"601 369 OFFCURVE",
"690 401 CURVE",
"721 379 OFFCURVE",
"752 364 OFFCURVE",
"793 364 CURVE SMOOTH",
"824 364 OFFCURVE",
"849 377 OFFCURVE",
"849 397 CURVE SMOOTH",
"849 417 OFFCURVE",
"828 430 OFFCURVE",
"782 430 CURVE SMOOTH",
"759 430 OFFCURVE",
"731 426 OFFCURVE",
"712 421 CURVE",
"695 442 OFFCURVE",
"686 469 OFFCURVE",
"686 502 CURVE SMOOTH",
"686 581 OFFCURVE",
"734 634 OFFCURVE",
"811 634 CURVE SMOOTH",
"863 634 OFFCURVE",
"911 600 OFFCURVE",
"911 548 CURVE SMOOTH",
"911 520 OFFCURVE",
"891 494 OFFCURVE",
"866 494 CURVE SMOOTH",
"850 494 OFFCURVE",
"836 509 OFFCURVE",
"831 522 CURVE SMOOTH",
"828 529 OFFCURVE",
"827 532 OFFCURVE",
"823 532 CURVE SMOOTH",
"820 532 OFFCURVE",
"818 531 OFFCURVE",
"818 524 CURVE SMOOTH",
"818 505 OFFCURVE",
"835 481 OFFCURVE",
"865 481 CURVE SMOOTH",
"905 481 OFFCURVE",
"935 514 OFFCURVE",
"935 550 CURVE SMOOTH",
"935 611 OFFCURVE",
"871 647 OFFCURVE",
"806 647 CURVE SMOOTH",
"717 647 OFFCURVE",
"638 599 OFFCURVE",
"638 510 CURVE SMOOTH",
"638 471 OFFCURVE",
"651 438 OFFCURVE",
"678 411 CURVE",
"571 377 OFFCURVE",
"500 297 OFFCURVE",
"500 189 CURVE SMOOTH",
"500 42 OFFCURVE",
"624 -37 OFFCURVE",
"779 -37 CURVE SMOOTH"
);
},
{
closed = 1;
nodes = (
"764 377 OFFCURVE",
"742 389 OFFCURVE",
"721 409 CURVE",
"742 414 OFFCURVE",
"762 417 OFFCURVE",
"782 417 CURVE SMOOTH",
"811 417 OFFCURVE",
"831 410 OFFCURVE",
"831 396 CURVE SMOOTH",
"831 385 OFFCURVE",
"814 377 OFFCURVE",
"793 377 CURVE SMOOTH"
);
}
);
userData = {
assembly = "NPUSHB[ ]	/* 75 values pushed */\0121 167 167 64 168 160 166 165 164 157 152 142 127 125 121 119 114 108 104 100 85 77 73 71 65 49 31 29 27 25 19 14 8 0 166 165 164 160 154 150 146 139 131 123 117 111 102 97 89 87 75 69 61 59 57 43 33 21 12 6 0 2 7 79 135 37 7 53 45 53 93 3 1 61 70 \012SROUND[ ]	/* SuperRound */\012MDAP[1]	/* MoveDirectAbsPt */\012SHZ[1]	/* ShiftZoneByLastPoint */\012RTG[ ]	/* RoundToGrid */\012SVTCA[0]	/* SetFreedomAndProjectionVectorToAxis */\012MIAP[1]	/* MoveIndirectAbsPt */\012MDAP[1]	/* MoveDirectAbsPt */\012ALIGNRP[ ]	/* AlignRelativePt */\012SRP0[ ]	/* SetRefPoint0 */\012MIRP[11101]	/* MoveIndirectRelPt */\012ALIGNRP[ ]	/* AlignRelativePt */\012MDAP[1]	/* MoveDirectAbsPt */\012MIRP[11101]	/* MoveIndirectRelPt */\012SVTCA[1]	/* SetFreedomAndProjectionVectorToAxis */\012MDAP[0]	/* MoveDirectAbsPt */\012MDAP[0]	/* MoveDirectAbsPt */\012MDAP[0]	/* MoveDirectAbsPt */\012MDAP[0]	/* MoveDirectAbsPt */\012MDAP[0]	/* MoveDirectAbsPt */\012MDAP[0]	/* MoveDirectAbsPt */\012MDAP[0]	/* MoveDirectAbsPt */\012MDAP[0]	/* MoveDirectAbsPt */\012MDAP[0]	/* MoveDirectAbsPt */\012MDAP[0]	/* MoveDirectAbsPt */\012MDAP[0]	/* MoveDirectAbsPt */\012MDAP[0]	/* MoveDirectAbsPt */\012MDAP[0]	/* MoveDirectAbsPt */\012MDAP[0]	/* MoveDirectAbsPt */\012MDAP[0]	/* MoveDirectAbsPt */\012MDAP[0]	/* MoveDirectAbsPt */\012MDAP[0]	/* MoveDirectAbsPt */\012MDAP[0]	/* MoveDirectAbsPt */\012MDAP[0]	/* MoveDirectAbsPt */\012MDAP[0]	/* MoveDirectAbsPt */\012MDAP[0]	/* MoveDirectAbsPt */\012MDAP[0]	/* MoveDirectAbsPt */\012MDAP[0]	/* MoveDirectAbsPt */\012MDAP[0]	/* MoveDirectAbsPt */\012MDAP[0]	/* MoveDirectAbsPt */\012MDAP[0]	/* MoveDirectAbsPt */\012MDAP[0]	/* MoveDirectAbsPt */\012SVTCA[0]	/* SetFreedomAndProjectionVectorToAxis */\012MDAP[0]	/* MoveDirectAbsPt */\012MDAP[0]	/* MoveDirectAbsPt */\012MDAP[0]	/* MoveDirectAbsPt */\012MDAP[0]	/* MoveDirectAbsPt */\012MDAP[0]	/* MoveDirectAbsPt */\012MDAP[0]	/* MoveDirectAbsPt */\012MDAP[0]	/* MoveDirectAbsPt */\012MDAP[0]	/* MoveDirectAbsPt */\012MDAP[0]	/* MoveDirectAbsPt */\012MDAP[0]	/* MoveDirectAbsPt */\012MDAP[0]	/* MoveDirectAbsPt */\012MDAP[0]	/* MoveDirectAbsPt */\012MDAP[0]	/* MoveDirectAbsPt */\012MDAP[0]	/* MoveDirectAbsPt */\012MDAP[0]	/* MoveDirectAbsPt */\012MDAP[0]	/* MoveDirectAbsPt */\012MDAP[0]	/* MoveDirectAbsPt */\012MDAP[0]	/* MoveDirectAbsPt */\012MDAP[0]	/* MoveDirectAbsPt */\012MDAP[0]	/* MoveDirectAbsPt */\012MDAP[0]	/* MoveDirectAbsPt */\012MDAP[0]	/* MoveDirectAbsPt */\012MDAP[0]	/* MoveDirectAbsPt */\012MDAP[0]	/* MoveDirectAbsPt */\012MDAP[0]	/* MoveDirectAbsPt */\012MDAP[0]	/* MoveDirectAbsPt */\012MDAP[0]	/* MoveDirectAbsPt */\012MDAP[0]	/* MoveDirectAbsPt */\012IUP[1]	/* InterpolateUntPts */\012IUP[0]	/* InterpolateUntPts */\012SVTCA[1]	/* SetFreedomAndProjectionVectorToAxis */\012MD[0]	/* MeasureDistance */\012ROUND[00]	/* Round */\012PUSHW[ ]	/* 2 values pushed */\01261 167 \012MD[0]	/* MeasureDistance */\012ROUND[00]	/* Round */\012SUB[ ]	/* Subtract */\012PUSHB[ ]	/* 1 value pushed */\01264 \012GT[ ]	/* GreaterThan */\012IF[ ]	/* If */\012SHPIX[ ]	/* ShiftZoneByPixel */\012SRP1[ ]	/* SetRefPoint1 */\012SHZ[1]	/* ShiftZoneByLastPoint */\012PUSHW[ ]	/* 2 values pushed */\012167 -64 \012SHPIX[ ]	/* ShiftZoneByPixel */\012EIF[ ]	/* EndIf */";
};
width = 1046;
}
);
note = OE;
unicode = 0152;
},
{
glyphname = P;
lastChange = "2022-03-02 21:18:25 +0000";
layers = (
{
layerId = "423D2297-FAE2-4393-80D6-0A1E9777D337";
paths = (
{
closed = 1;
nodes = (
"157 -36 OFFCURVE",
"168 -34 OFFCURVE",
"178 -30 CURVE SMOOTH",
"238 -6 OFFCURVE",
"283 33 OFFCURVE",
"312 90 CURVE SMOOTH",
"334 133 OFFCURVE",
"349 191 OFFCURVE",
"359 267 CURVE",
"472 269 OFFCURVE",
"605 341 OFFCURVE",
"605 452 CURVE SMOOTH",
"605 531 OFFCURVE",
"555 589 OFFCURVE",
"453 626 CURVE",
"472 649 OFFCURVE",
"494 661 OFFCURVE",
"522 661 CURVE SMOOTH",
"528 661 OFFCURVE",
"533 663 OFFCURVE",
"533 666 CURVE SMOOTH",
"533 670 OFFCURVE",
"526 672 OFFCURVE",
"517 672 CURVE SMOOTH",
"487 672 OFFCURVE",
"459 658 OFFCURVE",
"432 631 CURVE",
"395 644 OFFCURVE",
"352 650 OFFCURVE",
"305 650 CURVE SMOOTH",
"138 650 OFFCURVE",
"-2 552 OFFCURVE",
"-2 385 CURVE SMOOTH",
"-2 301 OFFCURVE",
"46 221 OFFCURVE",
"133 221 CURVE SMOOTH",
"224 221 OFFCURVE",
"288 283 OFFCURVE",
"288 374 CURVE SMOOTH",
"288 432 OFFCURVE",
"258 495 OFFCURVE",
"197 495 CURVE SMOOTH",
"154 495 OFFCURVE",
"113 456 OFFCURVE",
"113 414 CURVE SMOOTH",
"113 393 OFFCURVE",
"131 374 OFFCURVE",
"149 374 CURVE SMOOTH",
"161 374 OFFCURVE",
"166 378 OFFCURVE",
"166 383 CURVE SMOOTH",
"166 386 OFFCURVE",
"164 387 OFFCURVE",
"161 387 CURVE",
"158 385 OFFCURVE",
"154 384 OFFCURVE",
"151 384 CURVE SMOOTH",
"137 385 OFFCURVE",
"130 395 OFFCURVE",
"130 415 CURVE SMOOTH",
"130 452 OFFCURVE",
"158 482 OFFCURVE",
"195 482 CURVE SMOOTH",
"244 482 OFFCURVE",
"264 434 OFFCURVE",
"264 382 CURVE SMOOTH",
"264 304 OFFCURVE",
"217 238 OFFCURVE",
"147 238 CURVE SMOOTH",
"77 238 OFFCURVE",
"36 310 OFFCURVE",
"36 386 CURVE SMOOTH",
"36 531 OFFCURVE",
"152 638 OFFCURVE",
"308 638 CURVE SMOOTH",
"352 638 OFFCURVE",
"390 631 OFFCURVE",
"420 620 CURVE",
"373 566 OFFCURVE",
"340 474 OFFCURVE",
"318 343 CURVE SMOOTH",
"299 226 OFFCURVE",
"284 154 OFFCURVE",
"275 125 CURVE SMOOTH",
"244 28 OFFCURVE",
"198 -20 OFFCURVE",
"139 -20 CURVE SMOOTH",
"103 -20 OFFCURVE",
"84 -6 OFFCURVE",
"84 22 CURVE SMOOTH",
"84 25 OFFCURVE",
"84 30 OFFCURVE",
"85 37 CURVE SMOOTH",
"86 43 OFFCURVE",
"86 47 OFFCURVE",
"86 50 CURVE SMOOTH",
"86 57 OFFCURVE",
"84 60 OFFCURVE",
"80 60 CURVE SMOOTH",
"66 60 OFFCURVE",
"60 49 OFFCURVE",
"60 26 CURVE SMOOTH",
"60 -15 OFFCURVE",
"88 -36 OFFCURVE",
"145 -36 CURVE SMOOTH"
);
},
{
closed = 1;
nodes = (
"374 441 OFFCURVE",
"402 552 OFFCURVE",
"442 612 CURVE",
"522 579 OFFCURVE",
"563 526 OFFCURVE",
"563 453 CURVE SMOOTH",
"563 341 OFFCURVE",
"475 285 OFFCURVE",
"359 279 CURVE"
);
}
);
userData = {
assembly = "NPUSHB[ ]	/* 48 values pushed */\0121 101 101 64 102 0 95 93 91 90 82 80 72 65 59 48 39 29 21 14 95 91 90 86 76 69 62 57 51 44 35 27 19 16 12 99 5 0 10 84 3 55 2 53 2 1 76 70 \012SROUND[ ]	/* SuperRound */\012MDAP[1]	/* MoveDirectAbsPt */\012SHZ[1]	/* ShiftZoneByLastPoint */\012RTG[ ]	/* RoundToGrid */\012SVTCA[0]	/* SetFreedomAndProjectionVectorToAxis */\012MIAP[1]	/* MoveIndirectAbsPt */\012MIAP[1]	/* MoveIndirectAbsPt */\012MIAP[1]	/* MoveIndirectAbsPt */\012MDAP[1]	/* MoveDirectAbsPt */\012SVTCA[1]	/* SetFreedomAndProjectionVectorToAxis */\012MDAP[1]	/* MoveDirectAbsPt */\012MIRP[11101]	/* MoveIndirectRelPt */\012MDAP[0]	/* MoveDirectAbsPt */\012MDAP[0]	/* MoveDirectAbsPt */\012MDAP[0]	/* MoveDirectAbsPt */\012MDAP[0]	/* MoveDirectAbsPt */\012MDAP[0]	/* MoveDirectAbsPt */\012MDAP[0]	/* MoveDirectAbsPt */\012MDAP[0]	/* MoveDirectAbsPt */\012MDAP[0]	/* MoveDirectAbsPt */\012MDAP[0]	/* MoveDirectAbsPt */\012MDAP[0]	/* MoveDirectAbsPt */\012MDAP[0]	/* MoveDirectAbsPt */\012MDAP[0]	/* MoveDirectAbsPt */\012MDAP[0]	/* MoveDirectAbsPt */\012MDAP[0]	/* MoveDirectAbsPt */\012MDAP[0]	/* MoveDirectAbsPt */\012SVTCA[0]	/* SetFreedomAndProjectionVectorToAxis */\012MDAP[0]	/* MoveDirectAbsPt */\012MDAP[0]	/* MoveDirectAbsPt */\012MDAP[0]	/* MoveDirectAbsPt */\012MDAP[0]	/* MoveDirectAbsPt */\012MDAP[0]	/* MoveDirectAbsPt */\012MDAP[0]	/* MoveDirectAbsPt */\012MDAP[0]	/* MoveDirectAbsPt */\012MDAP[0]	/* MoveDirectAbsPt */\012MDAP[0]	/* MoveDirectAbsPt */\012MDAP[0]	/* MoveDirectAbsPt */\012MDAP[0]	/* MoveDirectAbsPt */\012MDAP[0]	/* MoveDirectAbsPt */\012MDAP[0]	/* MoveDirectAbsPt */\012MDAP[0]	/* MoveDirectAbsPt */\012IUP[1]	/* InterpolateUntPts */\012IUP[0]	/* InterpolateUntPts */\012SVTCA[1]	/* SetFreedomAndProjectionVectorToAxis */\012MD[0]	/* MeasureDistance */\012ROUND[00]	/* Round */\012PUSHW[ ]	/* 2 values pushed */\01276 101 \012MD[0]	/* MeasureDistance */\012ROUND[00]	/* Round */\012SUB[ ]	/* Subtract */\012PUSHB[ ]	/* 1 value pushed */\01264 \012GT[ ]	/* GreaterThan */\012IF[ ]	/* If */\012SHPIX[ ]	/* ShiftZoneByPixel */\012SRP1[ ]	/* SetRefPoint1 */\012SHZ[1]	/* ShiftZoneByLastPoint */\012PUSHW[ ]	/* 2 values pushed */\012101 -64 \012SHPIX[ ]	/* ShiftZoneByPixel */\012EIF[ ]	/* EndIf */";
};
width = 567;
}
);
note = P;
unicode = 0050;
},
{
glyphname = Thorn;
lastChange = "2022-03-02 21:18:25 +0000";
layers = (
{
background = {
paths = (
{
closed = 1;
nodes = (
"369 197 OFFCURVE",
"359 348 OFFCURVE",
"387 471 CURVE SMOOTH",
"412 576 OFFCURVE",
"455 656 OFFCURVE",
"522 656 CURVE SMOOTH",
"528 656 OFFCURVE",
"533 658 OFFCURVE",
"533 661 CURVE SMOOTH",
"533 665 OFFCURVE",
"526 667 OFFCURVE",
"517 667 CURVE SMOOTH",
"407 667 OFFCURVE",
"346 503 OFFCURVE",
"318 338 CURVE SMOOTH",
"299 221 OFFCURVE",
"284 149 OFFCURVE",
"275 120 CURVE SMOOTH",
"244 23 OFFCURVE",
"198 -25 OFFCURVE",
"139 -25 CURVE SMOOTH",
"103 -25 OFFCURVE",
"84 -11 OFFCURVE",
"84 17 CURVE SMOOTH",
"84 20 OFFCURVE",
"84 25 OFFCURVE",
"85 32 CURVE SMOOTH",
"86 38 OFFCURVE",
"86 42 OFFCURVE",
"86 45 CURVE SMOOTH",
"86 52 OFFCURVE",
"84 55 OFFCURVE",
"80 55 CURVE SMOOTH",
"66 55 OFFCURVE",
"60 44 OFFCURVE",
"60 21 CURVE SMOOTH",
"60 -20 OFFCURVE",
"88 -41 OFFCURVE",
"145 -41 CURVE SMOOTH",
"157 -41 OFFCURVE",
"168 -39 OFFCURVE",
"178 -35 CURVE SMOOTH",
"238 -11 OFFCURVE",
"283 28 OFFCURVE",
"312 85 CURVE SMOOTH"
);
}
);
};
layerId = "423D2297-FAE2-4393-80D6-0A1E9777D337";
paths = (
{
closed = 1;
nodes = (
"157 -36 OFFCURVE",
"168 -34 OFFCURVE",
"178 -30 CURVE SMOOTH",
"238 -6 OFFCURVE",
"283 33 OFFCURVE",
"312 90 CURVE SMOOTH",
"369 202 OFFCURVE",
"363 365 OFFCURVE",
"391 510 CURVE SMOOTH",
"416 632 OFFCURVE",
"459 725 OFFCURVE",
"526 725 CURVE SMOOTH",
"532 725 OFFCURVE",
"537 727 OFFCURVE",
"537 730 CURVE SMOOTH",
"537 735 OFFCURVE",
"530 737 OFFCURVE",
"521 737 CURVE SMOOTH",
"411 737 OFFCURVE",
"350 547 OFFCURVE",
"322 355 CURVE SMOOTH",
"303 238 OFFCURVE",
"284 154 OFFCURVE",
"275 125 CURVE SMOOTH",
"244 28 OFFCURVE",
"198 -20 OFFCURVE",
"139 -20 CURVE SMOOTH",
"103 -20 OFFCURVE",
"84 -6 OFFCURVE",
"84 22 CURVE SMOOTH",
"84 25 OFFCURVE",
"84 30 OFFCURVE",
"85 37 CURVE SMOOTH",
"86 43 OFFCURVE",
"86 47 OFFCURVE",
"86 50 CURVE SMOOTH",
"86 57 OFFCURVE",
"84 60 OFFCURVE",
"80 60 CURVE SMOOTH",
"66 60 OFFCURVE",
"60 49 OFFCURVE",
"60 26 CURVE SMOOTH",
"60 -15 OFFCURVE",
"88 -36 OFFCURVE",
"145 -36 CURVE SMOOTH"
);
},
{
closed = 1;
nodes = (
"224 156 OFFCURVE",
"288 218 OFFCURVE",
"288 309 CURVE SMOOTH",
"288 322 OFFCURVE",
"283 328 OFFCURVE",
"279 328 CURVE SMOOTH",
"276 328 OFFCURVE",
"273 324 OFFCURVE",
"273 317 CURVE SMOOTH",
"273 239 OFFCURVE",
"217 173 OFFCURVE",
"147 173 CURVE SMOOTH",
"77 173 OFFCURVE",
"36 245 OFFCURVE",
"36 321 CURVE SMOOTH",
"36 466 OFFCURVE",
"152 573 OFFCURVE",
"308 573 CURVE SMOOTH",
"494 573 OFFCURVE",
"568 482 OFFCURVE",
"568 395 CURVE SMOOTH",
"568 317 OFFCURVE",
"509 222 OFFCURVE",
"344 222 CURVE",
"341 210 LINE",
"520 213 OFFCURVE",
"608 295 OFFCURVE",
"608 398 CURVE SMOOTH",
"608 502 OFFCURVE",
"506 585 OFFCURVE",
"305 585 CURVE SMOOTH",
"138 585 OFFCURVE",
"-2 487 OFFCURVE",
"-2 320 CURVE SMOOTH",
"-2 236 OFFCURVE",
"46 156 OFFCURVE",
"133 156 CURVE SMOOTH"
);
}
);
width = 607;
}
);
unicode = 00DE;
},
{
glyphname = Q;
lastChange = "2022-03-02 21:18:25 +0000";
layers = (
{
layerId = "423D2297-FAE2-4393-80D6-0A1E9777D337";
paths = (
{
closed = 1;
nodes = (
"630 -91 OFFCURVE",
"670 -75 OFFCURVE",
"694 -43 CURVE",
"694 -40 OFFCURVE",
"692 -34 OFFCURVE",
"688 -34 CURVE",
"661 -65 OFFCURVE",
"624 -78 OFFCURVE",
"590 -78 CURVE SMOOTH",
"513 -78 OFFCURVE",
"461 -40 OFFCURVE",
"431 -15 CURVE",
"549 35 OFFCURVE",
"618 159 OFFCURVE",
"618 321 CURVE SMOOTH",
"618 415 OFFCURVE",
"587 488 OFFCURVE",
"525 540 CURVE",
"525 579 OFFCURVE",
"509 608 OFFCURVE",
"476 629 CURVE SMOOTH",
"448 644 OFFCURVE",
"413 652 OFFCURVE",
"370 652 CURVE SMOOTH",
"249 652 OFFCURVE",
"158 606 OFFCURVE",
"95 513 CURVE",
"60 543 OFFCURVE",
"43 577 OFFCURVE",
"43 612 CURVE SMOOTH",
"44 665 OFFCURVE",
"79 695 OFFCURVE",
"132 695 CURVE SMOOTH",
"160 695 OFFCURVE",
"186 684 OFFCURVE",
"210 666 CURVE",
"211 666 OFFCURVE",
"217 665 OFFCURVE",
"217 668 CURVE SMOOTH",
"217 670 OFFCURVE",
"215 673 OFFCURVE",
"212 676 CURVE SMOOTH",
"192 696 OFFCURVE",
"164 705 OFFCURVE",
"131 705 CURVE SMOOTH",
"68 705 OFFCURVE",
"22 671 OFFCURVE",
"22 610 CURVE SMOOTH",
"22 571 OFFCURVE",
"44 533 OFFCURVE",
"86 498 CURVE",
"48 435 OFFCURVE",
"28 360 OFFCURVE",
"28 276 CURVE SMOOTH",
"28 98 OFFCURVE",
"129 -38 OFFCURVE",
"310 -38 CURVE SMOOTH",
"349 -38 OFFCURVE",
"385 -32 OFFCURVE",
"418 -20 CURVE",
"461 -54 OFFCURVE",
"525 -91 OFFCURVE",
"592 -91 CURVE SMOOTH"
);
},
{
closed = 1;
nodes = (
"235 -22 OFFCURVE",
"174 24 OFFCURVE",
"135 91 CURVE",
"145 110 OFFCURVE",
"167 123 OFFCURVE",
"191 123 CURVE SMOOTH",
"245 123 OFFCURVE",
"302 79 OFFCURVE",
"400 -4 CURVE",
"374 -16 OFFCURVE",
"346 -22 OFFCURVE",
"315 -22 CURVE SMOOTH"
);
},
{
closed = 1;
nodes = (
"296 105 OFFCURVE",
"251 141 OFFCURVE",
"181 141 CURVE SMOOTH",
"154 141 OFFCURVE",
"134 135 OFFCURVE",
"120 122 CURVE",
"97 173 OFFCURVE",
"86 233 OFFCURVE",
"87 294 CURVE SMOOTH",
"88 357 OFFCURVE",
"101 415 OFFCURVE",
"128 468 CURVE",
"180 435 OFFCURVE",
"257 417 OFFCURVE",
"323 417 CURVE SMOOTH",
"406 417 OFFCURVE",
"481 445 OFFCURVE",
"513 509 CURVE",
"550 462 OFFCURVE",
"568 400 OFFCURVE",
"568 323 CURVE SMOOTH",
"568 185 OFFCURVE",
"511 53 OFFCURVE",
"412 1 CURVE"
);
},
{
closed = 1;
nodes = (
"253 435 OFFCURVE",
"190 454 OFFCURVE",
"136 484 CURVE",
"159 528 OFFCURVE",
"192 566 OFFCURVE",
"231 594 CURVE SMOOTH",
"275 624 OFFCURVE",
"321 640 OFFCURVE",
"369 640 CURVE SMOOTH",
"447 640 OFFCURVE",
"491 612 OFFCURVE",
"502 556 CURVE",
"472 579 OFFCURVE",
"443 584 OFFCURVE",
"414 584 CURVE SMOOTH",
"388 584 OFFCURVE",
"335 572 OFFCURVE",
"335 545 CURVE SMOOTH",
"335 540 OFFCURVE",
"337 538 OFFCURVE",
"340 538 CURVE",
"360 555 OFFCURVE",
"381 567 OFFCURVE",
"413 567 CURVE SMOOTH",
"445 567 OFFCURVE",
"475 553 OFFCURVE",
"501 525 CURVE",
"483 463 OFFCURVE",
"399 435 OFFCURVE",
"317 435 CURVE SMOOTH"
);
}
);
userData = {
assembly = "NPUSHB[ ]	/* 56 values pushed */\0121 111 111 64 112 46 109 104 96 92 90 85 83 81 77 71 66 60 52 44 41 28 24 22 4 107 98 90 89 87 79 73 64 58 52 46 39 36 26 20 12 10 8 54 7 30 16 0 39 38 1 2 1 1 12 70 \012SROUND[ ]	/* SuperRound */\012MDAP[1]	/* MoveDirectAbsPt */\012SHZ[1]	/* ShiftZoneByLastPoint */\012RTG[ ]	/* RoundToGrid */\012SVTCA[0]	/* SetFreedomAndProjectionVectorToAxis */\012MIAP[1]	/* MoveIndirectAbsPt */\012MIAP[1]	/* MoveIndirectAbsPt */\012ALIGNRP[ ]	/* AlignRelativePt */\012MDAP[1]	/* MoveDirectAbsPt */\012MDAP[1]	/* MoveDirectAbsPt */\012MDAP[1]	/* MoveDirectAbsPt */\012MIRP[11101]	/* MoveIndirectRelPt */\012SVTCA[1]	/* SetFreedomAndProjectionVectorToAxis */\012MDAP[0]	/* MoveDirectAbsPt */\012MDAP[0]	/* MoveDirectAbsPt */\012MDAP[0]	/* MoveDirectAbsPt */\012MDAP[0]	/* MoveDirectAbsPt */\012MDAP[0]	/* MoveDirectAbsPt */\012MDAP[0]	/* MoveDirectAbsPt */\012MDAP[0]	/* MoveDirectAbsPt */\012MDAP[0]	/* MoveDirectAbsPt */\012MDAP[0]	/* MoveDirectAbsPt */\012MDAP[0]	/* MoveDirectAbsPt */\012MDAP[0]	/* MoveDirectAbsPt */\012MDAP[0]	/* MoveDirectAbsPt */\012MDAP[0]	/* MoveDirectAbsPt */\012MDAP[0]	/* MoveDirectAbsPt */\012MDAP[0]	/* MoveDirectAbsPt */\012MDAP[0]	/* MoveDirectAbsPt */\012MDAP[0]	/* MoveDirectAbsPt */\012MDAP[0]	/* MoveDirectAbsPt */\012SVTCA[0]	/* SetFreedomAndProjectionVectorToAxis */\012MDAP[0]	/* MoveDirectAbsPt */\012MDAP[0]	/* MoveDirectAbsPt */\012MDAP[0]	/* MoveDirectAbsPt */\012MDAP[0]	/* MoveDirectAbsPt */\012MDAP[0]	/* MoveDirectAbsPt */\012MDAP[0]	/* MoveDirectAbsPt */\012MDAP[0]	/* MoveDirectAbsPt */\012MDAP[0]	/* MoveDirectAbsPt */\012MDAP[0]	/* MoveDirectAbsPt */\012MDAP[0]	/* MoveDirectAbsPt */\012MDAP[0]	/* MoveDirectAbsPt */\012MDAP[0]	/* MoveDirectAbsPt */\012MDAP[0]	/* MoveDirectAbsPt */\012MDAP[0]	/* MoveDirectAbsPt */\012MDAP[0]	/* MoveDirectAbsPt */\012MDAP[0]	/* MoveDirectAbsPt */\012MDAP[0]	/* MoveDirectAbsPt */\012MDAP[0]	/* MoveDirectAbsPt */\012MDAP[0]	/* MoveDirectAbsPt */\012IUP[1]	/* InterpolateUntPts */\012IUP[0]	/* InterpolateUntPts */\012SVTCA[1]	/* SetFreedomAndProjectionVectorToAxis */\012MD[0]	/* MeasureDistance */\012ROUND[00]	/* Round */\012PUSHW[ ]	/* 2 values pushed */\01212 111 \012MD[0]	/* MeasureDistance */\012ROUND[00]	/* Round */\012SUB[ ]	/* Subtract */\012PUSHB[ ]	/* 1 value pushed */\01264 \012GT[ ]	/* GreaterThan */\012IF[ ]	/* If */\012SHPIX[ ]	/* ShiftZoneByPixel */\012SRP1[ ]	/* SetRefPoint1 */\012SHZ[1]	/* ShiftZoneByLastPoint */\012PUSHW[ ]	/* 2 values pushed */\012111 -64 \012SHPIX[ ]	/* ShiftZoneByPixel */\012EIF[ ]	/* EndIf */";
};
width = 654;
}
);
note = Q;
unicode = 0051;
},
{
glyphname = R;
lastChange = "2022-03-02 21:18:25 +0000";
layers = (
{
layerId = "423D2297-FAE2-4393-80D6-0A1E9777D337";
paths = (
{
closed = 1;
nodes = (
"664 -73 OFFCURVE",
"710 -50 OFFCURVE",
"710 -14 CURVE SMOOTH",
"710 -2 OFFCURVE",
"708 4 OFFCURVE",
"703 4 CURVE SMOOTH",
"700 4 OFFCURVE",
"699 1 OFFCURVE",
"699 -5 CURVE SMOOTH",
"699 -36 OFFCURVE",
"686 -51 OFFCURVE",
"659 -51 CURVE SMOOTH",
"630 -51 OFFCURVE",
"601 -32 OFFCURVE",
"572 6 CURVE SMOOTH",
"552 33 OFFCURVE",
"535 66 OFFCURVE",
"521 103 CURVE SMOOTH",
"480 212 OFFCURVE",
"426 269 OFFCURVE",
"360 272 CURVE",
"415 272 OFFCURVE",
"461 283 OFFCURVE",
"499 305 CURVE SMOOTH",
"545 332 OFFCURVE",
"568 371 OFFCURVE",
"568 422 CURVE SMOOTH",
"568 457 OFFCURVE",
"556 487 OFFCURVE",
"533 513 CURVE SMOOTH",
"500 548 OFFCURVE",
"441 565 OFFCURVE",
"414 572 CURVE",
"430 591 OFFCURVE",
"451 601 OFFCURVE",
"477 601 CURVE SMOOTH",
"486 601 OFFCURVE",
"495 598 OFFCURVE",
"502 595 CURVE",
"503 595 OFFCURVE",
"504 596 OFFCURVE",
"504 599 CURVE SMOOTH",
"504 603 OFFCURVE",
"493 612 OFFCURVE",
"470 612 CURVE SMOOTH",
"441 612 OFFCURVE",
"414 600 OFFCURVE",
"391 577 CURVE",
"358 584 OFFCURVE",
"325 587 OFFCURVE",
"292 587 CURVE SMOOTH",
"129 587 OFFCURVE",
"-14 501 OFFCURVE",
"-14 352 CURVE SMOOTH",
"-14 267 OFFCURVE",
"30 203 OFFCURVE",
"128 203 CURVE SMOOTH",
"208 203 OFFCURVE",
"262 264 OFFCURVE",
"262 339 CURVE SMOOTH",
"262 398 OFFCURVE",
"222 440 OFFCURVE",
"163 440 CURVE SMOOTH",
"123 440 OFFCURVE",
"93 413 OFFCURVE",
"93 373 CURVE SMOOTH",
"93 347 OFFCURVE",
"108 335 OFFCURVE",
"131 335 CURVE SMOOTH",
"134 335 OFFCURVE",
"136 337 OFFCURVE",
"136 340 CURVE SMOOTH",
"136 344 OFFCURVE",
"133 344 OFFCURVE",
"130 344 CURVE SMOOTH",
"114 344 OFFCURVE",
"103 358 OFFCURVE",
"103 375 CURVE SMOOTH",
"103 407 OFFCURVE",
"131 432 OFFCURVE",
"163 432 CURVE SMOOTH",
"212 432 OFFCURVE",
"244 392 OFFCURVE",
"244 341 CURVE SMOOTH",
"244 276 OFFCURVE",
"196 215 OFFCURVE",
"131 215 CURVE SMOOTH",
"58 215 OFFCURVE",
"14 270 OFFCURVE",
"14 343 CURVE SMOOTH",
"14 484 OFFCURVE",
"140 574 OFFCURVE",
"299 574 CURVE SMOOTH",
"326 574 OFFCURVE",
"354 572 OFFCURVE",
"383 566 CURVE",
"337 513 OFFCURVE",
"307 423 OFFCURVE",
"293 300 CURVE SMOOTH",
"289 260 OFFCURVE",
"285 220 OFFCURVE",
"282 180 CURVE SMOOTH",
"275 123 OFFCURVE",
"263 78 OFFCURVE",
"248 47 CURVE SMOOTH",
"227 5 OFFCURVE",
"197 -16 OFFCURVE",
"159 -16 CURVE SMOOTH",
"146 -16 OFFCURVE",
"134 -13 OFFCURVE",
"123 -7 CURVE SMOOTH",
"110 0 OFFCURVE",
"103 10 OFFCURVE",
"103 22 CURVE SMOOTH",
"103 32 OFFCURVE",
"101 37 OFFCURVE",
"98 37 CURVE SMOOTH",
"93 37 OFFCURVE",
"91 33 OFFCURVE",
"91 24 CURVE SMOOTH",
"91 -9 OFFCURVE",
"122 -29 OFFCURVE",
"157 -29 CURVE SMOOTH",
"162 -29 LINE",
"165 -28 OFFCURVE",
"166 -28 OFFCURVE",
"167 -28 CURVE SMOOTH",
"234 -18 OFFCURVE",
"281 18 OFFCURVE",
"306 79 CURVE SMOOTH",
"321 114 OFFCURVE",
"331 176 OFFCURVE",
"336 263 CURVE",
"360 260 LINE SMOOTH",
"392 256 OFFCURVE",
"417 232 OFFCURVE",
"434 191 CURVE",
"466 87 LINE SMOOTH",
"499 -21 OFFCURVE",
"555 -73 OFFCURVE",
"627 -73 CURVE SMOOTH"
);
},
{
closed = 1;
nodes = (
"345 361 OFFCURVE",
"350 410 OFFCURVE",
"353 424 CURVE SMOOTH",
"363 476 OFFCURVE",
"381 521 OFFCURVE",
"407 559 CURVE",
"490 539 OFFCURVE",
"531 496 OFFCURVE",
"531 429 CURVE SMOOTH",
"531 393 OFFCURVE",
"518 362 OFFCURVE",
"492 335 CURVE SMOOTH",
"469 310 OFFCURVE",
"439 294 OFFCURVE",
"402 286 CURVE SMOOTH",
"383 282 OFFCURVE",
"361 279 OFFCURVE",
"337 278 CURVE"
);
}
);
userData = {
assembly = "NPUSHB[ ]	/* 50 values pushed */\0121 135 135 64 136 0 127 123 121 117 99 96 88 73 68 64 62 40 30 24 19 17 11 133 127 111 107 101 94 82 76 70 66 60 54 46 38 22 0 57 8 90 51 7 79 92 3 1 82 70 \012SROUND[ ]	/* SuperRound */\012MDAP[1]	/* MoveDirectAbsPt */\012SHZ[1]	/* ShiftZoneByLastPoint */\012RTG[ ]	/* RoundToGrid */\012SVTCA[0]	/* SetFreedomAndProjectionVectorToAxis */\012MDAP[1]	/* MoveDirectAbsPt */\012MDAP[1]	/* MoveDirectAbsPt */\012MDAP[1]	/* MoveDirectAbsPt */\012MIRP[11101]	/* MoveIndirectRelPt */\012MDAP[1]	/* MoveDirectAbsPt */\012MIRP[11101]	/* MoveIndirectRelPt */\012SVTCA[1]	/* SetFreedomAndProjectionVectorToAxis */\012MDAP[0]	/* MoveDirectAbsPt */\012MDAP[0]	/* MoveDirectAbsPt */\012MDAP[0]	/* MoveDirectAbsPt */\012MDAP[0]	/* MoveDirectAbsPt */\012MDAP[0]	/* MoveDirectAbsPt */\012MDAP[0]	/* MoveDirectAbsPt */\012MDAP[0]	/* MoveDirectAbsPt */\012MDAP[0]	/* MoveDirectAbsPt */\012MDAP[0]	/* MoveDirectAbsPt */\012MDAP[0]	/* MoveDirectAbsPt */\012MDAP[0]	/* MoveDirectAbsPt */\012MDAP[0]	/* MoveDirectAbsPt */\012MDAP[0]	/* MoveDirectAbsPt */\012MDAP[0]	/* MoveDirectAbsPt */\012MDAP[0]	/* MoveDirectAbsPt */\012MDAP[0]	/* MoveDirectAbsPt */\012SVTCA[0]	/* SetFreedomAndProjectionVectorToAxis */\012MDAP[0]	/* MoveDirectAbsPt */\012MDAP[0]	/* MoveDirectAbsPt */\012MDAP[0]	/* MoveDirectAbsPt */\012MDAP[0]	/* MoveDirectAbsPt */\012MDAP[0]	/* MoveDirectAbsPt */\012MDAP[0]	/* MoveDirectAbsPt */\012MDAP[0]	/* MoveDirectAbsPt */\012MDAP[0]	/* MoveDirectAbsPt */\012MDAP[0]	/* MoveDirectAbsPt */\012MDAP[0]	/* MoveDirectAbsPt */\012MDAP[0]	/* MoveDirectAbsPt */\012MDAP[0]	/* MoveDirectAbsPt */\012MDAP[0]	/* MoveDirectAbsPt */\012MDAP[0]	/* MoveDirectAbsPt */\012MDAP[0]	/* MoveDirectAbsPt */\012MDAP[0]	/* MoveDirectAbsPt */\012MDAP[0]	/* MoveDirectAbsPt */\012IUP[1]	/* InterpolateUntPts */\012IUP[0]	/* InterpolateUntPts */\012SVTCA[1]	/* SetFreedomAndProjectionVectorToAxis */\012MD[0]	/* MeasureDistance */\012ROUND[00]	/* Round */\012PUSHW[ ]	/* 2 values pushed */\01282 135 \012MD[0]	/* MeasureDistance */\012ROUND[00]	/* Round */\012SUB[ ]	/* Subtract */\012PUSHB[ ]	/* 1 value pushed */\01264 \012GT[ ]	/* GreaterThan */\012IF[ ]	/* If */\012SHPIX[ ]	/* ShiftZoneByPixel */\012SRP1[ ]	/* SetRefPoint1 */\012SHZ[1]	/* ShiftZoneByLastPoint */\012PUSHW[ ]	/* 2 values pushed */\012135 -64 \012SHPIX[ ]	/* ShiftZoneByPixel */\012EIF[ ]	/* EndIf */";
};
width = 593;
}
);
note = R;
unicode = 0052;
},
{
glyphname = S;
lastChange = "2022-03-02 21:18:25 +0000";
layers = (
{
layerId = "423D2297-FAE2-4393-80D6-0A1E9777D337";
paths = (
{
closed = 1;
nodes = (
"354 -53 OFFCURVE",
"470 24 OFFCURVE",
"470 157 CURVE SMOOTH",
"470 282 OFFCURVE",
"373 336 OFFCURVE",
"215 426 CURVE SMOOTH",
"174 450 OFFCURVE",
"153 482 OFFCURVE",
"153 520 CURVE SMOOTH",
"153 552 OFFCURVE",
"167 577 OFFCURVE",
"196 596 CURVE SMOOTH",
"222 614 OFFCURVE",
"252 623 OFFCURVE",
"286 623 CURVE SMOOTH",
"358 623 OFFCURVE",
"414 576 OFFCURVE",
"414 510 CURVE SMOOTH",
"414 473 OFFCURVE",
"388 434 OFFCURVE",
"345 434 CURVE SMOOTH",
"312 434 OFFCURVE",
"293 455 OFFCURVE",
"293 478 CURVE SMOOTH",
"293 499 OFFCURVE",
"305 512 OFFCURVE",
"323 512 CURVE SMOOTH",
"335 512 OFFCURVE",
"341 506 OFFCURVE",
"341 494 CURVE SMOOTH",
"341 492 OFFCURVE",
"343 490 OFFCURVE",
"346 490 CURVE SMOOTH",
"349 490 OFFCURVE",
"351 492 OFFCURVE",
"351 495 CURVE SMOOTH",
"351 509 OFFCURVE",
"341 524 OFFCURVE",
"320 524 CURVE SMOOTH",
"295 524 OFFCURVE",
"278 505 OFFCURVE",
"278 477 CURVE SMOOTH",
"278 453 OFFCURVE",
"300 424 OFFCURVE",
"344 424 CURVE SMOOTH",
"397 424 OFFCURVE",
"433 463 OFFCURVE",
"433 513 CURVE SMOOTH",
"433 550 OFFCURVE",
"419 581 OFFCURVE",
"390 604 CURVE SMOOTH",
"363 625 OFFCURVE",
"330 636 OFFCURVE",
"289 636 CURVE SMOOTH",
"200 636 OFFCURVE",
"117 571 OFFCURVE",
"117 489 CURVE SMOOTH",
"117 440 OFFCURVE",
"141 402 OFFCURVE",
"190 374 CURVE SMOOTH",
"336 288 OFFCURVE",
"426 242 OFFCURVE",
"426 130 CURVE SMOOTH",
"426 27 OFFCURVE",
"331 -38 OFFCURVE",
"223 -38 CURVE SMOOTH",
"113 -38 OFFCURVE",
"19 27 OFFCURVE",
"19 130 CURVE SMOOTH",
"19 219 OFFCURVE",
"83 294 OFFCURVE",
"176 294 CURVE SMOOTH",
"249 294 OFFCURVE",
"312 246 OFFCURVE",
"312 180 CURVE SMOOTH",
"312 121 OFFCURVE",
"275 61 OFFCURVE",
"212 61 CURVE SMOOTH",
"188 61 OFFCURVE",
"168 71 OFFCURVE",
"159 88 CURVE SMOOTH",
"155 96 OFFCURVE",
"153 105 OFFCURVE",
"153 114 CURVE SMOOTH",
"153 127 OFFCURVE",
"157 140 OFFCURVE",
"168 147 CURVE SMOOTH",
"183 157 LINE",
"183 161 OFFCURVE",
"181 162 OFFCURVE",
"177 162 CURVE SMOOTH",
"154 162 OFFCURVE",
"133 137 OFFCURVE",
"133 110 CURVE SMOOTH",
"133 82 OFFCURVE",
"156 48 OFFCURVE",
"212 48 CURVE SMOOTH",
"277 48 OFFCURVE",
"335 105 OFFCURVE",
"335 170 CURVE SMOOTH",
"335 244 OFFCURVE",
"262 305 OFFCURVE",
"181 305 CURVE SMOOTH",
"80 305 OFFCURVE",
"-7 225 OFFCURVE",
"-7 130 CURVE SMOOTH",
"-7 15 OFFCURVE",
"100 -53 OFFCURVE",
"222 -53 CURVE SMOOTH"
);
}
);
userData = {
assembly = "NPUSHB[ ]	/* 46 values pushed */\0121 103 103 64 104 42 72 65 60 31 24 18 14 9 3 96 90 82 76 67 56 50 42 38 37 28 21 12 6 0 70 35 6 62 86 7 46 79 7 53 46 99 3 1 50 70 \012SROUND[ ]	/* SuperRound */\012MDAP[1]	/* MoveDirectAbsPt */\012SHZ[1]	/* ShiftZoneByLastPoint */\012RTG[ ]	/* RoundToGrid */\012SVTCA[0]	/* SetFreedomAndProjectionVectorToAxis */\012MIAP[1]	/* MoveIndirectAbsPt */\012MDAP[1]	/* MoveDirectAbsPt */\012MDAP[1]	/* MoveDirectAbsPt */\012MIRP[11101]	/* MoveIndirectRelPt */\012SRP0[ ]	/* SetRefPoint0 */\012MIRP[11101]	/* MoveIndirectRelPt */\012SVTCA[1]	/* SetFreedomAndProjectionVectorToAxis */\012MDAP[1]	/* MoveDirectAbsPt */\012MIRP[11101]	/* MoveIndirectRelPt */\012ALIGNRP[ ]	/* AlignRelativePt */\012MDAP[0]	/* MoveDirectAbsPt */\012MDAP[0]	/* MoveDirectAbsPt */\012MDAP[0]	/* MoveDirectAbsPt */\012MDAP[0]	/* MoveDirectAbsPt */\012MDAP[0]	/* MoveDirectAbsPt */\012MDAP[0]	/* MoveDirectAbsPt */\012MDAP[0]	/* MoveDirectAbsPt */\012MDAP[0]	/* MoveDirectAbsPt */\012MDAP[0]	/* MoveDirectAbsPt */\012MDAP[0]	/* MoveDirectAbsPt */\012MDAP[0]	/* MoveDirectAbsPt */\012MDAP[0]	/* MoveDirectAbsPt */\012MDAP[0]	/* MoveDirectAbsPt */\012MDAP[0]	/* MoveDirectAbsPt */\012MDAP[0]	/* MoveDirectAbsPt */\012SVTCA[0]	/* SetFreedomAndProjectionVectorToAxis */\012MDAP[0]	/* MoveDirectAbsPt */\012MDAP[0]	/* MoveDirectAbsPt */\012MDAP[0]	/* MoveDirectAbsPt */\012MDAP[0]	/* MoveDirectAbsPt */\012MDAP[0]	/* MoveDirectAbsPt */\012MDAP[0]	/* MoveDirectAbsPt */\012MDAP[0]	/* MoveDirectAbsPt */\012MDAP[0]	/* MoveDirectAbsPt */\012MDAP[0]	/* MoveDirectAbsPt */\012IUP[1]	/* InterpolateUntPts */\012IUP[0]	/* InterpolateUntPts */\012SVTCA[1]	/* SetFreedomAndProjectionVectorToAxis */\012MD[0]	/* MeasureDistance */\012ROUND[00]	/* Round */\012PUSHW[ ]	/* 2 values pushed */\01250 103 \012MD[0]	/* MeasureDistance */\012ROUND[00]	/* Round */\012SUB[ ]	/* Subtract */\012PUSHB[ ]	/* 1 value pushed */\01264 \012GT[ ]	/* GreaterThan */\012IF[ ]	/* If */\012SHPIX[ ]	/* ShiftZoneByPixel */\012SRP1[ ]	/* SetRefPoint1 */\012SHZ[1]	/* ShiftZoneByLastPoint */\012PUSHW[ ]	/* 2 values pushed */\012103 -64 \012SHPIX[ ]	/* ShiftZoneByPixel */\012EIF[ ]	/* EndIf */";
};
width = 507;
}
);
note = S;
unicode = 0053;
},
{
color = 1;
glyphname = Germandbls;
lastChange = "2022-03-02 21:18:25 +0000";
layers = (
{
layerId = "423D2297-FAE2-4393-80D6-0A1E9777D337";
paths = (
{
closed = 1;
nodes = (
"7 -52 OFFCURVE",
"58 -6 OFFCURVE",
"82 116 CURVE SMOOTH",
"94 178 OFFCURVE",
"105 261 OFFCURVE",
"121 374 CURVE SMOOTH",
"138 506 OFFCURVE",
"163 656 OFFCURVE",
"274 656 CURVE SMOOTH",
"330 656 OFFCURVE",
"353 623 OFFCURVE",
"353 581 CURVE SMOOTH",
"353 517 OFFCURVE",
"300 433 OFFCURVE",
"230 415 CURVE SMOOTH",
"215 411 OFFCURVE",
"208 400 OFFCURVE",
"210 389 CURVE SMOOTH",
"212 382 OFFCURVE",
"225 377 OFFCURVE",
"245 370 CURVE SMOOTH",
"317 341 OFFCURVE",
"359 297 OFFCURVE",
"359 212 CURVE SMOOTH",
"359 115 OFFCURVE",
"276 34 OFFCURVE",
"193 34 CURVE SMOOTH",
"152 34 OFFCURVE",
"115 41 OFFCURVE",
"115 77 CURVE SMOOTH",
"115 115 OFFCURVE",
"163 167 OFFCURVE",
"212 167 CURVE SMOOTH",
"219 167 OFFCURVE",
"220 171 OFFCURVE",
"220 173 CURVE",
"219 176 OFFCURVE",
"215 178 OFFCURVE",
"210 178 CURVE SMOOTH",
"151 178 OFFCURVE",
"102 129 OFFCURVE",
"102 79 CURVE SMOOTH",
"102 35 OFFCURVE",
"138 12 OFFCURVE",
"186 12 CURVE SMOOTH",
"285 12 OFFCURVE",
"412 94 OFFCURVE",
"412 213 CURVE SMOOTH",
"412 347 OFFCURVE",
"314 372 OFFCURVE",
"233 400 CURVE",
"325 425 OFFCURVE",
"395 514 OFFCURVE",
"395 583 CURVE SMOOTH",
"395 631 OFFCURVE",
"361 670 OFFCURVE",
"276 670 CURVE SMOOTH",
"145 670 OFFCURVE",
"97 512 OFFCURVE",
"73 378 CURVE SMOOTH",
"52 263 OFFCURVE",
"41 179 OFFCURVE",
"32 119 CURVE SMOOTH",
"15 6 OFFCURVE",
"-12 -36 OFFCURVE",
"-74 -36 CURVE SMOOTH",
"-83 -36 OFFCURVE",
"-93 -36 OFFCURVE",
"-103 -34 CURVE SMOOTH",
"-110 -33 OFFCURVE",
"-114 -36 OFFCURVE",
"-114 -39 CURVE SMOOTH",
"-114 -42 OFFCURVE",
"-110 -46 OFFCURVE",
"-101 -48 CURVE SMOOTH",
"-88 -50 OFFCURVE",
"-75 -52 OFFCURVE",
"-63 -52 CURVE SMOOTH"
);
}
);
width = 442;
}
);
unicode = 1E9E;
},
{
glyphname = Schwa;
lastChange = "2022-03-02 21:18:25 +0000";
layers = (
{
layerId = "423D2297-FAE2-4393-80D6-0A1E9777D337";
paths = (
{
closed = 1;
nodes = (
"430 -35 OFFCURVE",
"595 131 OFFCURVE",
"595 348 CURVE SMOOTH",
"595 522 OFFCURVE",
"480 644 OFFCURVE",
"311 644 CURVE SMOOTH",
"200 644 OFFCURVE",
"68 577 OFFCURVE",
"68 463 CURVE SMOOTH",
"68 408 OFFCURVE",
"104 366 OFFCURVE",
"157 366 CURVE SMOOTH",
"192 366 OFFCURVE",
"217 392 OFFCURVE",
"217 430 CURVE SMOOTH",
"217 444 OFFCURVE",
"214 450 OFFCURVE",
"209 450 CURVE SMOOTH",
"206 450 OFFCURVE",
"203 447 OFFCURVE",
"203 440 CURVE SMOOTH",
"203 424 LINE SMOOTH",
"203 403 OFFCURVE",
"178 387 OFFCURVE",
"158 387 CURVE SMOOTH",
"122 387 OFFCURVE",
"103 421 OFFCURVE",
"103 460 CURVE SMOOTH",
"103 560 OFFCURVE",
"193 626 OFFCURVE",
"308 626 CURVE SMOOTH",
"453 626 OFFCURVE",
"535 522 OFFCURVE",
"535 357 CURVE SMOOTH",
"535 332 OFFCURVE",
"533 301 OFFCURVE",
"528 269 CURVE",
"485 289 OFFCURVE",
"422 303 OFFCURVE",
"346 303 CURVE SMOOTH",
"210 303 OFFCURVE",
"45 228 OFFCURVE",
"45 86 CURVE SMOOTH",
"45 -1 OFFCURVE",
"123 -35 OFFCURVE",
"221 -35 CURVE SMOOTH"
);
},
{
closed = 1;
nodes = (
"153 -16 OFFCURVE",
"89 33 OFFCURVE",
"89 108 CURVE SMOOTH",
"89 222 OFFCURVE",
"225 283 OFFCURVE",
"349 283 CURVE SMOOTH",
"412 283 OFFCURVE",
"482 267 OFFCURVE",
"524 243 CURVE",
"490 84 OFFCURVE",
"379 -16 OFFCURVE",
"230 -16 CURVE SMOOTH"
);
}
);
width = 653;
}
);
unicode = 018F;
},
{
glyphname = T;
lastChange = "2022-03-02 21:18:25 +0000";
layers = (
{
layerId = "423D2297-FAE2-4393-80D6-0A1E9777D337";
paths = (
{
closed = 1;
nodes = (
"380 -34 OFFCURVE",
"472 51 OFFCURVE",
"515 173 CURVE SMOOTH",
"553 283 OFFCURVE",
"543 472 OFFCURVE",
"587 552 CURVE",
"653 526 OFFCURVE",
"723 512 OFFCURVE",
"791 512 CURVE SMOOTH",
"871 512 OFFCURVE",
"922 535 OFFCURVE",
"922 564 CURVE SMOOTH",
"922 573 OFFCURVE",
"916 576 OFFCURVE",
"913 576 CURVE SMOOTH",
"908 576 OFFCURVE",
"904 573 OFFCURVE",
"904 564 CURVE SMOOTH",
"904 543 OFFCURVE",
"830 529 OFFCURVE",
"791 529 CURVE SMOOTH",
"730 529 OFFCURVE",
"668 546 OFFCURVE",
"600 575 CURVE",
"618 599 OFFCURVE",
"627 605 OFFCURVE",
"639 610 CURVE SMOOTH",
"651 615 OFFCURVE",
"662 615 OFFCURVE",
"666 615 CURVE",
"666 622 OFFCURVE",
"661 627 OFFCURVE",
"652 627 CURVE SMOOTH",
"637 627 OFFCURVE",
"604 611 OFFCURVE",
"581 582 CURVE",
"464 628 OFFCURVE",
"394 658 OFFCURVE",
"315 658 CURVE SMOOTH",
"207 658 OFFCURVE",
"129 586 OFFCURVE",
"129 480 CURVE SMOOTH",
"129 396 OFFCURVE",
"174 335 OFFCURVE",
"259 335 CURVE SMOOTH",
"333 335 OFFCURVE",
"398 379 OFFCURVE",
"398 448 CURVE SMOOTH",
"398 467 OFFCURVE",
"393 478 OFFCURVE",
"384 478 CURVE",
"380 475 OFFCURVE",
"377 472 OFFCURVE",
"377 469 CURVE SMOOTH",
"377 467 OFFCURVE",
"377 466 OFFCURVE",
"378 464 CURVE SMOOTH",
"379 462 OFFCURVE",
"379 460 OFFCURVE",
"380 459 CURVE",
"380 453 LINE SMOOTH",
"380 398 OFFCURVE",
"322 356 OFFCURVE",
"265 356 CURVE SMOOTH",
"200 356 OFFCURVE",
"160 405 OFFCURVE",
"160 468 CURVE SMOOTH",
"160 561 OFFCURVE",
"227 622 OFFCURVE",
"322 622 CURVE SMOOTH",
"371 622 OFFCURVE",
"451 601 OFFCURVE",
"565 560 CURVE",
"503 465 OFFCURVE",
"508 313 OFFCURVE",
"464 191 CURVE SMOOTH",
"422 76 OFFCURVE",
"343 -11 OFFCURVE",
"226 -11 CURVE SMOOTH",
"111 -11 OFFCURVE",
"50 52 OFFCURVE",
"50 148 CURVE SMOOTH",
"50 226 OFFCURVE",
"106 273 OFFCURVE",
"153 273 CURVE SMOOTH",
"199 273 OFFCURVE",
"233 249 OFFCURVE",
"233 194 CURVE SMOOTH",
"233 161 OFFCURVE",
"219 141 OFFCURVE",
"193 131 CURVE SMOOTH",
"187 129 OFFCURVE",
"178 126 OFFCURVE",
"171 126 CURVE SMOOTH",
"167 126 OFFCURVE",
"163 122 OFFCURVE",
"163 118 CURVE SMOOTH",
"163 114 OFFCURVE",
"167 111 OFFCURVE",
"172 111 CURVE SMOOTH",
"222 111 OFFCURVE",
"258 146 OFFCURVE",
"258 196 CURVE SMOOTH",
"258 261 OFFCURVE",
"212 290 OFFCURVE",
"153 290 CURVE SMOOTH",
"92 290 OFFCURVE",
"15 239 OFFCURVE",
"15 148 CURVE SMOOTH",
"15 37 OFFCURVE",
"109 -34 OFFCURVE",
"223 -34 CURVE SMOOTH"
);
}
);
userData = {
assembly = "NPUSHB[ ]	/* 52 values pushed */\0121 115 115 64 116 13 108 97 91 62 45 43 37 17 11 101 93 89 86 84 77 72 59 57 40 39 27 13 4 0 34 5 49 74 8 104 15 7 6 30 7 51 23 113 3 104 4 80 2 1 27 70 \012SROUND[ ]	/* SuperRound */\012MDAP[1]	/* MoveDirectAbsPt */\012SHZ[1]	/* ShiftZoneByLastPoint */\012RTG[ ]	/* RoundToGrid */\012SVTCA[0]	/* SetFreedomAndProjectionVectorToAxis */\012MIAP[1]	/* MoveIndirectAbsPt */\012MIAP[1]	/* MoveIndirectAbsPt */\012MIAP[1]	/* MoveIndirectAbsPt */\012MDAP[1]	/* MoveDirectAbsPt */\012MDAP[1]	/* MoveDirectAbsPt */\012MIRP[11101]	/* MoveIndirectRelPt */\012MDAP[1]	/* MoveDirectAbsPt */\012MIRP[11101]	/* MoveIndirectRelPt */\012SRP0[ ]	/* SetRefPoint0 */\012MIRP[11101]	/* MoveIndirectRelPt */\012SVTCA[1]	/* SetFreedomAndProjectionVectorToAxis */\012MDAP[1]	/* MoveDirectAbsPt */\012MIRP[11101]	/* MoveIndirectRelPt */\012MDAP[0]	/* MoveDirectAbsPt */\012MDAP[0]	/* MoveDirectAbsPt */\012MDAP[0]	/* MoveDirectAbsPt */\012MDAP[0]	/* MoveDirectAbsPt */\012MDAP[0]	/* MoveDirectAbsPt */\012MDAP[0]	/* MoveDirectAbsPt */\012MDAP[0]	/* MoveDirectAbsPt */\012MDAP[0]	/* MoveDirectAbsPt */\012MDAP[0]	/* MoveDirectAbsPt */\012MDAP[0]	/* MoveDirectAbsPt */\012MDAP[0]	/* MoveDirectAbsPt */\012MDAP[0]	/* MoveDirectAbsPt */\012MDAP[0]	/* MoveDirectAbsPt */\012MDAP[0]	/* MoveDirectAbsPt */\012MDAP[0]	/* MoveDirectAbsPt */\012SVTCA[0]	/* SetFreedomAndProjectionVectorToAxis */\012MDAP[0]	/* MoveDirectAbsPt */\012MDAP[0]	/* MoveDirectAbsPt */\012MDAP[0]	/* MoveDirectAbsPt */\012MDAP[0]	/* MoveDirectAbsPt */\012MDAP[0]	/* MoveDirectAbsPt */\012MDAP[0]	/* MoveDirectAbsPt */\012MDAP[0]	/* MoveDirectAbsPt */\012MDAP[0]	/* MoveDirectAbsPt */\012MDAP[0]	/* MoveDirectAbsPt */\012IUP[1]	/* InterpolateUntPts */\012IUP[0]	/* InterpolateUntPts */\012SVTCA[1]	/* SetFreedomAndProjectionVectorToAxis */\012MD[0]	/* MeasureDistance */\012ROUND[00]	/* Round */\012PUSHW[ ]	/* 2 values pushed */\01227 115 \012MD[0]	/* MeasureDistance */\012ROUND[00]	/* Round */\012SUB[ ]	/* Subtract */\012PUSHB[ ]	/* 1 value pushed */\01264 \012GT[ ]	/* GreaterThan */\012IF[ ]	/* If */\012SHPIX[ ]	/* ShiftZoneByPixel */\012SRP1[ ]	/* SetRefPoint1 */\012SHZ[1]	/* ShiftZoneByLastPoint */\012PUSHW[ ]	/* 2 values pushed */\012115 -64 \012SHPIX[ ]	/* ShiftZoneByPixel */\012EIF[ ]	/* EndIf */";
};
width = 610;
}
);
note = T;
unicode = 0054;
},
{
glyphname = U;
lastChange = "2022-03-02 21:18:25 +0000";
layers = (
{
layerId = "423D2297-FAE2-4393-80D6-0A1E9777D337";
paths = (
{
closed = 1;
nodes = (
"650 -103 OFFCURVE",
"673 -86 OFFCURVE",
"673 -61 CURVE SMOOTH",
"673 -57 OFFCURVE",
"671 -55 OFFCURVE",
"666 -55 CURVE",
"661 -74 OFFCURVE",
"649 -85 OFFCURVE",
"640 -85 CURVE SMOOTH",
"632 -85 OFFCURVE",
"624 -80 OFFCURVE",
"616 -68 CURVE SMOOTH",
"589 -27 OFFCURVE",
"575 54 OFFCURVE",
"575 166 CURVE SMOOTH",
"575 267 OFFCURVE",
"582 337 OFFCURVE",
"597 397 CURVE SMOOTH",
"611 455 OFFCURVE",
"636 484 OFFCURVE",
"673 484 CURVE SMOOTH",
"682 484 OFFCURVE",
"693 483 OFFCURVE",
"691 483 CURVE SMOOTH",
"701 483 OFFCURVE",
"706 486 OFFCURVE",
"706 492 CURVE SMOOTH",
"706 502 OFFCURVE",
"695 507 OFFCURVE",
"673 507 CURVE SMOOTH",
"619 507 OFFCURVE",
"578 451 OFFCURVE",
"561 401 CURVE SMOOTH",
"492 178 OFFCURVE",
"449 -6 OFFCURVE",
"326 -6 CURVE SMOOTH",
"283 -6 OFFCURVE",
"267 23 OFFCURVE",
"267 67 CURVE SMOOTH",
"267 129 OFFCURVE",
"299 221 OFFCURVE",
"331 304 CURVE SMOOTH",
"354 362 OFFCURVE",
"366 415 OFFCURVE",
"366 461 CURVE SMOOTH",
"366 564 OFFCURVE",
"307 630 OFFCURVE",
"181 630 CURVE SMOOTH",
"57 630 OFFCURVE",
"-59 527 OFFCURVE",
"-59 404 CURVE SMOOTH",
"-59 323 OFFCURVE",
"-5 246 OFFCURVE",
"87 246 CURVE SMOOTH",
"154 246 OFFCURVE",
"209 293 OFFCURVE",
"209 365 CURVE SMOOTH",
"209 378 OFFCURVE",
"207 384 OFFCURVE",
"203 384 CURVE SMOOTH",
"199 384 OFFCURVE",
"197 381 OFFCURVE",
"197 376 CURVE SMOOTH",
"197 365 LINE SMOOTH",
"197 304 OFFCURVE",
"154 261 OFFCURVE",
"93 261 CURVE SMOOTH",
"18 261 OFFCURVE",
"-28 331 OFFCURVE",
"-28 409 CURVE SMOOTH",
"-28 522 OFFCURVE",
"71 619 OFFCURVE",
"184 619 CURVE SMOOTH",
"277 619 OFFCURVE",
"315 554 OFFCURVE",
"315 465 CURVE SMOOTH",
"315 411 OFFCURVE",
"302 349 OFFCURVE",
"279 287 CURVE SMOOTH",
"252 214 OFFCURVE",
"232 141 OFFCURVE",
"232 84 CURVE SMOOTH",
"232 23 OFFCURVE",
"256 -19 OFFCURVE",
"322 -19 CURVE SMOOTH",
"451 -19 OFFCURVE",
"501 133 OFFCURVE",
"554 325 CURVE",
"545 277 OFFCURVE",
"533 200 OFFCURVE",
"533 147 CURVE SMOOTH",
"533 13 OFFCURVE",
"545 -103 OFFCURVE",
"631 -103 CURVE SMOOTH"
);
}
);
userData = {
assembly = "NPUSHB[ ]	/* 44 values pushed */\0121 94 94 64 95 92 79 60 55 49 42 26 15 92 77 64 57 53 52 45 34 26 24 17 8 38 5 71 4 2 0 7 90 12 7 20 20 68 3 32 1 1 64 70 \012SROUND[ ]	/* SuperRound */\012MDAP[1]	/* MoveDirectAbsPt */\012SHZ[1]	/* ShiftZoneByLastPoint */\012RTG[ ]	/* RoundToGrid */\012SVTCA[0]	/* SetFreedomAndProjectionVectorToAxis */\012MIAP[1]	/* MoveIndirectAbsPt */\012MIAP[1]	/* MoveIndirectAbsPt */\012MDAP[1]	/* MoveDirectAbsPt */\012SRP0[ ]	/* SetRefPoint0 */\012MIRP[11101]	/* MoveIndirectRelPt */\012MDAP[1]	/* MoveDirectAbsPt */\012MIRP[11101]	/* MoveIndirectRelPt */\012ALIGNRP[ ]	/* AlignRelativePt */\012ALIGNRP[ ]	/* AlignRelativePt */\012SVTCA[1]	/* SetFreedomAndProjectionVectorToAxis */\012MDAP[1]	/* MoveDirectAbsPt */\012MIRP[11101]	/* MoveIndirectRelPt */\012MDAP[0]	/* MoveDirectAbsPt */\012MDAP[0]	/* MoveDirectAbsPt */\012MDAP[0]	/* MoveDirectAbsPt */\012MDAP[0]	/* MoveDirectAbsPt */\012MDAP[0]	/* MoveDirectAbsPt */\012MDAP[0]	/* MoveDirectAbsPt */\012MDAP[0]	/* MoveDirectAbsPt */\012MDAP[0]	/* MoveDirectAbsPt */\012MDAP[0]	/* MoveDirectAbsPt */\012MDAP[0]	/* MoveDirectAbsPt */\012MDAP[0]	/* MoveDirectAbsPt */\012MDAP[0]	/* MoveDirectAbsPt */\012SVTCA[0]	/* SetFreedomAndProjectionVectorToAxis */\012MDAP[0]	/* MoveDirectAbsPt */\012MDAP[0]	/* MoveDirectAbsPt */\012MDAP[0]	/* MoveDirectAbsPt */\012MDAP[0]	/* MoveDirectAbsPt */\012MDAP[0]	/* MoveDirectAbsPt */\012MDAP[0]	/* MoveDirectAbsPt */\012MDAP[0]	/* MoveDirectAbsPt */\012IUP[1]	/* InterpolateUntPts */\012IUP[0]	/* InterpolateUntPts */\012SVTCA[1]	/* SetFreedomAndProjectionVectorToAxis */\012MD[0]	/* MeasureDistance */\012ROUND[00]	/* Round */\012PUSHW[ ]	/* 2 values pushed */\01264 94 \012MD[0]	/* MeasureDistance */\012ROUND[00]	/* Round */\012SUB[ ]	/* Subtract */\012PUSHB[ ]	/* 1 value pushed */\01264 \012GT[ ]	/* GreaterThan */\012IF[ ]	/* If */\012SHPIX[ ]	/* ShiftZoneByPixel */\012SRP1[ ]	/* SetRefPoint1 */\012SHZ[1]	/* ShiftZoneByLastPoint */\012PUSHW[ ]	/* 2 values pushed */\01294 -64 \012SHPIX[ ]	/* ShiftZoneByPixel */\012EIF[ ]	/* EndIf */";
};
width = 658;
}
);
note = U;
unicode = 0055;
},
{
glyphname = V;
lastChange = "2022-03-02 21:18:25 +0000";
layers = (
{
layerId = "423D2297-FAE2-4393-80D6-0A1E9777D337";
paths = (
{
closed = 1;
nodes = (
"512 -43 OFFCURVE",
"593 41 OFFCURVE",
"676 209 CURVE SMOOTH",
"788 437 OFFCURVE",
"837 564 OFFCURVE",
"943 564 CURVE SMOOTH",
"983 564 OFFCURVE",
"1003 543 OFFCURVE",
"1003 502 CURVE SMOOTH",
"1003 485 OFFCURVE",
"996 477 OFFCURVE",
"986 473 CURVE",
"986 467 OFFCURVE",
"989 464 OFFCURVE",
"996 464 CURVE SMOOTH",
"1007 464 OFFCURVE",
"1021 480 OFFCURVE",
"1021 513 CURVE SMOOTH",
"1021 560 OFFCURVE",
"988 587 OFFCURVE",
"940 587 CURVE SMOOTH",
"887 587 OFFCURVE",
"831 553 OFFCURVE",
"773 458 CURVE SMOOTH",
"746 415 OFFCURVE",
"711 332 OFFCURVE",
"668 234 CURVE SMOOTH",
"613 110 OFFCURVE",
"532 -18 OFFCURVE",
"447 -28 CURVE",
"502 29 OFFCURVE",
"515 160 OFFCURVE",
"515 263 CURVE SMOOTH",
"515 385 OFFCURVE",
"476 520 OFFCURVE",
"376 578 CURVE SMOOTH",
"341 598 OFFCURVE",
"304 608 OFFCURVE",
"263 608 CURVE SMOOTH",
"194 608 OFFCURVE",
"135 587 OFFCURVE",
"88 546 CURVE SMOOTH",
"39 503 OFFCURVE",
"15 446 OFFCURVE",
"15 377 CURVE SMOOTH",
"15 286 OFFCURVE",
"82 205 OFFCURVE",
"173 205 CURVE SMOOTH",
"242 205 OFFCURVE",
"299 251 OFFCURVE",
"299 320 CURVE SMOOTH",
"299 340 OFFCURVE",
"292 382 OFFCURVE",
"281 382 CURVE SMOOTH",
"278 382 OFFCURVE",
"275 380 OFFCURVE",
"275 376 CURVE SMOOTH",
"275 374 LINE",
"278 363 OFFCURVE",
"284 340 OFFCURVE",
"284 326 CURVE SMOOTH",
"284 265 OFFCURVE",
"241 220 OFFCURVE",
"180 220 CURVE SMOOTH",
"93 220 OFFCURVE",
"51 285 OFFCURVE",
"51 378 CURVE SMOOTH",
"51 499 OFFCURVE",
"143 593 OFFCURVE",
"264 593 CURVE SMOOTH",
"316 593 OFFCURVE",
"360 568 OFFCURVE",
"397 518 CURVE SMOOTH",
"447 451 OFFCURVE",
"479 291 OFFCURVE",
"479 163 CURVE SMOOTH",
"479 73 OFFCURVE",
"458 -13 OFFCURVE",
"414 -31 CURVE",
"414 -39 OFFCURVE",
"421 -43 OFFCURVE",
"434 -43 CURVE SMOOTH"
);
}
);
userData = {
assembly = "NPUSHB[ ]	/* 35 values pushed */\0121 77 77 64 78 75 72 64 42 7 0 75 64 52 46 40 37 30 17 5 2 60 5 21 27 7 56 34 7 49 56 15 1 52 70 \012SROUND[ ]	/* SuperRound */\012MDAP[1]	/* MoveDirectAbsPt */\012SHZ[1]	/* ShiftZoneByLastPoint */\012RTG[ ]	/* RoundToGrid */\012SVTCA[0]	/* SetFreedomAndProjectionVectorToAxis */\012MDAP[1]	/* MoveDirectAbsPt */\012MDAP[1]	/* MoveDirectAbsPt */\012MDAP[1]	/* MoveDirectAbsPt */\012MIRP[11101]	/* MoveIndirectRelPt */\012SRP0[ ]	/* SetRefPoint0 */\012MIRP[11101]	/* MoveIndirectRelPt */\012SVTCA[1]	/* SetFreedomAndProjectionVectorToAxis */\012MDAP[1]	/* MoveDirectAbsPt */\012MIRP[11101]	/* MoveIndirectRelPt */\012MDAP[0]	/* MoveDirectAbsPt */\012MDAP[0]	/* MoveDirectAbsPt */\012MDAP[0]	/* MoveDirectAbsPt */\012MDAP[0]	/* MoveDirectAbsPt */\012MDAP[0]	/* MoveDirectAbsPt */\012MDAP[0]	/* MoveDirectAbsPt */\012MDAP[0]	/* MoveDirectAbsPt */\012MDAP[0]	/* MoveDirectAbsPt */\012MDAP[0]	/* MoveDirectAbsPt */\012MDAP[0]	/* MoveDirectAbsPt */\012SVTCA[0]	/* SetFreedomAndProjectionVectorToAxis */\012MDAP[0]	/* MoveDirectAbsPt */\012MDAP[0]	/* MoveDirectAbsPt */\012MDAP[0]	/* MoveDirectAbsPt */\012MDAP[0]	/* MoveDirectAbsPt */\012MDAP[0]	/* MoveDirectAbsPt */\012IUP[1]	/* InterpolateUntPts */\012IUP[0]	/* InterpolateUntPts */\012SVTCA[1]	/* SetFreedomAndProjectionVectorToAxis */\012MD[0]	/* MeasureDistance */\012ROUND[00]	/* Round */\012PUSHW[ ]	/* 2 values pushed */\01252 77 \012MD[0]	/* MeasureDistance */\012ROUND[00]	/* Round */\012SUB[ ]	/* Subtract */\012PUSHB[ ]	/* 1 value pushed */\01264 \012GT[ ]	/* GreaterThan */\012IF[ ]	/* If */\012SHPIX[ ]	/* ShiftZoneByPixel */\012SRP1[ ]	/* SetRefPoint1 */\012SHZ[1]	/* ShiftZoneByLastPoint */\012PUSHW[ ]	/* 2 values pushed */\01277 -64 \012SHPIX[ ]	/* ShiftZoneByPixel */\012EIF[ ]	/* EndIf */";
};
width = 777;
}
);
note = V;
unicode = 0056;
},
{
glyphname = W;
lastChange = "2022-03-02 21:18:25 +0000";
layers = (
{
layerId = "423D2297-FAE2-4393-80D6-0A1E9777D337";
paths = (
{
closed = 1;
nodes = (
"363 -55 OFFCURVE",
"410 -29 OFFCURVE",
"458 28 CURVE",
"574 74 OFFCURVE",
"605 165 OFFCURVE",
"646 301 CURVE SMOOTH",
"689 449 OFFCURVE",
"735 524 OFFCURVE",
"772 524 CURVE SMOOTH",
"775 524 OFFCURVE",
"779 523 OFFCURVE",
"783 522 CURVE",
"753 487 OFFCURVE",
"748 450 OFFCURVE",
"748 396 CURVE SMOOTH",
"748 372 OFFCURVE",
"749 343 OFFCURVE",
"749 310 CURVE SMOOTH",
"749 193 OFFCURVE",
"724 91 OFFCURVE",
"673 4 CURVE SMOOTH",
"664 -12 OFFCURVE",
"659 -23 OFFCURVE",
"659 -29 CURVE SMOOTH",
"659 -35 OFFCURVE",
"662 -38 OFFCURVE",
"669 -38 CURVE SMOOTH",
"674 -38 OFFCURVE",
"679 -36 OFFCURVE",
"683 -35 CURVE SMOOTH",
"778 -5 OFFCURVE",
"842 83 OFFCURVE",
"895 253 CURVE SMOOTH",
"930 363 OFFCURVE",
"969 467 OFFCURVE",
"1014 566 CURVE SMOOTH",
"1063 676 OFFCURVE",
"1106 782 OFFCURVE",
"1188 782 CURVE SMOOTH",
"1228 782 OFFCURVE",
"1241 761 OFFCURVE",
"1245 742 CURVE SMOOTH",
"1246 738 OFFCURVE",
"1248 734 OFFCURVE",
"1252 734 CURVE SMOOTH",
"1255 734 OFFCURVE",
"1257 736 OFFCURVE",
"1257 741 CURVE SMOOTH",
"1257 773 OFFCURVE",
"1229 795 OFFCURVE",
"1189 795 CURVE SMOOTH",
"1038 795 OFFCURVE",
"941 504 OFFCURVE",
"871 258 CURVE SMOOTH",
"827 102 OFFCURVE",
"760 4 OFFCURVE",
"685 -19 CURVE",
"764 78 OFFCURVE",
"796 170 OFFCURVE",
"796 291 CURVE SMOOTH",
"796 319 OFFCURVE",
"785 449 OFFCURVE",
"785 459 CURVE SMOOTH",
"785 482 OFFCURVE",
"791 499 OFFCURVE",
"802 508 CURVE",
"809 509 OFFCURVE",
"813 512 OFFCURVE",
"813 520 CURVE",
"803 533 OFFCURVE",
"783 537 OFFCURVE",
"771 537 CURVE SMOOTH",
"743 537 OFFCURVE",
"716 515 OFFCURVE",
"689 472 CURVE SMOOTH",
"612 343 OFFCURVE",
"618 121 OFFCURVE",
"471 52 CURVE",
"527 128 OFFCURVE",
"549 213 OFFCURVE",
"549 316 CURVE SMOOTH",
"549 505 OFFCURVE",
"451 651 OFFCURVE",
"277 651 CURVE SMOOTH",
"130 651 OFFCURVE",
"15 537 OFFCURVE",
"15 389 CURVE SMOOTH",
"15 261 OFFCURVE",
"107 159 OFFCURVE",
"235 159 CURVE SMOOTH",
"362 159 OFFCURVE",
"431 261 OFFCURVE",
"431 352 CURVE SMOOTH",
"431 426 OFFCURVE",
"385 494 OFFCURVE",
"285 494 CURVE SMOOTH",
"199 494 OFFCURVE",
"152 432 OFFCURVE",
"152 378 CURVE SMOOTH",
"152 333 OFFCURVE",
"182 293 OFFCURVE",
"248 293 CURVE SMOOTH",
"260 293 OFFCURVE",
"274 297 OFFCURVE",
"280 303 CURVE",
"280 306 OFFCURVE",
"279 309 OFFCURVE",
"275 309 CURVE SMOOTH",
"272 309 OFFCURVE",
"258 304 OFFCURVE",
"248 304 CURVE SMOOTH",
"194 304 OFFCURVE",
"169 339 OFFCURVE",
"169 377 CURVE SMOOTH",
"169 424 OFFCURVE",
"207 477 OFFCURVE",
"275 477 CURVE SMOOTH",
"360 477 OFFCURVE",
"399 415 OFFCURVE",
"399 347 CURVE SMOOTH",
"399 264 OFFCURVE",
"341 172 OFFCURVE",
"235 172 CURVE SMOOTH",
"115 172 OFFCURVE",
"52 272 OFFCURVE",
"52 398 CURVE SMOOTH",
"52 522 OFFCURVE",
"151 633 OFFCURVE",
"275 633 CURVE SMOOTH",
"437 633 OFFCURVE",
"498 466 OFFCURVE",
"498 279 CURVE SMOOTH",
"498 179 OFFCURVE",
"476 99 OFFCURVE",
"433 39 CURVE",
"400 30 OFFCURVE",
"345 27 OFFCURVE",
"308 14 CURVE SMOOTH",
"284 6 OFFCURVE",
"273 -10 OFFCURVE",
"273 -24 CURVE SMOOTH",
"273 -40 OFFCURVE",
"288 -55 OFFCURVE",
"315 -55 CURVE SMOOTH"
);
},
{
closed = 1;
nodes = (
"312 -37 OFFCURVE",
"303 -29 OFFCURVE",
"303 -20 CURVE SMOOTH",
"303 -12 OFFCURVE",
"310 -3 OFFCURVE",
"322 1 CURVE SMOOTH",
"348 10 OFFCURVE",
"392 14 OFFCURVE",
"424 21 CURVE",
"391 -13 OFFCURVE",
"354 -37 OFFCURVE",
"329 -37 CURVE SMOOTH"
);
}
);
userData = {
assembly = "NPUSHB[ ]	/* 69 values pushed */\0121 148 148 64 149 118 137 135 134 127 123 122 120 94 93 83 69 63 56 52 49 44 38 31 11 9 8 6 0 146 143 139 123 122 118 108 104 100 96 94 93 83 81 72 66 59 54 47 41 34 27 9 8 0 4 5 21 96 7 91 114 19 108 1 75 3 1 72 70 \012SROUND[ ]	/* SuperRound */\012MDAP[1]	/* MoveDirectAbsPt */\012SHZ[1]	/* ShiftZoneByLastPoint */\012RTG[ ]	/* RoundToGrid */\012SVTCA[0]	/* SetFreedomAndProjectionVectorToAxis */\012MIAP[1]	/* MoveIndirectAbsPt */\012MIAP[1]	/* MoveIndirectAbsPt */\012MDAP[1]	/* MoveDirectAbsPt */\012MDAP[1]	/* MoveDirectAbsPt */\012MDAP[1]	/* MoveDirectAbsPt */\012MIRP[11101]	/* MoveIndirectRelPt */\012SVTCA[1]	/* SetFreedomAndProjectionVectorToAxis */\012MDAP[1]	/* MoveDirectAbsPt */\012MIRP[11101]	/* MoveIndirectRelPt */\012MDAP[0]	/* MoveDirectAbsPt */\012MDAP[0]	/* MoveDirectAbsPt */\012MDAP[0]	/* MoveDirectAbsPt */\012MDAP[0]	/* MoveDirectAbsPt */\012MDAP[0]	/* MoveDirectAbsPt */\012MDAP[0]	/* MoveDirectAbsPt */\012MDAP[0]	/* MoveDirectAbsPt */\012MDAP[0]	/* MoveDirectAbsPt */\012MDAP[0]	/* MoveDirectAbsPt */\012MDAP[0]	/* MoveDirectAbsPt */\012MDAP[0]	/* MoveDirectAbsPt */\012MDAP[0]	/* MoveDirectAbsPt */\012MDAP[0]	/* MoveDirectAbsPt */\012MDAP[0]	/* MoveDirectAbsPt */\012MDAP[0]	/* MoveDirectAbsPt */\012MDAP[0]	/* MoveDirectAbsPt */\012MDAP[0]	/* MoveDirectAbsPt */\012MDAP[0]	/* MoveDirectAbsPt */\012MDAP[0]	/* MoveDirectAbsPt */\012MDAP[0]	/* MoveDirectAbsPt */\012MDAP[0]	/* MoveDirectAbsPt */\012MDAP[0]	/* MoveDirectAbsPt */\012MDAP[0]	/* MoveDirectAbsPt */\012MDAP[0]	/* MoveDirectAbsPt */\012MDAP[0]	/* MoveDirectAbsPt */\012SVTCA[0]	/* SetFreedomAndProjectionVectorToAxis */\012MDAP[0]	/* MoveDirectAbsPt */\012MDAP[0]	/* MoveDirectAbsPt */\012MDAP[0]	/* MoveDirectAbsPt */\012MDAP[0]	/* MoveDirectAbsPt */\012MDAP[0]	/* MoveDirectAbsPt */\012MDAP[0]	/* MoveDirectAbsPt */\012MDAP[0]	/* MoveDirectAbsPt */\012MDAP[0]	/* MoveDirectAbsPt */\012MDAP[0]	/* MoveDirectAbsPt */\012MDAP[0]	/* MoveDirectAbsPt */\012MDAP[0]	/* MoveDirectAbsPt */\012MDAP[0]	/* MoveDirectAbsPt */\012MDAP[0]	/* MoveDirectAbsPt */\012MDAP[0]	/* MoveDirectAbsPt */\012MDAP[0]	/* MoveDirectAbsPt */\012MDAP[0]	/* MoveDirectAbsPt */\012MDAP[0]	/* MoveDirectAbsPt */\012MDAP[0]	/* MoveDirectAbsPt */\012MDAP[0]	/* MoveDirectAbsPt */\012MDAP[0]	/* MoveDirectAbsPt */\012MDAP[0]	/* MoveDirectAbsPt */\012MDAP[0]	/* MoveDirectAbsPt */\012MDAP[0]	/* MoveDirectAbsPt */\012IUP[1]	/* InterpolateUntPts */\012IUP[0]	/* InterpolateUntPts */\012SVTCA[1]	/* SetFreedomAndProjectionVectorToAxis */\012MD[0]	/* MeasureDistance */\012ROUND[00]	/* Round */\012PUSHW[ ]	/* 2 values pushed */\01272 148 \012MD[0]	/* MeasureDistance */\012ROUND[00]	/* Round */\012SUB[ ]	/* Subtract */\012PUSHB[ ]	/* 1 value pushed */\01264 \012GT[ ]	/* GreaterThan */\012IF[ ]	/* If */\012SHPIX[ ]	/* ShiftZoneByPixel */\012SRP1[ ]	/* SetRefPoint1 */\012SHZ[1]	/* ShiftZoneByLastPoint */\012PUSHW[ ]	/* 2 values pushed */\012148 -64 \012SHPIX[ ]	/* ShiftZoneByPixel */\012EIF[ ]	/* EndIf */";
};
width = 973;
}
);
note = W;
unicode = 0057;
},
{
glyphname = X;
lastChange = "2022-03-02 21:18:25 +0000";
layers = (
{
layerId = "423D2297-FAE2-4393-80D6-0A1E9777D337";
paths = (
{
closed = 1;
nodes = (
"279 -63 OFFCURVE",
"362 79 OFFCURVE",
"482 266 CURVE",
"530 91 OFFCURVE",
"560 -38 OFFCURVE",
"666 -38 CURVE SMOOTH",
"704 -38 OFFCURVE",
"752 -6 OFFCURVE",
"752 31 CURVE SMOOTH",
"752 38 OFFCURVE",
"749 42 OFFCURVE",
"745 42 CURVE SMOOTH",
"742 42 OFFCURVE",
"740 40 OFFCURVE",
"740 35 CURVE SMOOTH",
"737 4 OFFCURVE",
"714 -21 OFFCURVE",
"685 -21 CURVE SMOOTH",
"594 -21 OFFCURVE",
"553 174 OFFCURVE",
"516 324 CURVE",
"571 420 OFFCURVE",
"605 478 OFFCURVE",
"672 544 CURVE SMOOTH",
"702 573 OFFCURVE",
"733 587 OFFCURVE",
"768 587 CURVE SMOOTH",
"803 587 OFFCURVE",
"822 570 OFFCURVE",
"822 536 CURVE SMOOTH",
"822 515 OFFCURVE",
"819 504 OFFCURVE",
"812 500 CURVE SMOOTH",
"806 497 OFFCURVE",
"805 494 OFFCURVE",
"805 491 CURVE SMOOTH",
"805 488 OFFCURVE",
"807 487 OFFCURVE",
"811 487 CURVE SMOOTH",
"830 487 OFFCURVE",
"842 509 OFFCURVE",
"842 554 CURVE SMOOTH",
"842 599 OFFCURVE",
"816 622 OFFCURVE",
"767 622 CURVE SMOOTH",
"695 622 OFFCURVE",
"608 531 OFFCURVE",
"507 350 CURVE",
"452 523 OFFCURVE",
"372 610 OFFCURVE",
"266 610 CURVE SMOOTH",
"110 610 OFFCURVE",
"18 471 OFFCURVE",
"18 356 CURVE SMOOTH",
"18 275 OFFCURVE",
"64 205 OFFCURVE",
"167 205 CURVE SMOOTH",
"236 205 OFFCURVE",
"303 254 OFFCURVE",
"303 320 CURVE SMOOTH",
"303 339 OFFCURVE",
"301 370 OFFCURVE",
"292 370 CURVE SMOOTH",
"289 370 OFFCURVE",
"287 368 OFFCURVE",
"286 364 CURVE SMOOTH",
"286 360 OFFCURVE",
"288 344 OFFCURVE",
"288 326 CURVE SMOOTH",
"288 261 OFFCURVE",
"236 220 OFFCURVE",
"175 220 CURVE SMOOTH",
"90 220 OFFCURVE",
"52 283 OFFCURVE",
"52 358 CURVE SMOOTH",
"52 465 OFFCURVE",
"131 597 OFFCURVE",
"262 597 CURVE SMOOTH",
"381 597 OFFCURVE",
"429 456 OFFCURVE",
"474 291 CURVE",
"410 174 OFFCURVE",
"338 53 OFFCURVE",
"257 -4 CURVE SMOOTH",
"232 -23 OFFCURVE",
"185 -48 OFFCURVE",
"150 -48 CURVE SMOOTH",
"122 -48 OFFCURVE",
"84 -31 OFFCURVE",
"84 0 CURVE SMOOTH",
"84 9 OFFCURVE",
"83 13 OFFCURVE",
"80 13 CURVE SMOOTH",
"74 13 OFFCURVE",
"71 6 OFFCURVE",
"71 -8 CURVE SMOOTH",
"71 -42 OFFCURVE",
"112 -63 OFFCURVE",
"149 -63 CURVE SMOOTH"
);
}
);
userData = {
assembly = "NPUSHB[ ]	/* 44 values pushed */\0121 103 103 64 104 101 95 82 66 62 61 54 48 36 30 25 20 7 0 92 86 80 77 70 62 46 13 2 5 6 101 23 6 27 74 7 89 99 42 97 2 1 92 70 \012SROUND[ ]	/* SuperRound */\012MDAP[1]	/* MoveDirectAbsPt */\012SHZ[1]	/* ShiftZoneByLastPoint */\012RTG[ ]	/* RoundToGrid */\012SVTCA[0]	/* SetFreedomAndProjectionVectorToAxis */\012MIAP[1]	/* MoveIndirectAbsPt */\012MDAP[1]	/* MoveDirectAbsPt */\012MDAP[1]	/* MoveDirectAbsPt */\012MDAP[1]	/* MoveDirectAbsPt */\012MIRP[11101]	/* MoveIndirectRelPt */\012SVTCA[1]	/* SetFreedomAndProjectionVectorToAxis */\012MDAP[1]	/* MoveDirectAbsPt */\012MIRP[11101]	/* MoveIndirectRelPt */\012MDAP[1]	/* MoveDirectAbsPt */\012MIRP[11101]	/* MoveIndirectRelPt */\012MDAP[0]	/* MoveDirectAbsPt */\012MDAP[0]	/* MoveDirectAbsPt */\012MDAP[0]	/* MoveDirectAbsPt */\012MDAP[0]	/* MoveDirectAbsPt */\012MDAP[0]	/* MoveDirectAbsPt */\012MDAP[0]	/* MoveDirectAbsPt */\012MDAP[0]	/* MoveDirectAbsPt */\012MDAP[0]	/* MoveDirectAbsPt */\012MDAP[0]	/* MoveDirectAbsPt */\012SVTCA[0]	/* SetFreedomAndProjectionVectorToAxis */\012MDAP[0]	/* MoveDirectAbsPt */\012MDAP[0]	/* MoveDirectAbsPt */\012MDAP[0]	/* MoveDirectAbsPt */\012MDAP[0]	/* MoveDirectAbsPt */\012MDAP[0]	/* MoveDirectAbsPt */\012MDAP[0]	/* MoveDirectAbsPt */\012MDAP[0]	/* MoveDirectAbsPt */\012MDAP[0]	/* MoveDirectAbsPt */\012MDAP[0]	/* MoveDirectAbsPt */\012MDAP[0]	/* MoveDirectAbsPt */\012MDAP[0]	/* MoveDirectAbsPt */\012MDAP[0]	/* MoveDirectAbsPt */\012MDAP[0]	/* MoveDirectAbsPt */\012IUP[1]	/* InterpolateUntPts */\012IUP[0]	/* InterpolateUntPts */\012SVTCA[1]	/* SetFreedomAndProjectionVectorToAxis */\012MD[0]	/* MeasureDistance */\012ROUND[00]	/* Round */\012PUSHW[ ]	/* 2 values pushed */\01292 103 \012MD[0]	/* MeasureDistance */\012ROUND[00]	/* Round */\012SUB[ ]	/* Subtract */\012PUSHB[ ]	/* 1 value pushed */\01264 \012GT[ ]	/* GreaterThan */\012IF[ ]	/* If */\012SHPIX[ ]	/* ShiftZoneByPixel */\012SRP1[ ]	/* SetRefPoint1 */\012SHZ[1]	/* ShiftZoneByLastPoint */\012PUSHW[ ]	/* 2 values pushed */\012103 -64 \012SHPIX[ ]	/* ShiftZoneByPixel */\012EIF[ ]	/* EndIf */";
};
width = 717;
}
);
note = X;
unicode = 0058;
},
{
glyphname = Y;
lastChange = "2022-03-02 21:18:25 +0000";
layers = (
{
layerId = "423D2297-FAE2-4393-80D6-0A1E9777D337";
paths = (
{
closed = 1;
nodes = (
"923 -356 OFFCURVE",
"1011 -316 OFFCURVE",
"1011 -232 CURVE SMOOTH",
"1011 -215 OFFCURVE",
"1009 -200 OFFCURVE",
"1003 -185 CURVE SMOOTH",
"1001 -180 OFFCURVE",
"997 -179 OFFCURVE",
"994 -179 CURVE SMOOTH",
"991 -179 OFFCURVE",
"988 -181 OFFCURVE",
"988 -185 CURVE SMOOTH",
"988 -187 OFFCURVE",
"988 -188 OFFCURVE",
"989 -190 CURVE SMOOTH",
"993 -202 OFFCURVE",
"995 -234 OFFCURVE",
"995 -239 CURVE SMOOTH",
"995 -303 OFFCURVE",
"933 -337 OFFCURVE",
"859 -337 CURVE SMOOTH",
"800 -337 OFFCURVE",
"706 -298 OFFCURVE",
"607 -249 CURVE",
"632 -226 OFFCURVE",
"740 -153 OFFCURVE",
"740 26 CURVE SMOOTH",
"740 118 OFFCURVE",
"718 224 OFFCURVE",
"718 306 CURVE SMOOTH",
"718 335 OFFCURVE",
"720 361 OFFCURVE",
"728 382 CURVE SMOOTH",
"742 424 OFFCURVE",
"773 454 OFFCURVE",
"811 454 CURVE SMOOTH",
"826 454 OFFCURVE",
"833 454 OFFCURVE",
"833 453 CURVE",
"832 453 LINE SMOOTH",
"841 454 OFFCURVE",
"845 459 OFFCURVE",
"845 465 CURVE SMOOTH",
"845 476 OFFCURVE",
"835 482 OFFCURVE",
"815 482 CURVE SMOOTH",
"793 482 OFFCURVE",
"774 477 OFFCURVE",
"757 466 CURVE SMOOTH",
"733 449 OFFCURVE",
"710 422 OFFCURVE",
"682 301 CURVE SMOOTH",
"654 181 OFFCURVE",
"607 9 OFFCURVE",
"482 9 CURVE SMOOTH",
"446 9 OFFCURVE",
"429 42 OFFCURVE",
"429 98 CURVE SMOOTH",
"429 182 OFFCURVE",
"515 267 OFFCURVE",
"515 431 CURVE SMOOTH",
"515 538 OFFCURVE",
"417 644 OFFCURVE",
"298 644 CURVE SMOOTH",
"142 644 OFFCURVE",
"30 530 OFFCURVE",
"30 392 CURVE SMOOTH",
"30 281 OFFCURVE",
"114 192 OFFCURVE",
"229 192 CURVE SMOOTH",
"324 192 OFFCURVE",
"410 265 OFFCURVE",
"410 355 CURVE SMOOTH",
"410 435 OFFCURVE",
"357 489 OFFCURVE",
"277 489 CURVE SMOOTH",
"198 489 OFFCURVE",
"155 433 OFFCURVE",
"155 384 CURVE SMOOTH",
"155 346 OFFCURVE",
"182 311 OFFCURVE",
"239 311 CURVE SMOOTH",
"257 311 OFFCURVE",
"270 315 OFFCURVE",
"270 329 CURVE",
"263 325 OFFCURVE",
"252 324 OFFCURVE",
"246 324 CURVE SMOOTH",
"199 324 OFFCURVE",
"176 356 OFFCURVE",
"176 390 CURVE SMOOTH",
"176 430 OFFCURVE",
"206 472 OFFCURVE",
"266 472 CURVE SMOOTH",
"331 472 OFFCURVE",
"380 425 OFFCURVE",
"380 361 CURVE SMOOTH",
"380 281 OFFCURVE",
"316 203 OFFCURVE",
"232 203 CURVE SMOOTH",
"179 203 OFFCURVE",
"136 228 OFFCURVE",
"105 267 CURVE SMOOTH",
"77 303 OFFCURVE",
"62 346 OFFCURVE",
"62 400 CURVE SMOOTH",
"62 513 OFFCURVE",
"180 631 OFFCURVE",
"298 631 CURVE SMOOTH",
"403 631 OFFCURVE",
"461 558 OFFCURVE",
"461 442 CURVE SMOOTH",
"461 316 OFFCURVE",
"394 195 OFFCURVE",
"394 101 CURVE SMOOTH",
"394 30 OFFCURVE",
"422 -6 OFFCURVE",
"491 -6 CURVE SMOOTH",
"615 -6 OFFCURVE",
"665 155 OFFCURVE",
"704 329 CURVE",
"698 296 OFFCURVE",
"687 231 OFFCURVE",
"686 190 CURVE SMOOTH",
"684 37 LINE SMOOTH",
"682 -79 OFFCURVE",
"660 -141 OFFCURVE",
"595 -241 CURVE",
"580 -232 OFFCURVE",
"506 -190 OFFCURVE",
"475 -172 CURVE SMOOTH",
"359 -107 OFFCURVE",
"282 -88 OFFCURVE",
"244 -88 CURVE SMOOTH",
"183 -88 OFFCURVE",
"144 -119 OFFCURVE",
"144 -172 CURVE SMOOTH",
"144 -265 OFFCURVE",
"214 -350 OFFCURVE",
"366 -350 CURVE SMOOTH",
"442 -350 OFFCURVE",
"528 -324 OFFCURVE",
"579 -278 CURVE",
"673 -323 OFFCURVE",
"739 -356 OFFCURVE",
"861 -356 CURVE SMOOTH"
);
},
{
closed = 1;
nodes = (
"243 -328 OFFCURVE",
"159 -245 OFFCURVE",
"159 -172 CURVE SMOOTH",
"159 -142 OFFCURVE",
"185 -126 OFFCURVE",
"229 -126 CURVE SMOOTH",
"282 -126 OFFCURVE",
"351 -158 OFFCURVE",
"430 -200 CURVE SMOOTH",
"469 -220 OFFCURVE",
"545 -258 OFFCURVE",
"564 -268 CURVE",
"513 -309 OFFCURVE",
"438 -328 OFFCURVE",
"368 -328 CURVE SMOOTH"
);
}
);
userData = {
assembly = "NPUSHB[ ]	/* 61 values pushed */\0121 163 163 64 164 155 151 142 128 126 122 112 96 90 83 70 64 57 47 41 33 27 19 17 15 13 5 1 0 155 149 146 140 137 134 124 110 106 99 93 86 81 73 67 60 53 49 41 25 7 1 0 102 159 79 2 76 2 1 99 70 \012SROUND[ ]	/* SuperRound */\012MDAP[1]	/* MoveDirectAbsPt */\012SHZ[1]	/* ShiftZoneByLastPoint */\012RTG[ ]	/* RoundToGrid */\012SVTCA[0]	/* SetFreedomAndProjectionVectorToAxis */\012MIAP[1]	/* MoveIndirectAbsPt */\012MIAP[1]	/* MoveIndirectAbsPt */\012MDAP[1]	/* MoveDirectAbsPt */\012MDAP[1]	/* MoveDirectAbsPt */\012SVTCA[1]	/* SetFreedomAndProjectionVectorToAxis */\012MDAP[0]	/* MoveDirectAbsPt */\012MDAP[0]	/* MoveDirectAbsPt */\012MDAP[0]	/* MoveDirectAbsPt */\012MDAP[0]	/* MoveDirectAbsPt */\012MDAP[0]	/* MoveDirectAbsPt */\012MDAP[0]	/* MoveDirectAbsPt */\012MDAP[0]	/* MoveDirectAbsPt */\012MDAP[0]	/* MoveDirectAbsPt */\012MDAP[0]	/* MoveDirectAbsPt */\012MDAP[0]	/* MoveDirectAbsPt */\012MDAP[0]	/* MoveDirectAbsPt */\012MDAP[0]	/* MoveDirectAbsPt */\012MDAP[0]	/* MoveDirectAbsPt */\012MDAP[0]	/* MoveDirectAbsPt */\012MDAP[0]	/* MoveDirectAbsPt */\012MDAP[0]	/* MoveDirectAbsPt */\012MDAP[0]	/* MoveDirectAbsPt */\012MDAP[0]	/* MoveDirectAbsPt */\012MDAP[0]	/* MoveDirectAbsPt */\012MDAP[0]	/* MoveDirectAbsPt */\012MDAP[0]	/* MoveDirectAbsPt */\012MDAP[0]	/* MoveDirectAbsPt */\012MDAP[0]	/* MoveDirectAbsPt */\012SVTCA[0]	/* SetFreedomAndProjectionVectorToAxis */\012MDAP[0]	/* MoveDirectAbsPt */\012MDAP[0]	/* MoveDirectAbsPt */\012MDAP[0]	/* MoveDirectAbsPt */\012MDAP[0]	/* MoveDirectAbsPt */\012MDAP[0]	/* MoveDirectAbsPt */\012MDAP[0]	/* MoveDirectAbsPt */\012MDAP[0]	/* MoveDirectAbsPt */\012MDAP[0]	/* MoveDirectAbsPt */\012MDAP[0]	/* MoveDirectAbsPt */\012MDAP[0]	/* MoveDirectAbsPt */\012MDAP[0]	/* MoveDirectAbsPt */\012MDAP[0]	/* MoveDirectAbsPt */\012MDAP[0]	/* MoveDirectAbsPt */\012MDAP[0]	/* MoveDirectAbsPt */\012MDAP[0]	/* MoveDirectAbsPt */\012MDAP[0]	/* MoveDirectAbsPt */\012MDAP[0]	/* MoveDirectAbsPt */\012MDAP[0]	/* MoveDirectAbsPt */\012MDAP[0]	/* MoveDirectAbsPt */\012MDAP[0]	/* MoveDirectAbsPt */\012MDAP[0]	/* MoveDirectAbsPt */\012MDAP[0]	/* MoveDirectAbsPt */\012MDAP[0]	/* MoveDirectAbsPt */\012IUP[1]	/* InterpolateUntPts */\012IUP[0]	/* InterpolateUntPts */\012SVTCA[1]	/* SetFreedomAndProjectionVectorToAxis */\012MD[0]	/* MeasureDistance */\012ROUND[00]	/* Round */\012PUSHW[ ]	/* 2 values pushed */\01299 163 \012MD[0]	/* MeasureDistance */\012ROUND[00]	/* Round */\012SUB[ ]	/* Subtract */\012PUSHB[ ]	/* 1 value pushed */\01264 \012GT[ ]	/* GreaterThan */\012IF[ ]	/* If */\012SHPIX[ ]	/* ShiftZoneByPixel */\012SRP1[ ]	/* SetRefPoint1 */\012SHZ[1]	/* ShiftZoneByLastPoint */\012PUSHW[ ]	/* 2 values pushed */\012163 -64 \012SHPIX[ ]	/* ShiftZoneByPixel */\012EIF[ ]	/* EndIf */";
};
width = 800;
}
);
note = Y;
unicode = 0059;
},
{
glyphname = Z;
lastChange = "2022-03-02 21:18:25 +0000";
layers = (
{
layerId = "423D2297-FAE2-4393-80D6-0A1E9777D337";
paths = (
{
closed = 1;
nodes = (
"334 -340 OFFCURVE",
"496 -229 OFFCURVE",
"544 -93 CURVE",
"577 -86 OFFCURVE",
"659 -65 OFFCURVE",
"659 -39 CURVE SMOOTH",
"659 -31 OFFCURVE",
"653 -30 OFFCURVE",
"649 -30 CURVE SMOOTH",
"647 -30 LINE",
"647 -37 OFFCURVE",
"642 -42 OFFCURVE",
"641 -43 CURVE SMOOTH",
"626 -59 OFFCURVE",
"578 -73 OFFCURVE",
"549 -78 CURVE",
"557 -51 OFFCURVE",
"561 -23 OFFCURVE",
"561 7 CURVE SMOOTH",
"561 82 OFFCURVE",
"529 138 OFFCURVE",
"481 175 CURVE",
"527 243 OFFCURVE",
"548 312 OFFCURVE",
"548 373 CURVE SMOOTH",
"548 499 OFFCURVE",
"458 594 OFFCURVE",
"303 594 CURVE SMOOTH",
"173 594 OFFCURVE",
"41 503 OFFCURVE",
"41 370 CURVE SMOOTH",
"41 281 OFFCURVE",
"101 216 OFFCURVE",
"190 216 CURVE SMOOTH",
"265 216 OFFCURVE",
"307 263 OFFCURVE",
"312 318 CURVE SMOOTH",
"313 327 OFFCURVE",
"309 329 OFFCURVE",
"306 329 CURVE SMOOTH",
"303 329 OFFCURVE",
"301 328 OFFCURVE",
"300 327 CURVE",
"290 265 OFFCURVE",
"257 230 OFFCURVE",
"193 230 CURVE SMOOTH",
"116 230 OFFCURVE",
"75 286 OFFCURVE",
"75 367 CURVE SMOOTH",
"75 490 OFFCURVE",
"180 575 OFFCURVE",
"306 575 CURVE SMOOTH",
"427 575 OFFCURVE",
"497 481 OFFCURVE",
"497 371 CURVE SMOOTH",
"497 314 OFFCURVE",
"478 252 OFFCURVE",
"438 197 CURVE",
"424 201 OFFCURVE",
"409 203 OFFCURVE",
"393 203 CURVE SMOOTH",
"303 203 OFFCURVE",
"242 148 OFFCURVE",
"242 107 CURVE SMOOTH",
"242 84 OFFCURVE",
"263 65 OFFCURVE",
"310 65 CURVE SMOOTH",
"354 65 OFFCURVE",
"414 99 OFFCURVE",
"457 147 CURVE",
"496 118 OFFCURVE",
"515 70 OFFCURVE",
"515 3 CURVE SMOOTH",
"515 -28 OFFCURVE",
"510 -58 OFFCURVE",
"499 -89 CURVE",
"309 -115 OFFCURVE",
"73 -147 OFFCURVE",
"73 -259 CURVE SMOOTH",
"73 -316 OFFCURVE",
"128 -340 OFFCURVE",
"190 -340 CURVE SMOOTH"
);
},
{
closed = 1;
nodes = (
"145 -326 OFFCURVE",
"93 -305 OFFCURVE",
"93 -265 CURVE SMOOTH",
"93 -168 OFFCURVE",
"353 -123 OFFCURVE",
"493 -104 CURVE",
"444 -224 OFFCURVE",
"318 -326 OFFCURVE",
"191 -326 CURVE SMOOTH"
);
},
{
closed = 1;
nodes = (
"273 90 OFFCURVE",
"266 97 OFFCURVE",
"266 108 CURVE SMOOTH",
"266 133 OFFCURVE",
"308 177 OFFCURVE",
"361 177 CURVE SMOOTH",
"390 177 OFFCURVE",
"418 173 OFFCURVE",
"421 171 CURVE",
"387 129 OFFCURVE",
"348 90 OFFCURVE",
"290 90 CURVE SMOOTH"
);
}
);
userData = {
assembly = "NPUSHB[ ]	/* 47 values pushed */\0121 111 111 64 112 82 98 94 80 74 57 49 45 35 30 26 25 21 17 104 98 92 86 82 74 72 70 68 60 53 51 39 32 23 15 7 88 8 28 108 7 3 64 3 1 60 70 \012SROUND[ ]	/* SuperRound */\012MDAP[1]	/* MoveDirectAbsPt */\012SHZ[1]	/* ShiftZoneByLastPoint */\012RTG[ ]	/* RoundToGrid */\012SVTCA[0]	/* SetFreedomAndProjectionVectorToAxis */\012MDAP[1]	/* MoveDirectAbsPt */\012MDAP[1]	/* MoveDirectAbsPt */\012SRP0[ ]	/* SetRefPoint0 */\012MIRP[11101]	/* MoveIndirectRelPt */\012MDAP[1]	/* MoveDirectAbsPt */\012MIRP[11101]	/* MoveIndirectRelPt */\012SVTCA[1]	/* SetFreedomAndProjectionVectorToAxis */\012MDAP[0]	/* MoveDirectAbsPt */\012MDAP[0]	/* MoveDirectAbsPt */\012MDAP[0]	/* MoveDirectAbsPt */\012MDAP[0]	/* MoveDirectAbsPt */\012MDAP[0]	/* MoveDirectAbsPt */\012MDAP[0]	/* MoveDirectAbsPt */\012MDAP[0]	/* MoveDirectAbsPt */\012MDAP[0]	/* MoveDirectAbsPt */\012MDAP[0]	/* MoveDirectAbsPt */\012MDAP[0]	/* MoveDirectAbsPt */\012MDAP[0]	/* MoveDirectAbsPt */\012MDAP[0]	/* MoveDirectAbsPt */\012MDAP[0]	/* MoveDirectAbsPt */\012MDAP[0]	/* MoveDirectAbsPt */\012MDAP[0]	/* MoveDirectAbsPt */\012MDAP[0]	/* MoveDirectAbsPt */\012MDAP[0]	/* MoveDirectAbsPt */\012SVTCA[0]	/* SetFreedomAndProjectionVectorToAxis */\012MDAP[0]	/* MoveDirectAbsPt */\012MDAP[0]	/* MoveDirectAbsPt */\012MDAP[0]	/* MoveDirectAbsPt */\012MDAP[0]	/* MoveDirectAbsPt */\012MDAP[0]	/* MoveDirectAbsPt */\012MDAP[0]	/* MoveDirectAbsPt */\012MDAP[0]	/* MoveDirectAbsPt */\012MDAP[0]	/* MoveDirectAbsPt */\012MDAP[0]	/* MoveDirectAbsPt */\012MDAP[0]	/* MoveDirectAbsPt */\012MDAP[0]	/* MoveDirectAbsPt */\012MDAP[0]	/* MoveDirectAbsPt */\012MDAP[0]	/* MoveDirectAbsPt */\012IUP[1]	/* InterpolateUntPts */\012IUP[0]	/* InterpolateUntPts */\012SVTCA[1]	/* SetFreedomAndProjectionVectorToAxis */\012MD[0]	/* MeasureDistance */\012ROUND[00]	/* Round */\012PUSHW[ ]	/* 2 values pushed */\01260 111 \012MD[0]	/* MeasureDistance */\012ROUND[00]	/* Round */\012SUB[ ]	/* Subtract */\012PUSHB[ ]	/* 1 value pushed */\01264 \012GT[ ]	/* GreaterThan */\012IF[ ]	/* If */\012SHPIX[ ]	/* ShiftZoneByPixel */\012SRP1[ ]	/* SetRefPoint1 */\012SHZ[1]	/* ShiftZoneByLastPoint */\012PUSHW[ ]	/* 2 values pushed */\012111 -64 \012SHPIX[ ]	/* ShiftZoneByPixel */\012EIF[ ]	/* EndIf */";
};
width = 580;
}
);
note = Z;
unicode = 005A;
},
{
glyphname = a;
lastChange = "2022-03-02 21:18:25 +0000";
layers = (
{
layerId = "423D2297-FAE2-4393-80D6-0A1E9777D337";
paths = (
{
closed = 1;
nodes = (
"100 -1 OFFCURVE",
"104 -1 OFFCURVE",
"109 0 CURVE SMOOTH",
"143 7 OFFCURVE",
"169 47 OFFCURVE",
"188 120 CURVE",
"187 66 OFFCURVE",
"200 1 OFFCURVE",
"249 1 CURVE SMOOTH",
"317 1 OFFCURVE",
"341 90 OFFCURVE",
"357 172 CURVE SMOOTH",
"358 180 OFFCURVE",
"356 183 OFFCURVE",
"352 183 CURVE SMOOTH",
"349 183 OFFCURVE",
"346 179 OFFCURVE",
"345 172 CURVE SMOOTH",
"333 110 OFFCURVE",
"301 15 OFFCURVE",
"257 15 CURVE SMOOTH",
"237 15 OFFCURVE",
"231 40 OFFCURVE",
"231 91 CURVE SMOOTH",
"231 123 OFFCURVE",
"233 156 OFFCURVE",
"237 190 CURVE SMOOTH",
"258 368 LINE",
"257 372 OFFCURVE",
"255 374 OFFCURVE",
"253 374 CURVE SMOOTH",
"252 374 OFFCURVE",
"250 373 OFFCURVE",
"249 370 CURVE",
"241 355 OFFCURVE",
"231 348 OFFCURVE",
"218 348 CURVE SMOOTH",
"215 348 OFFCURVE",
"212 348 OFFCURVE",
"209 349 CURVE",
"200 267 LINE",
"195 324 OFFCURVE",
"174 352 OFFCURVE",
"137 352 CURVE SMOOTH",
"59 352 OFFCURVE",
"18 241 OFFCURVE",
"18 141 CURVE SMOOTH",
"18 72 OFFCURVE",
"38 -1 OFFCURVE",
"95 -1 CURVE SMOOTH"
);
},
{
closed = 1;
nodes = (
"75 7 OFFCURVE",
"64 82 OFFCURVE",
"64 137 CURVE SMOOTH",
"64 209 OFFCURVE",
"98 340 OFFCURVE",
"143 340 CURVE SMOOTH",
"178 340 OFFCURVE",
"190 279 OFFCURVE",
"190 224 CURVE SMOOTH",
"190 208 OFFCURVE",
"189 192 OFFCURVE",
"187 178 CURVE SMOOTH",
"176 108 OFFCURVE",
"149 12 OFFCURVE",
"104 12 CURVE"
);
}
);
userData = {
assembly = "NPUSHB[ ]	/* 32 values pushed */\0121 64 64 64 65 0 50 42 36 24 8 56 51 50 46 34 31 16 0 60 7 12 29 2 22 2 12 4 1 1 16 70 \012SROUND[ ]	/* SuperRound */\012MDAP[1]	/* MoveDirectAbsPt */\012SHZ[1]	/* ShiftZoneByLastPoint */\012RTG[ ]	/* RoundToGrid */\012SVTCA[0]	/* SetFreedomAndProjectionVectorToAxis */\012MIAP[1]	/* MoveIndirectAbsPt */\012ALIGNRP[ ]	/* AlignRelativePt */\012MIAP[1]	/* MoveIndirectAbsPt */\012MIAP[1]	/* MoveIndirectAbsPt */\012SRP0[ ]	/* SetRefPoint0 */\012MIRP[11101]	/* MoveIndirectRelPt */\012SVTCA[1]	/* SetFreedomAndProjectionVectorToAxis */\012MDAP[0]	/* MoveDirectAbsPt */\012MDAP[0]	/* MoveDirectAbsPt */\012MDAP[0]	/* MoveDirectAbsPt */\012MDAP[0]	/* MoveDirectAbsPt */\012MDAP[0]	/* MoveDirectAbsPt */\012MDAP[0]	/* MoveDirectAbsPt */\012MDAP[0]	/* MoveDirectAbsPt */\012MDAP[0]	/* MoveDirectAbsPt */\012SVTCA[0]	/* SetFreedomAndProjectionVectorToAxis */\012MDAP[0]	/* MoveDirectAbsPt */\012MDAP[0]	/* MoveDirectAbsPt */\012MDAP[0]	/* MoveDirectAbsPt */\012MDAP[0]	/* MoveDirectAbsPt */\012MDAP[0]	/* MoveDirectAbsPt */\012IUP[1]	/* InterpolateUntPts */\012IUP[0]	/* InterpolateUntPts */\012SVTCA[1]	/* SetFreedomAndProjectionVectorToAxis */\012MD[0]	/* MeasureDistance */\012ROUND[00]	/* Round */\012PUSHW[ ]	/* 2 values pushed */\01216 64 \012MD[0]	/* MeasureDistance */\012ROUND[00]	/* Round */\012SUB[ ]	/* Subtract */\012PUSHB[ ]	/* 1 value pushed */\01264 \012GT[ ]	/* GreaterThan */\012IF[ ]	/* If */\012SHPIX[ ]	/* ShiftZoneByPixel */\012SRP1[ ]	/* SetRefPoint1 */\012SHZ[1]	/* ShiftZoneByLastPoint */\012PUSHW[ ]	/* 2 values pushed */\01264 -64 \012SHPIX[ ]	/* ShiftZoneByPixel */\012EIF[ ]	/* EndIf */";
};
width = 327;
}
);
note = a;
unicode = 0061;
},
{
glyphname = ae;
lastChange = "2022-03-02 21:18:25 +0000";
layers = (
{
background = {
components = (
{
name = e;
transform = "{1, 0, 0, 1, 170, 0}";
}
);
};
layerId = "423D2297-FAE2-4393-80D6-0A1E9777D337";
paths = (
{
closed = 1;
nodes = (
"100 -1 OFFCURVE",
"104 -1 OFFCURVE",
"109 0 CURVE SMOOTH",
"139 6 OFFCURVE",
"163 38 OFFCURVE",
"187 116 CURVE",
"193 53 OFFCURVE",
"227 -1 OFFCURVE",
"288 -1 CURVE SMOOTH",
"347 -1 OFFCURVE",
"391 56 OFFCURVE",
"417 172 CURVE SMOOTH",
"418 179 OFFCURVE",
"416 182 OFFCURVE",
"412 182 CURVE SMOOTH",
"409 182 OFFCURVE",
"406 177 OFFCURVE",
"405 172 CURVE SMOOTH",
"383 70 OFFCURVE",
"339 13 OFFCURVE",
"291 13 CURVE SMOOTH",
"251 13 OFFCURVE",
"230 55 OFFCURVE",
"230 143 CURVE",
"272 143 OFFCURVE",
"306 168 OFFCURVE",
"333 218 CURVE SMOOTH",
"346 241 OFFCURVE",
"352 266 OFFCURVE",
"352 293 CURVE SMOOTH",
"352 316 OFFCURVE",
"347 331 OFFCURVE",
"336 340 CURVE SMOOTH",
"327 347 OFFCURVE",
"316 350 OFFCURVE",
"305 350 CURVE SMOOTH",
"287 350 OFFCURVE",
"269 342 OFFCURVE",
"253 327 CURVE",
"258 368 LINE",
"257 372 OFFCURVE",
"255 374 OFFCURVE",
"253 374 CURVE SMOOTH",
"252 374 OFFCURVE",
"250 373 OFFCURVE",
"249 370 CURVE SMOOTH",
"242 355 OFFCURVE",
"231 348 OFFCURVE",
"218 348 CURVE SMOOTH",
"215 348 OFFCURVE",
"212 348 OFFCURVE",
"209 349 CURVE",
"200 267 LINE",
"195 324 OFFCURVE",
"174 352 OFFCURVE",
"137 352 CURVE SMOOTH",
"59 352 OFFCURVE",
"18 241 OFFCURVE",
"18 141 CURVE SMOOTH",
"18 72 OFFCURVE",
"38 -1 OFFCURVE",
"95 -1 CURVE SMOOTH"
);
},
{
closed = 1;
nodes = (
"75 7 OFFCURVE",
"64 82 OFFCURVE",
"64 137 CURVE SMOOTH",
"64 209 OFFCURVE",
"98 340 OFFCURVE",
"143 340 CURVE SMOOTH",
"178 340 OFFCURVE",
"190 279 OFFCURVE",
"190 224 CURVE SMOOTH",
"190 208 OFFCURVE",
"189 192 OFFCURVE",
"187 178 CURVE SMOOTH",
"176 108 OFFCURVE",
"149 12 OFFCURVE",
"104 12 CURVE"
);
},
{
closed = 1;
nodes = (
"230 226 OFFCURVE",
"277 337 OFFCURVE",
"316 337 CURVE SMOOTH",
"321 337 OFFCURVE",
"326 335 OFFCURVE",
"331 332 CURVE SMOOTH",
"336 329 OFFCURVE",
"338 318 OFFCURVE",
"338 300 CURVE SMOOTH",
"338 269 OFFCURVE",
"330 242 OFFCURVE",
"315 218 CURVE",
"316 219 LINE",
"289 176 OFFCURVE",
"260 155 OFFCURVE",
"231 155 CURVE"
);
}
);
width = 387;
}
);
note = ae;
unicode = 00E6;
},
{
glyphname = b;
lastChange = "2022-03-02 21:18:25 +0000";
layers = (
{
layerId = "423D2297-FAE2-4393-80D6-0A1E9777D337";
paths = (
{
closed = 1;
nodes = (
"162 -3 OFFCURVE",
"187 42 OFFCURVE",
"199 145 CURVE",
"211 117 OFFCURVE",
"232 105 OFFCURVE",
"254 105 CURVE SMOOTH",
"284 105 OFFCURVE",
"314 129 OFFCURVE",
"320 172 CURVE SMOOTH",
"321 176 OFFCURVE",
"319 178 OFFCURVE",
"315 178 CURVE SMOOTH",
"311 178 OFFCURVE",
"309 176 OFFCURVE",
"308 172 CURVE SMOOTH",
"303 137 OFFCURVE",
"280 118 OFFCURVE",
"256 118 CURVE SMOOTH",
"235 118 OFFCURVE",
"214 133 OFFCURVE",
"204 164 CURVE",
"206 191 LINE SMOOTH",
"208 211 OFFCURVE",
"209 228 OFFCURVE",
"209 241 CURVE SMOOTH",
"209 286 OFFCURVE",
"200 306 OFFCURVE",
"182 303 CURVE",
"171 298 OFFCURVE",
"165 283 OFFCURVE",
"165 258 CURVE SMOOTH",
"165 217 OFFCURVE",
"172 183 OFFCURVE",
"189 155 CURVE",
"170 54 OFFCURVE",
"145 10 OFFCURVE",
"112 10 CURVE SMOOTH",
"79 10 OFFCURVE",
"63 49 OFFCURVE",
"63 128 CURVE SMOOTH",
"63 169 OFFCURVE",
"68 222 OFFCURVE",
"78 285 CURVE",
"160 334 OFFCURVE",
"273 482 OFFCURVE",
"273 599 CURVE SMOOTH",
"273 638 OFFCURVE",
"258 658 OFFCURVE",
"229 658 CURVE SMOOTH",
"204 658 OFFCURVE",
"176 639 OFFCURVE",
"146 600 CURVE SMOOTH",
"113 557 OFFCURVE",
"85 501 OFFCURVE",
"64 432 CURVE SMOOTH",
"39 354 OFFCURVE",
"21 265 OFFCURVE",
"18 172 CURVE",
"21 172 OFFCURVE",
"23 171 OFFCURVE",
"23 166 CURVE SMOOTH",
"23 84 OFFCURVE",
"29 -3 OFFCURVE",
"105 -3 CURVE SMOOTH"
);
},
{
closed = 1;
nodes = (
"96 377 OFFCURVE",
"112 443 OFFCURVE",
"132 503 CURVE SMOOTH",
"164 598 OFFCURVE",
"199 644 OFFCURVE",
"235 644 CURVE SMOOTH",
"254 644 OFFCURVE",
"257 628 OFFCURVE",
"257 602 CURVE SMOOTH",
"257 501 OFFCURVE",
"160 366 OFFCURVE",
"84 304 CURVE"
);
}
);
userData = {
assembly = "NPUSHB[ ]	/* 39 values pushed */\0121 62 62 64 63 0 53 49 47 43 35 31 30 4 2 60 58 57 53 41 31 26 18 0 33 5 37 12 5 10 28 7 6 16 6 1 1 10 70 \012SROUND[ ]	/* SuperRound */\012MDAP[1]	/* MoveDirectAbsPt */\012SHZ[1]	/* ShiftZoneByLastPoint */\012RTG[ ]	/* RoundToGrid */\012SVTCA[0]	/* SetFreedomAndProjectionVectorToAxis */\012MIAP[1]	/* MoveIndirectAbsPt */\012MDAP[1]	/* MoveDirectAbsPt */\012SRP0[ ]	/* SetRefPoint0 */\012MIRP[11101]	/* MoveIndirectRelPt */\012SVTCA[1]	/* SetFreedomAndProjectionVectorToAxis */\012MDAP[1]	/* MoveDirectAbsPt */\012MIRP[11101]	/* MoveIndirectRelPt */\012MDAP[1]	/* MoveDirectAbsPt */\012MIRP[11101]	/* MoveIndirectRelPt */\012MDAP[0]	/* MoveDirectAbsPt */\012MDAP[0]	/* MoveDirectAbsPt */\012MDAP[0]	/* MoveDirectAbsPt */\012MDAP[0]	/* MoveDirectAbsPt */\012MDAP[0]	/* MoveDirectAbsPt */\012MDAP[0]	/* MoveDirectAbsPt */\012MDAP[0]	/* MoveDirectAbsPt */\012MDAP[0]	/* MoveDirectAbsPt */\012MDAP[0]	/* MoveDirectAbsPt */\012SVTCA[0]	/* SetFreedomAndProjectionVectorToAxis */\012MDAP[0]	/* MoveDirectAbsPt */\012MDAP[0]	/* MoveDirectAbsPt */\012MDAP[0]	/* MoveDirectAbsPt */\012MDAP[0]	/* MoveDirectAbsPt */\012MDAP[0]	/* MoveDirectAbsPt */\012MDAP[0]	/* MoveDirectAbsPt */\012MDAP[0]	/* MoveDirectAbsPt */\012MDAP[0]	/* MoveDirectAbsPt */\012MDAP[0]	/* MoveDirectAbsPt */\012IUP[1]	/* InterpolateUntPts */\012IUP[0]	/* InterpolateUntPts */\012SVTCA[1]	/* SetFreedomAndProjectionVectorToAxis */\012MD[0]	/* MeasureDistance */\012ROUND[00]	/* Round */\012PUSHW[ ]	/* 2 values pushed */\01210 62 \012MD[0]	/* MeasureDistance */\012ROUND[00]	/* Round */\012SUB[ ]	/* Subtract */\012PUSHB[ ]	/* 1 value pushed */\01264 \012GT[ ]	/* GreaterThan */\012IF[ ]	/* If */\012SHPIX[ ]	/* ShiftZoneByPixel */\012SRP1[ ]	/* SetRefPoint1 */\012SHZ[1]	/* ShiftZoneByLastPoint */\012PUSHW[ ]	/* 2 values pushed */\01262 -64 \012SHPIX[ ]	/* ShiftZoneByPixel */\012EIF[ ]	/* EndIf */";
};
width = 290;
}
);
note = b;
unicode = 0062;
},
{
glyphname = c;
lastChange = "2022-03-02 21:18:25 +0000";
layers = (
{
layerId = "423D2297-FAE2-4393-80D6-0A1E9777D337";
paths = (
{
closed = 1;
nodes = (
"198 -3 OFFCURVE",
"244 83 OFFCURVE",
"261 172 CURVE SMOOTH",
"262 176 OFFCURVE",
"261 181 OFFCURVE",
"256 181 CURVE SMOOTH",
"253 181 OFFCURVE",
"251 180 OFFCURVE",
"249 172 CURVE SMOOTH",
"234 94 OFFCURVE",
"188 11 OFFCURVE",
"125 11 CURVE SMOOTH",
"76 11 OFFCURVE",
"65 70 OFFCURVE",
"65 141 CURVE SMOOTH",
"65 226 OFFCURVE",
"100 336 OFFCURVE",
"153 336 CURVE SMOOTH",
"174 336 OFFCURVE",
"186 321 OFFCURVE",
"186 291 CURVE SMOOTH",
"186 264 OFFCURVE",
"146 253 OFFCURVE",
"146 218 CURVE SMOOTH",
"146 208 OFFCURVE",
"152 200 OFFCURVE",
"162 200 CURVE SMOOTH",
"189 200 OFFCURVE",
"200 249 OFFCURVE",
"200 281 CURVE SMOOTH",
"200 329 OFFCURVE",
"179 354 OFFCURVE",
"139 354 CURVE SMOOTH",
"67 354 OFFCURVE",
"18 260 OFFCURVE",
"18 163 CURVE SMOOTH",
"18 87 OFFCURVE",
"35 -3 OFFCURVE",
"120 -3 CURVE SMOOTH"
);
}
);
userData = {
assembly = "NPUSHB[ ]	/* 25 values pushed */\0121 52 52 64 53 0 50 34 22 40 32 26 18 10 0 44 7 4 16 2 4 1 1 10 70 \012SROUND[ ]	/* SuperRound */\012MDAP[1]	/* MoveDirectAbsPt */\012SHZ[1]	/* ShiftZoneByLastPoint */\012RTG[ ]	/* RoundToGrid */\012SVTCA[0]	/* SetFreedomAndProjectionVectorToAxis */\012MIAP[1]	/* MoveIndirectAbsPt */\012MIAP[1]	/* MoveIndirectAbsPt */\012SRP0[ ]	/* SetRefPoint0 */\012MIRP[11101]	/* MoveIndirectRelPt */\012SVTCA[1]	/* SetFreedomAndProjectionVectorToAxis */\012MDAP[0]	/* MoveDirectAbsPt */\012MDAP[0]	/* MoveDirectAbsPt */\012MDAP[0]	/* MoveDirectAbsPt */\012MDAP[0]	/* MoveDirectAbsPt */\012MDAP[0]	/* MoveDirectAbsPt */\012MDAP[0]	/* MoveDirectAbsPt */\012SVTCA[0]	/* SetFreedomAndProjectionVectorToAxis */\012MDAP[0]	/* MoveDirectAbsPt */\012MDAP[0]	/* MoveDirectAbsPt */\012MDAP[0]	/* MoveDirectAbsPt */\012IUP[1]	/* InterpolateUntPts */\012IUP[0]	/* InterpolateUntPts */\012SVTCA[1]	/* SetFreedomAndProjectionVectorToAxis */\012MD[0]	/* MeasureDistance */\012ROUND[00]	/* Round */\012PUSHW[ ]	/* 2 values pushed */\01210 52 \012MD[0]	/* MeasureDistance */\012ROUND[00]	/* Round */\012SUB[ ]	/* Subtract */\012PUSHB[ ]	/* 1 value pushed */\01264 \012GT[ ]	/* GreaterThan */\012IF[ ]	/* If */\012SHPIX[ ]	/* ShiftZoneByPixel */\012SRP1[ ]	/* SetRefPoint1 */\012SHZ[1]	/* ShiftZoneByLastPoint */\012PUSHW[ ]	/* 2 values pushed */\01252 -64 \012SHPIX[ ]	/* ShiftZoneByPixel */\012EIF[ ]	/* EndIf */";
};
width = 231;
}
);
note = c;
unicode = 0063;
},
{
glyphname = d;
lastChange = "2022-03-02 21:18:25 +0000";
layers = (
{
background = {
paths = (
{
closed = 0;
nodes = (
"187 116 LINE",
"189 37 OFFCURVE",
"207 -8 OFFCURVE",
"251 -8 CURVE SMOOTH",
"278 -8 OFFCURVE",
"303 14 OFFCURVE",
"326 68 CURVE SMOOTH",
"337 95 OFFCURVE",
"347 127 OFFCURVE",
"356 167 CURVE SMOOTH",
"357 172 OFFCURVE",
"355 174 OFFCURVE",
"351 174 CURVE SMOOTH",
"348 174 OFFCURVE",
"345 172 OFFCURVE",
"344 167 CURVE SMOOTH",
"340 145 OFFCURVE",
"329 105 OFFCURVE",
"316 75 CURVE SMOOTH",
"294 23 OFFCURVE",
"271 5 OFFCURVE",
"251 5 CURVE SMOOTH",
"229 5 OFFCURVE",
"224 55 OFFCURVE",
"224 77 CURVE SMOOTH",
"224 133 OFFCURVE",
"231 183 OFFCURVE",
"244 264 CURVE SMOOTH"
);
}
);
};
layerId = "423D2297-FAE2-4393-80D6-0A1E9777D337";
paths = (
{
closed = 1;
nodes = (
"137 -4 OFFCURVE",
"168 37 OFFCURVE",
"187 121 CURVE",
"189 42 OFFCURVE",
"207 -3 OFFCURVE",
"251 -3 CURVE SMOOTH",
"278 -3 OFFCURVE",
"303 19 OFFCURVE",
"326 73 CURVE SMOOTH",
"337 100 OFFCURVE",
"347 132 OFFCURVE",
"356 172 CURVE SMOOTH",
"357 177 OFFCURVE",
"355 179 OFFCURVE",
"351 179 CURVE SMOOTH",
"348 179 OFFCURVE",
"345 177 OFFCURVE",
"344 172 CURVE SMOOTH",
"340 150 OFFCURVE",
"329 110 OFFCURVE",
"316 80 CURVE SMOOTH",
"294 28 OFFCURVE",
"271 10 OFFCURVE",
"251 10 CURVE SMOOTH",
"231 10 OFFCURVE",
"224 40 OFFCURVE",
"224 84 CURVE SMOOTH",
"224 136 OFFCURVE",
"234 208 OFFCURVE",
"244 270 CURVE SMOOTH",
"248 294 OFFCURVE",
"252 320 OFFCURVE",
"257 347 CURVE SMOOTH",
"284 481 OFFCURVE",
"301 557 OFFCURVE",
"307 575 CURVE SMOOTH",
"308 579 OFFCURVE",
"306 581 OFFCURVE",
"303 581 CURVE SMOOTH",
"302 581 OFFCURVE",
"301 580 OFFCURVE",
"300 579 CURVE",
"292 564 OFFCURVE",
"281 556 OFFCURVE",
"266 556 CURVE SMOOTH",
"261 556 OFFCURVE",
"256 557 OFFCURVE",
"251 558 CURVE",
"202 261 LINE",
"202 286 OFFCURVE",
"197 306 OFFCURVE",
"187 322 CURVE SMOOTH",
"176 340 OFFCURVE",
"159 349 OFFCURVE",
"137 349 CURVE SMOOTH",
"101 349 OFFCURVE",
"71 326 OFFCURVE",
"48 281 CURVE SMOOTH",
"27 240 OFFCURVE",
"17 196 OFFCURVE",
"17 147 CURVE SMOOTH",
"17 58 OFFCURVE",
"49 -4 OFFCURVE",
"98 -4 CURVE SMOOTH"
);
},
{
closed = 1;
nodes = (
"76 2 OFFCURVE",
"62 72 OFFCURVE",
"62 128 CURVE SMOOTH",
"62 193 OFFCURVE",
"92 337 OFFCURVE",
"142 337 CURVE SMOOTH",
"173 337 OFFCURVE",
"191 289 OFFCURVE",
"191 229 CURVE SMOOTH",
"191 210 OFFCURVE",
"188 193 OFFCURVE",
"185 174 CURVE SMOOTH",
"173 89 OFFCURVE",
"137 13 OFFCURVE",
"106 9 CURVE"
);
}
);
userData = {
assembly = "NPUSHB[ ]	/* 35 values pushed */\0121 60 60 64 61 0 59 57 50 45 43 37 25 23 22 18 9 59 47 45 35 31 5 4 0 54 5 14 29 11 4 1 1 14 70 \012SROUND[ ]	/* SuperRound */\012MDAP[1]	/* MoveDirectAbsPt */\012SHZ[1]	/* ShiftZoneByLastPoint */\012RTG[ ]	/* RoundToGrid */\012SVTCA[0]	/* SetFreedomAndProjectionVectorToAxis */\012MIAP[1]	/* MoveIndirectAbsPt */\012ALIGNRP[ ]	/* AlignRelativePt */\012MDAP[1]	/* MoveDirectAbsPt */\012SVTCA[1]	/* SetFreedomAndProjectionVectorToAxis */\012MDAP[1]	/* MoveDirectAbsPt */\012MIRP[11101]	/* MoveIndirectRelPt */\012MDAP[0]	/* MoveDirectAbsPt */\012MDAP[0]	/* MoveDirectAbsPt */\012MDAP[0]	/* MoveDirectAbsPt */\012MDAP[0]	/* MoveDirectAbsPt */\012MDAP[0]	/* MoveDirectAbsPt */\012MDAP[0]	/* MoveDirectAbsPt */\012MDAP[0]	/* MoveDirectAbsPt */\012MDAP[0]	/* MoveDirectAbsPt */\012SVTCA[0]	/* SetFreedomAndProjectionVectorToAxis */\012MDAP[0]	/* MoveDirectAbsPt */\012MDAP[0]	/* MoveDirectAbsPt */\012MDAP[0]	/* MoveDirectAbsPt */\012MDAP[0]	/* MoveDirectAbsPt */\012MDAP[0]	/* MoveDirectAbsPt */\012MDAP[0]	/* MoveDirectAbsPt */\012MDAP[0]	/* MoveDirectAbsPt */\012MDAP[0]	/* MoveDirectAbsPt */\012MDAP[0]	/* MoveDirectAbsPt */\012MDAP[0]	/* MoveDirectAbsPt */\012MDAP[0]	/* MoveDirectAbsPt */\012IUP[1]	/* InterpolateUntPts */\012IUP[0]	/* InterpolateUntPts */\012SVTCA[1]	/* SetFreedomAndProjectionVectorToAxis */\012MD[0]	/* MeasureDistance */\012ROUND[00]	/* Round */\012PUSHW[ ]	/* 2 values pushed */\01214 60 \012MD[0]	/* MeasureDistance */\012ROUND[00]	/* Round */\012SUB[ ]	/* Subtract */\012PUSHB[ ]	/* 1 value pushed */\01264 \012GT[ ]	/* GreaterThan */\012IF[ ]	/* If */\012SHPIX[ ]	/* ShiftZoneByPixel */\012SRP1[ ]	/* SetRefPoint1 */\012SHZ[1]	/* ShiftZoneByLastPoint */\012PUSHW[ ]	/* 2 values pushed */\01260 -64 \012SHPIX[ ]	/* ShiftZoneByPixel */\012EIF[ ]	/* EndIf */";
};
width = 326;
}
);
note = d;
unicode = 0064;
},
{
glyphname = e;
lastChange = "2022-03-02 21:18:25 +0000";
layers = (
{
layerId = "423D2297-FAE2-4393-80D6-0A1E9777D337";
paths = (
{
closed = 1;
nodes = (
"172 -7 OFFCURVE",
"219 49 OFFCURVE",
"247 172 CURVE SMOOTH",
"248 179 OFFCURVE",
"246 182 OFFCURVE",
"242 182 CURVE SMOOTH",
"239 182 OFFCURVE",
"236 177 OFFCURVE",
"235 172 CURVE SMOOTH",
"213 70 OFFCURVE",
"170 13 OFFCURVE",
"121 13 CURVE SMOOTH",
"117 13 OFFCURVE",
"114 13 OFFCURVE",
"110 14 CURVE SMOOTH",
"77 20 OFFCURVE",
"60 63 OFFCURVE",
"60 143 CURVE",
"129 143 OFFCURVE",
"182 222 OFFCURVE",
"182 293 CURVE SMOOTH",
"182 328 OFFCURVE",
"168 350 OFFCURVE",
"135 350 CURVE SMOOTH",
"107 350 OFFCURVE",
"81 332 OFFCURVE",
"57 295 CURVE SMOOTH",
"30 253 OFFCURVE",
"16 201 OFFCURVE",
"16 141 CURVE SMOOTH",
"16 72 OFFCURVE",
"46 7 OFFCURVE",
"108 0 CURVE SMOOTH"
);
},
{
closed = 1;
nodes = (
"60 226 OFFCURVE",
"103 334 OFFCURVE",
"142 334 CURVE SMOOTH",
"158 334 OFFCURVE",
"168 322 OFFCURVE",
"168 294 CURVE SMOOTH",
"168 226 OFFCURVE",
"114 155 OFFCURVE",
"61 155 CURVE"
);
}
);
userData = {
assembly = "NPUSHB[ ]	/* 29 values pushed */\0121 38 38 64 39 0 34 33 31 25 20 36 34 33 31 18 14 6 0 28 7 10 10 2 2 1 1 6 70 \012SROUND[ ]	/* SuperRound */\012MDAP[1]	/* MoveDirectAbsPt */\012SHZ[1]	/* ShiftZoneByLastPoint */\012RTG[ ]	/* RoundToGrid */\012SVTCA[0]	/* SetFreedomAndProjectionVectorToAxis */\012MIAP[1]	/* MoveIndirectAbsPt */\012MIAP[1]	/* MoveIndirectAbsPt */\012SRP0[ ]	/* SetRefPoint0 */\012MIRP[11101]	/* MoveIndirectRelPt */\012SVTCA[1]	/* SetFreedomAndProjectionVectorToAxis */\012MDAP[0]	/* MoveDirectAbsPt */\012MDAP[0]	/* MoveDirectAbsPt */\012MDAP[0]	/* MoveDirectAbsPt */\012MDAP[0]	/* MoveDirectAbsPt */\012MDAP[0]	/* MoveDirectAbsPt */\012MDAP[0]	/* MoveDirectAbsPt */\012MDAP[0]	/* MoveDirectAbsPt */\012MDAP[0]	/* MoveDirectAbsPt */\012SVTCA[0]	/* SetFreedomAndProjectionVectorToAxis */\012MDAP[0]	/* MoveDirectAbsPt */\012MDAP[0]	/* MoveDirectAbsPt */\012MDAP[0]	/* MoveDirectAbsPt */\012MDAP[0]	/* MoveDirectAbsPt */\012MDAP[0]	/* MoveDirectAbsPt */\012IUP[1]	/* InterpolateUntPts */\012IUP[0]	/* InterpolateUntPts */\012SVTCA[1]	/* SetFreedomAndProjectionVectorToAxis */\012MD[0]	/* MeasureDistance */\012ROUND[00]	/* Round */\012PUSHW[ ]	/* 2 values pushed */\0126 38 \012MD[0]	/* MeasureDistance */\012ROUND[00]	/* Round */\012SUB[ ]	/* Subtract */\012PUSHB[ ]	/* 1 value pushed */\01264 \012GT[ ]	/* GreaterThan */\012IF[ ]	/* If */\012SHPIX[ ]	/* ShiftZoneByPixel */\012SRP1[ ]	/* SetRefPoint1 */\012SHZ[1]	/* ShiftZoneByLastPoint */\012PUSHW[ ]	/* 2 values pushed */\01238 -64 \012SHPIX[ ]	/* ShiftZoneByPixel */\012EIF[ ]	/* EndIf */";
};
width = 217;
}
);
note = e;
unicode = 0065;
},
{
glyphname = schwa;
lastChange = "2022-03-02 21:18:25 +0000";
layers = (
{
layerId = "423D2297-FAE2-4393-80D6-0A1E9777D337";
paths = (
{
closed = 1;
nodes = (
"162 10 OFFCURVE",
"188 28 OFFCURVE",
"212 65 CURVE SMOOTH",
"239 107 OFFCURVE",
"253 158 OFFCURVE",
"253 219 CURVE SMOOTH",
"253 292 OFFCURVE",
"220 361 OFFCURVE",
"151 361 CURVE SMOOTH",
"83 361 OFFCURVE",
"48 303 OFFCURVE",
"18 172 CURVE SMOOTH",
"17 165 OFFCURVE",
"19 162 OFFCURVE",
"23 162 CURVE SMOOTH",
"26 162 OFFCURVE",
"29 167 OFFCURVE",
"30 172 CURVE SMOOTH",
"56 289 OFFCURVE",
"95 347 OFFCURVE",
"148 347 CURVE SMOOTH",
"188 347 OFFCURVE",
"209 305 OFFCURVE",
"209 217 CURVE",
"140 217 OFFCURVE",
"87 138 OFFCURVE",
"87 67 CURVE SMOOTH",
"87 32 OFFCURVE",
"101 10 OFFCURVE",
"134 10 CURVE SMOOTH"
);
},
{
closed = 1;
nodes = (
"111 26 OFFCURVE",
"101 38 OFFCURVE",
"101 66 CURVE SMOOTH",
"101 134 OFFCURVE",
"155 205 OFFCURVE",
"208 205 CURVE",
"209 134 OFFCURVE",
"166 26 OFFCURVE",
"127 26 CURVE SMOOTH"
);
}
);
width = 287;
}
);
unicode = 0259;
},
